SplineFontDB: 3.0
FontName: ConsolaMono
FullName: ConsolaMono
FamilyName: ConsolaMono
Weight: Medium
Copyright: wmk69 (wmk69@o2.pl)\nSIL Open Font License v.1.1
Version: 1.000
ItalicAngle: 0
UnderlinePosition: -81
UnderlineWidth: 122
Ascent: 1638
Descent: 410
LayerCount: 2
Layer: 0 1 "Warstwa t+AUIA-a"  1
Layer: 1 1 "Plan pierwszy"  0
XUID: [1021 783 23647091 9296189]
FSType: 0
OS2Version: 3
OS2_WeightWidthSlopeOnly: 0
OS2_UseTypoMetrics: 1
CreationTime: 1260698820
ModificationTime: 1307729120
PfmFamily: 33
TTFWeight: 500
TTFWidth: 5
LineGap: 0
VLineGap: 0
Panose: 2 13 6 9 2 4 4 6 2 4
OS2TypoAscent: 2323
OS2TypoAOffset: 0
OS2TypoDescent: -481
OS2TypoDOffset: 0
OS2TypoLinegap: 0
OS2WinAscent: 2323
OS2WinAOffset: 0
OS2WinDescent: 481
OS2WinDOffset: 0
HheadAscent: 2323
HheadAOffset: 0
HheadDescent: -481
HheadDOffset: 0
OS2SubXSize: 1434
OS2SubYSize: 1331
OS2SubXOff: 0
OS2SubYOff: 287
OS2SupXSize: 1434
OS2SupYSize: 1331
OS2SupXOff: 0
OS2SupYOff: 977
OS2StrikeYSize: 102
OS2StrikeYPos: 512
OS2Vendor: '    '
OS2CodePages: 20000093.00000000
OS2UnicodeRanges: 8000002f.4000204b.00000000.00000000
DEI: 91125
ShortTable: maxp 16
  0
  0
  0
  0
  0
  0
  0
  2
  1
  2
  22
  0
  256
  0
  0
  0
EndShort
TtTable: prep
PUSHW_1
 511
SCANCTRL
PUSHB_1
 1
SCANTYPE
SVTCA[y-axis]
MPPEM
PUSHB_1
 8
LT
IF
PUSHB_2
 1
 1
INSTCTRL
EIF
PUSHB_2
 70
 6
CALL
IF
POP
PUSHB_1
 16
EIF
MPPEM
PUSHB_1
 20
GT
IF
POP
PUSHB_1
 128
EIF
SCVTCI
PUSHB_1
 6
CALL
NOT
IF
EIF
PUSHB_1
 20
CALL
EndTTInstrs
TtTable: fpgm
PUSHB_1
 0
FDEF
PUSHB_1
 0
SZP0
MPPEM
PUSHB_1
 42
LT
IF
PUSHB_1
 74
SROUND
EIF
PUSHB_1
 0
SWAP
MIAP[rnd]
RTG
PUSHB_1
 6
CALL
IF
RTDG
EIF
MPPEM
PUSHB_1
 42
LT
IF
RDTG
EIF
DUP
MDRP[rp0,rnd,grey]
PUSHB_1
 1
SZP0
MDAP[no-rnd]
RTG
ENDF
PUSHB_1
 1
FDEF
DUP
MDRP[rp0,min,white]
PUSHB_1
 12
CALL
ENDF
PUSHB_1
 2
FDEF
MPPEM
GT
IF
RCVT
SWAP
EIF
POP
ENDF
PUSHB_1
 3
FDEF
ROUND[Black]
RTG
DUP
PUSHB_1
 64
LT
IF
POP
PUSHB_1
 64
EIF
ENDF
PUSHB_1
 4
FDEF
PUSHB_1
 6
CALL
IF
POP
SWAP
POP
ROFF
IF
MDRP[rp0,min,rnd,black]

StartChar: .notdef
Encoding: 65536 -1 0
Width: 1200
Flags: W
HStem: 0 68<268 932> 1432 68<268 932>
VStem: 200 68<68 1432> 932 68<68 1432>
LayerCount: 2
Fore
SplineSet
200 0 m 1,0,-1
 200 1500 l 1,1,-1
 1000 1500 l 1,2,-1
 1000 0 l 1,3,-1
 200 0 l 1,0,-1
268 68 m 1,4,-1
 932 68 l 1,5,-1
 932 1432 l 1,6,-1
 268 1432 l 1,7,-1
 268 68 l 1,4,-1
EndSplineSet
Validated: 1
EndChar

StartChar: exclam
Encoding: 33 33 4
Width: 1200
GlyphClass: 2
Flags: W
HStem: -20 261<513.098 695.931> 1480 20G<480 720>
VStem: 469 261<19.0684 206.723 1234.43 1500> 530 140<370 693.994>
LayerCount: 2
Fore
SplineSet
469 110 m 0,0,1
 469 163 469 163 508 202 c 128,-1,2
 547 241 547 241 600 241 c 0,3,4
 651 241 651 241 691 202 c 0,5,6
 730 164 730 164 730 113 c 2,7,8
 730 113 730 113 730 110 c 0,9,10
 727 52 727 52 697 18 c 0,11,12
 663 -20 663 -20 604 -20 c 0,13,14
 603 -20 603 -20 601 -20 c 2,15,-1
 599 -20 l 1,16,17
 547 -18 547 -18 512 10 c 0,18,19
 469 46 469 46 469 110 c 0,0,1
480 1500 m 1,20,-1
 720 1500 l 1,21,-1
 670 370 l 1,22,-1
 530 370 l 1,23,-1
 480 1500 l 1,20,-1
EndSplineSet
Validated: 1
EndChar

StartChar: quotedbl
Encoding: 34 34 5
Width: 1200
GlyphClass: 2
Flags: W
HStem: 1016 484<394 522 678 806>
VStem: 394 128<1016 1247.29> 678 128<1016 1247.29>
LayerCount: 2
Fore
SplineSet
648 1500 m 1,0,-1
 836 1500 l 1,1,-1
 806 1016 l 1,2,-1
 678 1016 l 1,3,-1
 648 1500 l 1,0,-1
364 1500 m 1,4,-1
 552 1500 l 1,5,-1
 522 1016 l 1,6,-1
 394 1016 l 1,7,-1
 364 1500 l 1,4,-1
EndSplineSet
Validated: 1
EndChar

StartChar: numbersign
Encoding: 35 35 6
Width: 1200
GlyphClass: 2
Flags: W
HStem: 510 160<186 360 520 680 840 1014> 830 160<186 360 520 680 840 1014>
VStem: 360 160<168 510 670 830 990 1332> 680 160<168 510 670 830 990 1332>
LayerCount: 2
Fore
SplineSet
360 168 m 1,0,-1
 360 510 l 1,1,-1
 186 510 l 1,2,-1
 186 670 l 1,3,-1
 360 670 l 1,4,-1
 360 830 l 1,5,-1
 186 830 l 1,6,-1
 186 990 l 1,7,-1
 360 990 l 1,8,-1
 360 1332 l 1,9,-1
 520 1332 l 1,10,-1
 520 990 l 1,11,-1
 680 990 l 1,12,-1
 680 1332 l 1,13,-1
 840 1332 l 1,14,-1
 840 990 l 1,15,-1
 1014 990 l 1,16,-1
 1014 830 l 1,17,-1
 840 830 l 1,18,-1
 840 670 l 1,19,-1
 1014 670 l 1,20,-1
 1014 510 l 1,21,-1
 840 510 l 1,22,-1
 840 168 l 1,23,-1
 680 168 l 1,24,-1
 680 510 l 1,25,-1
 520 510 l 1,26,-1
 520 168 l 1,27,-1
 360 168 l 1,0,-1
520 670 m 1,28,-1
 680 670 l 1,29,-1
 680 830 l 1,30,-1
 520 830 l 1,31,-1
 520 670 l 1,28,-1
EndSplineSet
Validated: 1
EndChar

StartChar: dollar
Encoding: 36 36 7
Width: 1200
GlyphClass: 2
Flags: W
VStem: 150 180<226.417 334> 209 180<1002.19 1301.03> 510 180<-259 -6.04297 145 687 965 1348 1499.26 1760> 805 180<1165 1294.96> 870 180<226.844 611.5>
DStem2: 510 965 340 847 0.905872 -0.423551<-151.581 0 280.804 497.629>
LayerCount: 2
Fore
SplineSet
150 334 m 1,0,-1
 330 334 l 1,1,2
 330 241 330 241 430 180 c 0,3,4
 468 157 468 157 510 145 c 1,5,-1
 510 770 l 1,6,-1
 340 847 l 2,7,8
 209 907 209 907 209 1090 c 2,9,-1
 209 1206 l 2,10,11
 209 1322 209 1322 340 1428 c 0,12,13
 418 1491 418 1491 510 1511 c 1,14,-1
 510 1760 l 1,15,-1
 690 1760 l 1,16,-1
 690 1510 l 1,17,18
 780 1491 780 1491 857 1432 c 0,19,20
 985 1334 985 1334 985 1165 c 1,21,-1
 805 1165 l 1,22,23
 805 1257 805 1257 749 1309 c 0,24,25
 722 1334 722 1334 690 1348 c 1,26,-1
 690 881 l 1,27,-1
 891 787 l 2,28,29
 1050 712 1050 712 1050 525 c 2,30,-1
 1050 334 l 2,31,32
 1050 184 1050 184 890 72 c 0,33,34
 797 7 797 7 690 -12 c 1,35,-1
 690 -259 l 1,36,-1
 510 -260 l 1,37,-1
 510 -14 l 1,38,39
 395 3 395 3 302 65 c 0,40,41
 150 166 150 166 150 334 c 1,0,-1
510 965 m 1,42,-1
 510 1351 l 1,43,44
 483 1340 483 1340 458 1322 c 0,45,46
 389 1272 389 1272 389 1206 c 2,47,-1
 389 1090 l 2,48,49
 389 1022 389 1022 444 996 c 2,50,-1
 510 965 l 1,42,-1
690 687 m 1,51,-1
 690 145 l 1,52,53
 738 159 738 159 779 187 c 0,54,55
 870 249 870 249 870 334 c 2,56,-1
 870 525 l 2,57,58
 870 598 870 598 774 646 c 0,59,60
 754 656 754 656 690 687 c 1,51,-1
EndSplineSet
Validated: 1
EndChar

StartChar: percent
Encoding: 37 37 8
Width: 1200
GlyphClass: 2
Flags: W
HStem: 0 158<711.953 947.561> 505 160<715.68 947.065> 855 160<248.453 484.061> 1362 158<251.68 483.336>
VStem: 30 164<1071.36 1303.49> 494 163<214.41 448.257> 542 164<1072.76 1302.41> 1005 165<214.969 446.256>
DStem2: 49 233 187 118 0.642739 0.766086<0.598069 1499.83>
LayerCount: 2
Fore
SplineSet
542 1189 m 0,0,1
 542 1258 542 1258 492 1310 c 128,-1,2
 442 1362 442 1362 372 1362 c 2,3,-1
 369 1362 l 1,4,5
 294 1361 294 1361 244 1311 c 128,-1,6
 194 1261 194 1261 194 1189 c 0,7,8
 194 1115 194 1115 244 1064 c 0,9,10
 292 1015 292 1015 367 1015 c 0,11,12
 443 1015 443 1015 492 1066 c 0,13,14
 542 1118 542 1118 542 1189 c 0,0,1
1005 332 m 0,15,16
 1005 401 1005 401 955 453 c 128,-1,17
 905 505 905 505 835 505 c 0,18,19
 834 505 834 505 832 505 c 0,20,21
 758 505 758 505 707 454 c 0,22,23
 657 404 657 404 657 332 c 0,24,25
 657 258 657 258 707 207 c 0,26,27
 755 158 755 158 830 158 c 0,28,29
 906 158 906 158 955 209 c 0,30,31
 1005 261 1005 261 1005 332 c 0,15,16
1013 1382 m 1,32,-1
 1151 1267 l 1,33,-1
 187 118 l 1,34,-1
 49 233 l 1,35,-1
 1013 1382 l 1,32,-1
30 1194 m 0,36,37
 30 1325 30 1325 128 1423 c 0,38,39
 225 1520 225 1520 368 1520 c 0,40,41
 509 1520 509 1520 608 1423 c 0,42,43
 706 1327 706 1327 706 1188 c 0,44,45
 706 1046 706 1046 608 952 c 0,46,47
 507 855 507 855 368 855 c 0,48,49
 226 855 226 855 128 955 c 128,-1,50
 30 1055 30 1055 30 1194 c 0,36,37
494 332 m 128,-1,52
 494 470 494 470 592 568 c 0,53,54
 689 665 689 665 832 665 c 0,55,56
 973 665 973 665 1072 568 c 0,57,58
 1170 472 1170 472 1170 332 c 128,-1,59
 1170 192 1170 192 1072 97 c 0,60,61
 971 0 971 0 832 0 c 0,62,63
 690 0 690 0 592 97 c 128,-1,51
 494 194 494 194 494 332 c 128,-1,52
EndSplineSet
Validated: 1
EndChar

StartChar: ampersand
Encoding: 38 38 9
Width: 1200
GlyphClass: 2
Flags: W
HStem: -20 153<361.145 651.837> 0 21G<907.887 1129> 1366 154<395.477 607.619>
VStem: 100 180<210.157 649.286> 160 180<961.252 1308.15> 651 180<1205 1321.8> 905 188<715 903>
DStem2: 590 903 470 742 0.512537 -0.858665<69.1501 475.062 778.503 944.512>
LayerCount: 2
Fore
SplineSet
470 742 m 1,0,1
 428 731 428 731 371 692 c 0,2,3
 280 630 280 630 280 545 c 2,4,-1
 280 334 l 2,5,6
 280 233 280 233 359 178 c 0,7,8
 424 133 424 133 499 133 c 0,9,10
 580 133 580 133 650 176 c 0,11,12
 709 212 709 212 742 296 c 1,13,-1
 470 742 l 1,0,1
1129 0 m 1,14,-1
 920 0 l 1,15,-1
 834 142 l 1,16,17
 796 79 796 79 759 52 c 0,18,19
 660 -20 660 -20 515 -20 c 0,20,21
 508 -20 508 -20 500 -20 c 0,22,23
 364 -20 364 -20 248 63 c 0,24,25
 100 170 100 170 100 334 c 2,26,-1
 100 545 l 2,27,28
 100 698 100 698 260 807 c 0,29,30
 279 820 279 820 299 832 c 1,31,32
 160 926 160 926 160 1070 c 2,33,-1
 160 1186 l 2,34,35
 160 1343 160 1343 284 1442 c 0,36,37
 381 1519 381 1519 496 1520 c 1,38,39
 496 1520 496 1520 499 1520 c 0,40,41
 632 1520 632 1520 716 1442 c 0,42,43
 823 1343 823 1343 831 1205 c 1,44,-1
 651 1205 l 1,45,46
 648 1285 648 1285 609 1323 c 0,47,48
 565 1366 565 1366 497 1366 c 0,49,50
 439 1366 439 1366 392 1319 c 0,51,52
 340 1267 340 1267 340 1186 c 2,53,-1
 340 1070 l 2,54,55
 340 996 340 996 399 946 c 0,56,57
 450 903 450 903 500 903 c 2,58,-1
 590 903 l 1,59,-1
 830 493 l 1,60,61
 857 581 857 581 873 666 c 0,62,63
 895 788 895 788 905 903 c 1,64,-1
 1093 903 l 1,65,66
 1074 731 1074 731 1045 606 c 0,67,68
 1013 472 1013 472 947 296 c 1,69,-1
 1129 0 l 1,14,-1
EndSplineSet
Validated: 1
EndChar

StartChar: quotesingle
Encoding: 39 39 10
Width: 1200
GlyphClass: 2
Flags: W
HStem: 1016 484<536 664>
VStem: 536 128<1016 1247.29>
LayerCount: 2
Fore
SplineSet
506 1500 m 1,0,-1
 694 1500 l 1,1,-1
 664 1016 l 1,2,-1
 536 1016 l 1,3,-1
 506 1500 l 1,0,-1
EndSplineSet
Validated: 1
EndChar

StartChar: parenleft
Encoding: 40 40 11
Width: 1200
GlyphClass: 2
Flags: W
VStem: 351 187<332.687 1167.31>
LayerCount: 2
Fore
SplineSet
848 1760 m 1,0,1
 809 1719 809 1719 765 1644 c 1,2,3
 663 1477 663 1477 600 1241 c 0,4,5
 538 1007 538 1007 538 750 c 128,-1,6
 538 493 538 493 600 259 c 128,-1,7
 662 25 662 25 765 -144 c 0,8,9
 803 -208 803 -208 849 -260 c 1,10,-1
 662 -260 l 1,11,12
 616 -208 616 -208 578 -144 c 0,13,14
 475 25 475 25 413 259 c 128,-1,15
 351 493 351 493 351 750 c 128,-1,16
 351 1007 351 1007 413 1241 c 0,17,18
 476 1477 476 1477 578 1644 c 1,19,20
 622 1719 622 1719 661 1760 c 1,21,22
 661 1760 661 1760 848 1760 c 1,0,1
EndSplineSet
Validated: 1
EndChar

StartChar: parenright
Encoding: 41 41 12
Width: 1200
GlyphClass: 2
Flags: W
VStem: 662 187<332.687 1167.31>
LayerCount: 2
Fore
SplineSet
352 1760 m 1,0,1
 352 1760 352 1760 539 1760 c 1,2,3
 578 1719 578 1719 622 1644 c 1,4,5
 724 1477 724 1477 787 1241 c 0,6,7
 849 1007 849 1007 849 750 c 128,-1,8
 849 493 849 493 787 259 c 128,-1,9
 725 25 725 25 622 -144 c 0,10,11
 584 -208 584 -208 538 -260 c 1,12,-1
 351 -260 l 1,13,14
 397 -208 397 -208 435 -144 c 0,15,16
 538 25 538 25 600 259 c 128,-1,17
 662 493 662 493 662 750 c 128,-1,18
 662 1007 662 1007 600 1241 c 0,19,20
 537 1477 537 1477 435 1644 c 1,21,22
 391 1719 391 1719 352 1760 c 1,0,1
EndSplineSet
Validated: 1
EndChar

StartChar: asterisk
Encoding: 42 42 13
Width: 1200
GlyphClass: 2
Flags: W
HStem: 1480 20G<520 680>
VStem: 520 160<672 947 1225 1500>
DStem2: 281 1362 201 1224 0.866306 -0.499514<0 275.48 552.954 828.435> 201 948 281 810 0.866306 0.499514<0.371617 275.852 553.326 828.806>
LayerCount: 2
Fore
SplineSet
680 672 m 1,0,-1
 520 672 l 1,1,-1
 520 947 l 1,2,-1
 281 810 l 1,3,-1
 201 948 l 1,4,-1
 440 1086 l 1,5,-1
 201 1224 l 1,6,-1
 281 1362 l 1,7,-1
 520 1225 l 1,8,-1
 520 1500 l 1,9,-1
 680 1500 l 1,10,-1
 680 1225 l 1,11,-1
 919 1362 l 1,12,-1
 999 1224 l 1,13,-1
 760 1086 l 1,14,-1
 999 948 l 1,15,-1
 919 810 l 1,16,-1
 680 947 l 1,17,-1
 680 672 l 1,0,-1
EndSplineSet
Validated: 1
EndChar

StartChar: plus
Encoding: 43 43 14
Width: 1200
GlyphClass: 2
Flags: W
HStem: 670 160<186 520 680 1014>
VStem: 520 160<336 670 830 1164>
LayerCount: 2
Fore
SplineSet
186 670 m 1,0,-1
 186 830 l 1,1,-1
 520 830 l 1,2,-1
 520 1164 l 1,3,-1
 680 1164 l 1,4,-1
 680 830 l 1,5,-1
 1014 830 l 1,6,-1
 1014 670 l 1,7,-1
 680 670 l 1,8,-1
 680 336 l 1,9,-1
 520 336 l 1,10,-1
 520 670 l 1,11,-1
 186 670 l 1,0,-1
EndSplineSet
Validated: 1
EndChar

StartChar: comma
Encoding: 44 44 15
Width: 1200
GlyphClass: 2
Flags: W
HStem: -292 494
VStem: 557 159<-143.927 143.711>
LayerCount: 2
Fore
SplineSet
662 202 m 1,0,1
 716 107 716 107 716 -7 c 0,2,3
 716 -182 716 -182 485 -292 c 1,4,-1
 485 -176 l 1,5,6
 557 -108 557 -108 557 -9 c 0,7,8
 557 53 557 53 499 132 c 1,9,10
 499 132 499 132 662 202 c 1,0,1
EndSplineSet
Validated: 1
EndChar

StartChar: hyphen
Encoding: 45 45 16
Width: 1200
GlyphClass: 2
Flags: W
HStem: 670 160<186 1014>
LayerCount: 2
Fore
SplineSet
186 670 m 1,0,-1
 186 830 l 1,1,-1
 1014 830 l 1,2,-1
 1014 670 l 1,3,-1
 186 670 l 1,0,-1
EndSplineSet
Validated: 1
EndChar

StartChar: period
Encoding: 46 46 17
Width: 1200
GlyphClass: 2
Flags: W
HStem: 0 261<516.097 690.748>
VStem: 470 261<39.9451 226.723>
LayerCount: 2
Fore
SplineSet
470 130 m 0,0,1
 470 183 470 183 509 222 c 128,-1,2
 548 261 548 261 601 261 c 0,3,4
 652 261 652 261 692 222 c 0,5,6
 731 184 731 184 731 133 c 2,7,8
 731 133 731 133 731 130 c 0,9,10
 723 69 723 69 692 39 c 0,11,12
 652 0 652 0 602 0 c 2,13,-1
 600 0 l 1,14,15
 550 2 550 2 515 31 c 0,16,17
 470 67 470 67 470 130 c 0,0,1
EndSplineSet
Validated: 1
EndChar

StartChar: slash
Encoding: 47 47 18
Width: 1200
GlyphClass: 2
Flags: W
VStem: 30 199<-260 -61> 973 197<1563 1760>
DStem2: 30 -260 229 -260 0.423008 0.906126<84.1786 2229.27>
LayerCount: 2
Fore
SplineSet
1170 1760 m 1,0,-1
 229 -260 l 1,1,-1
 30 -260 l 1,2,-1
 973 1760 l 1,3,-1
 1170 1760 l 1,0,-1
EndSplineSet
Validated: 1
EndChar

StartChar: zero
Encoding: 48 48 19
Width: 1200
GlyphClass: 2
Flags: W
HStem: -20 153<435.311 762.608> 1367 153<434.916 761.533>
VStem: 150 180<505 1273.58> 870 180<226.844 985>
DStem2: 330 505 350 257 0.581133 0.813809<0 704.44>
LayerCount: 2
Fore
SplineSet
600 -20 m 0,0,1
 430 -20 430 -20 302 65 c 0,2,3
 150 166 150 166 150 334 c 2,4,-1
 150 1166 l 2,5,6
 150 1334 150 1334 302 1435 c 0,7,8
 430 1520 430 1520 596 1520 c 2,9,-1
 600 1520 l 1,10,11
 760 1519 760 1519 890 1428 c 0,12,13
 1050 1316 1050 1316 1050 1166 c 2,14,-1
 1050 334 l 2,15,16
 1050 184 1050 184 890 72 c 0,17,18
 759 -20 759 -20 600 -20 c 0,0,1
870 985 m 1,19,-1
 350 257 l 1,20,21
 375 214 375 214 430 180 c 0,22,23
 506 133 506 133 601 133 c 0,24,25
 701 134 701 134 779 187 c 0,26,27
 870 250 870 250 870 334 c 2,28,-1
 870 985 l 1,19,-1
330 505 m 1,29,-1
 852 1236 l 1,30,31
 830 1278 830 1278 779 1313 c 0,32,33
 702 1366 702 1366 601 1367 c 0,34,35
 506 1367 506 1367 430 1320 c 0,36,37
 330 1258 330 1258 330 1166 c 2,38,-1
 330 505 l 1,29,-1
EndSplineSet
Validated: 1
EndChar

StartChar: one
Encoding: 49 49 20
Width: 1200
GlyphClass: 2
Flags: W
HStem: 0 160<250 574 754 1078> 920 230<250 480> 1480 20G<555.486 754>
VStem: 574 180<160 1270>
DStem2: 250 1150 250 920 0.679324 0.733838<0 308.162>
LayerCount: 2
Fore
SplineSet
250 0 m 1,0,-1
 250 160 l 1,1,-1
 574 160 l 1,2,-1
 574 1270 l 1,3,-1
 250 920 l 1,4,-1
 250 1150 l 1,5,-1
 574 1500 l 1,6,-1
 754 1500 l 1,7,-1
 754 160 l 1,8,-1
 1078 160 l 1,9,-1
 1078 0 l 1,10,-1
 250 0 l 1,0,-1
EndSplineSet
Validated: 1
EndChar

StartChar: two
Encoding: 50 50 21
Width: 1200
GlyphClass: 2
Flags: W
HStem: 0 160<330 1050> 1367 153<434.769 761.533>
VStem: 150 180<160 471.188 1166 1273.13> 870 180<887.375 1273.62>
DStem2: 281 630 385 481 0.909008 0.416778<-43.2616 660.886>
LayerCount: 2
Fore
SplineSet
150 0 m 1,0,-1
 150 387 l 2,1,2
 150 571 150 571 281 630 c 2,3,-1
 774 854 l 1,4,5
 870 900 870 900 870 975 c 2,6,-1
 870 1166 l 2,7,8
 870 1251 870 1251 779 1313 c 0,9,10
 701 1366 701 1366 601 1367 c 0,11,12
 506 1367 506 1367 430 1320 c 0,13,14
 330 1258 330 1258 330 1166 c 1,15,-1
 150 1166 l 1,16,17
 150 1333 150 1333 302 1435 c 0,18,19
 429 1520 429 1520 596 1520 c 2,20,-1
 600 1520 l 1,21,22
 760 1519 760 1519 890 1428 c 0,23,24
 1050 1317 1050 1317 1050 1166 c 2,25,-1
 1050 975 l 2,26,27
 1050 785 1050 785 891 713 c 0,28,29
 601 581 601 581 385 481 c 0,30,31
 330 455 330 455 330 387 c 2,32,-1
 330 160 l 1,33,-1
 1050 160 l 1,34,-1
 1050 0 l 1,35,-1
 150 0 l 1,0,-1
EndSplineSet
Validated: 1
EndChar

StartChar: three
Encoding: 51 51 22
Width: 1200
GlyphClass: 2
Flags: W
HStem: -20 153<435.311 764.609> 746 153<461 746.081> 1367 153<458.488 731.942>
VStem: 150 180<226.417 334> 209 180<1206 1300.01> 810 180<961.252 1290.44> 870 180<226.375 649.286>
LayerCount: 2
Fore
SplineSet
150 334 m 1,0,-1
 330 334 l 1,1,2
 330 242 330 242 430 180 c 0,3,4
 506 133 506 133 601 133 c 0,5,6
 701 134 701 134 779 187 c 0,7,8
 870 249 870 249 870 334 c 2,9,-1
 870 545 l 2,10,11
 870 629 870 629 779 692 c 0,12,13
 700 746 700 746 601 746 c 2,14,-1
 461 746 l 1,15,-1
 461 899 l 1,16,-1
 601 899 l 2,17,18
 695 899 695 899 751 946 c 0,19,20
 810 996 810 996 810 1070 c 2,21,-1
 810 1186 l 2,22,23
 810 1253 810 1253 749 1309 c 0,24,25
 685 1367 685 1367 599 1367 c 0,26,27
 520 1367 520 1367 458 1322 c 0,28,29
 389 1272 389 1272 389 1206 c 1,30,-1
 209 1206 l 1,31,32
 209 1332 209 1332 331 1429 c 0,33,34
 444 1520 444 1520 600 1520 c 1,35,36
 742 1519 742 1519 857 1432 c 1,37,38
 990 1335 990 1335 990 1186 c 2,39,-1
 990 1070 l 2,40,41
 990 926 990 926 851 832 c 1,42,43
 871 820 871 820 890 807 c 0,44,45
 1050 698 1050 698 1050 545 c 2,46,-1
 1050 334 l 2,47,48
 1050 183 1050 183 890 72 c 0,49,50
 758 -20 758 -20 600 -20 c 0,51,52
 430 -20 430 -20 302 65 c 0,53,54
 150 166 150 166 150 334 c 1,0,-1
EndSplineSet
Validated: 1
EndChar

StartChar: four
Encoding: 52 52 23
Width: 1200
GlyphClass: 2
Flags: W
HStem: 0 21G<810 990> 321 160<312 810> 1480 20G<697 990>
VStem: 810 180<0 321 481 1280>
LayerCount: 2
Fore
SplineSet
810 0 m 1,0,-1
 810 321 l 1,1,-1
 100 321 l 1,2,3
 156 667 156 667 370 986 c 0,4,5
 584 1304 584 1304 810 1500 c 1,6,-1
 990 1500 l 1,7,-1
 990 0 l 1,8,-1
 810 0 l 1,0,-1
810 481 m 1,9,-1
 810 1280 l 1,10,11
 700 1180 700 1180 546 956 c 0,12,13
 403 747 403 747 312 481 c 1,14,-1
 810 481 l 1,9,-1
EndSplineSet
Validated: 1
EndChar

StartChar: five
Encoding: 53 53 24
Width: 1200
GlyphClass: 2
Flags: W
HStem: -20 153<435.311 762.608> 825 153<434.708 761.533> 1340 160<449 977>
VStem: 150 180<226.417 334> 870 180<226.844 731.156>
DStem2: 199 838 388 939 0.152282 0.988337<128.603 534.216>
LayerCount: 2
Fore
SplineSet
150 334 m 1,0,1
 150 334 150 334 330 334 c 1,2,3
 330 242 330 242 430 180 c 0,4,5
 506 133 506 133 601 133 c 0,6,7
 701 134 701 134 779 187 c 0,8,9
 870 250 870 250 870 334 c 2,10,-1
 870 624 l 2,11,12
 870 708 870 708 779 771 c 0,13,14
 701 824 701 824 601 825 c 0,15,16
 505 825 505 825 430 778 c 0,17,18
 398 758 398 758 376 735 c 1,19,-1
 199 838 l 1,20,-1
 301 1500 l 1,21,-1
 977 1500 l 1,22,-1
 977 1340 l 1,23,-1
 449 1340 l 1,24,-1
 388 939 l 1,25,26
 483 978 483 978 594 978 c 0,27,28
 597 978 597 978 600 978 c 0,29,30
 760 978 760 978 890 886 c 0,31,32
 1050 774 1050 774 1050 624 c 2,33,-1
 1050 334 l 2,34,35
 1050 184 1050 184 890 72 c 0,36,37
 759 -20 759 -20 600 -20 c 0,38,39
 430 -20 430 -20 302 65 c 0,40,41
 150 166 150 166 150 334 c 1,0,1
EndSplineSet
Validated: 1
EndChar

StartChar: six
Encoding: 54 54 25
Width: 1200
GlyphClass: 2
Flags: W
HStem: -20 153<435.311 762.608> 825 153<434.769 761.533> 1367 153<434.916 761.533>
VStem: 150 180<226.417 731.83 910 1273.58> 870 180<226.844 731.156 1166 1273.16>
LayerCount: 2
Fore
SplineSet
1050 1166 m 1,0,-1
 870 1166 l 1,1,2
 870 1250 870 1250 779 1313 c 0,3,4
 701 1366 701 1366 601 1367 c 0,5,6
 506 1367 506 1367 430 1320 c 0,7,8
 330 1258 330 1258 330 1166 c 2,9,-1
 330 910 l 1,10,11
 447 978 447 978 596 978 c 2,12,-1
 600 978 l 1,13,14
 760 977 760 977 890 886 c 0,15,16
 1050 774 1050 774 1050 624 c 2,17,-1
 1050 334 l 2,18,19
 1050 184 1050 184 890 72 c 0,20,21
 759 -20 759 -20 600 -20 c 0,22,23
 430 -20 430 -20 302 65 c 0,24,25
 150 166 150 166 150 334 c 2,26,-1
 150 1166 l 2,27,28
 150 1334 150 1334 302 1435 c 0,29,30
 430 1520 430 1520 596 1520 c 2,31,-1
 600 1520 l 1,32,33
 760 1519 760 1519 890 1428 c 0,34,35
 1050 1316 1050 1316 1050 1166 c 1,0,-1
330 624 m 2,36,-1
 330 334 l 2,37,38
 330 242 330 242 430 180 c 0,39,40
 506 133 506 133 601 133 c 0,41,42
 701 134 701 134 779 187 c 0,43,44
 870 250 870 250 870 334 c 2,45,-1
 870 624 l 2,46,47
 870 708 870 708 779 771 c 0,48,49
 701 824 701 824 601 825 c 0,50,51
 506 825 506 825 430 778 c 0,52,53
 330 716 330 716 330 624 c 2,36,-1
EndSplineSet
Validated: 1
EndChar

StartChar: seven
Encoding: 55 55 26
Width: 1200
GlyphClass: 2
Flags: W
HStem: 0 21G<260 561> 1340 160<150 838>
VStem: 260 198<0 198>
LayerCount: 2
Fore
SplineSet
260 0 m 1,0,1
 542 435 542 435 670 780 c 0,2,3
 794 1115 794 1115 838 1340 c 1,4,-1
 150 1340 l 1,5,-1
 150 1500 l 1,6,-1
 1050 1500 l 1,7,8
 999 1118 999 1118 838 730 c 0,9,10
 664 310 664 310 458 0 c 1,11,-1
 260 0 l 1,0,1
EndSplineSet
Validated: 1
EndChar

StartChar: eight
Encoding: 56 56 27
Width: 1200
GlyphClass: 2
Flags: W
HStem: -20 153<435.459 764.012> 746 153<453.919 746.081> 1367 153<468.974 731.228>
VStem: 150 180<226.621 649.286> 210 180<961.252 1290.44> 810 180<961.252 1290.44> 870 180<226.375 649.286>
LayerCount: 2
Fore
SplineSet
601 133 m 0,0,1
 700 133 700 133 779 187 c 0,2,3
 870 249 870 249 870 334 c 2,4,-1
 870 545 l 2,5,6
 870 629 870 629 779 692 c 0,7,8
 700 746 700 746 601 746 c 2,9,-1
 599 746 l 2,10,11
 500 746 500 746 421 692 c 0,12,13
 330 629 330 629 330 545 c 2,14,-1
 330 334 l 2,15,16
 330 243 330 243 430 180 c 0,17,18
 500 136 500 136 598 133 c 0,19,20
 599 133 599 133 601 133 c 0,0,1
600 -20 m 0,21,22
 443 -20 443 -20 310 72 c 0,23,24
 150 183 150 183 150 334 c 2,25,-1
 150 545 l 2,26,27
 150 698 150 698 310 807 c 0,28,29
 329 820 329 820 349 832 c 1,30,31
 210 926 210 926 210 1070 c 2,32,-1
 210 1186 l 2,33,34
 210 1335 210 1335 343 1432 c 1,35,36
 460 1520 460 1520 597 1520 c 2,37,-1
 600 1520 l 1,38,39
 742 1519 742 1519 857 1432 c 1,40,41
 990 1335 990 1335 990 1186 c 2,42,-1
 990 1070 l 2,43,44
 990 926 990 926 851 832 c 1,45,46
 871 820 871 820 890 807 c 0,47,48
 1050 698 1050 698 1050 545 c 2,49,-1
 1050 334 l 2,50,51
 1050 183 1050 183 890 72 c 0,52,53
 758 -20 758 -20 600 -20 c 0,21,22
601 899 m 2,54,55
 695 899 695 899 751 946 c 0,56,57
 810 996 810 996 810 1070 c 2,58,-1
 810 1186 l 2,59,60
 810 1253 810 1253 749 1309 c 0,61,62
 685 1367 685 1367 599 1367 c 0,63,64
 515 1367 515 1367 451 1309 c 0,65,66
 390 1253 390 1253 390 1186 c 2,67,-1
 390 1070 l 2,68,69
 390 996 390 996 449 946 c 0,70,71
 505 899 505 899 599 899 c 2,72,-1
 601 899 l 2,54,55
EndSplineSet
Validated: 1
EndChar

StartChar: nine
Encoding: 57 57 28
Width: 1200
GlyphClass: 2
Flags: W
HStem: -20 153<438.965 765.084> 522 153<438.965 765.231> 1367 153<438.467 765.084>
VStem: 150 180<226.844 334 768.844 1273.16> 870 180<226.417 590 768.17 1273.58>
LayerCount: 2
Fore
SplineSet
150 334 m 1,0,-1
 330 334 l 1,1,2
 330 250 330 250 421 187 c 0,3,4
 499 134 499 134 599 133 c 0,5,6
 694 133 694 133 770 180 c 0,7,8
 870 242 870 242 870 334 c 2,9,-1
 870 590 l 1,10,11
 753 522 753 522 604 522 c 0,12,13
 602 522 602 522 600 522 c 0,14,15
 441 522 441 522 310 614 c 0,16,17
 150 726 150 726 150 876 c 2,18,-1
 150 1166 l 2,19,20
 150 1316 150 1316 310 1428 c 0,21,22
 440 1519 440 1519 600 1520 c 1,23,24
 600 1520 600 1520 604 1520 c 0,25,26
 770 1520 770 1520 898 1435 c 0,27,28
 1050 1334 1050 1334 1050 1166 c 2,29,-1
 1050 334 l 2,30,31
 1050 166 1050 166 898 65 c 0,32,33
 770 -20 770 -20 604 -20 c 0,34,35
 602 -20 602 -20 600 -20 c 0,36,37
 441 -20 441 -20 310 72 c 0,38,39
 150 184 150 184 150 334 c 1,0,-1
870 876 m 2,40,-1
 870 1166 l 2,41,42
 870 1258 870 1258 770 1320 c 0,43,44
 694 1367 694 1367 599 1367 c 0,45,46
 499 1366 499 1366 421 1313 c 0,47,48
 330 1250 330 1250 330 1166 c 2,49,-1
 330 876 l 2,50,51
 330 792 330 792 421 729 c 0,52,53
 499 676 499 676 599 675 c 0,54,55
 694 675 694 675 770 722 c 0,56,57
 870 784 870 784 870 876 c 2,40,-1
EndSplineSet
Validated: 1
EndChar

StartChar: colon
Encoding: 58 58 29
Width: 1200
GlyphClass: 2
Flags: W
HStem: 0 261<514.19 697.856> 620 261<514.19 697.856>
VStem: 470 261<35.1309 226.723 655.131 846.723>
LayerCount: 2
Fore
SplineSet
470 750 m 0,0,1
 470 803 470 803 509 842 c 128,-1,2
 548 881 548 881 601 881 c 0,3,4
 652 881 652 881 692 842 c 0,5,6
 731 804 731 804 731 753 c 0,7,8
 731 751 731 751 731 750 c 0,9,10
 731 697 731 697 692 659 c 0,11,12
 652 620 652 620 602 620 c 2,13,-1
 600 620 l 1,14,15
 551 622 551 622 513 654 c 0,16,17
 470 690 470 690 470 750 c 0,0,1
470 130 m 0,18,19
 470 183 470 183 509 222 c 128,-1,20
 548 261 548 261 601 261 c 0,21,22
 652 261 652 261 692 222 c 0,23,24
 731 184 731 184 731 133 c 0,25,26
 731 131 731 131 731 130 c 0,27,28
 731 77 731 77 692 39 c 0,29,30
 652 0 652 0 602 0 c 2,31,-1
 600 0 l 1,32,33
 551 2 551 2 513 34 c 0,34,35
 470 70 470 70 470 130 c 0,18,19
EndSplineSet
Validated: 1
EndChar

StartChar: semicolon
Encoding: 59 59 30
Width: 1200
GlyphClass: 2
Flags: W
HStem: 620 261<509.252 694.856>
VStem: 467 261<656.131 846.723> 547 159<-143.927 143.711>
LayerCount: 2
Fore
SplineSet
467 750 m 0,0,1
 467 804 467 804 506 842 c 0,2,3
 546 881 546 881 598 881 c 0,4,5
 649 881 649 881 689 842 c 0,6,7
 728 804 728 804 728 750 c 0,8,9
 728 697 728 697 689 659 c 0,10,11
 649 620 649 620 599 620 c 0,12,13
 598 620 598 620 597 620 c 0,14,15
 548 620 548 620 508 655 c 0,16,17
 467 691 467 691 467 750 c 0,0,1
652 202 m 1,18,19
 706 107 706 107 706 -7 c 0,20,21
 706 -182 706 -182 475 -292 c 1,22,-1
 475 -176 l 1,23,24
 547 -108 547 -108 547 -9 c 0,25,26
 547 53 547 53 489 132 c 1,27,-1
 652 202 l 1,18,19
EndSplineSet
Validated: 1
EndChar

StartChar: less
Encoding: 60 60 31
Width: 1200
GlyphClass: 2
Flags: W
DStem2: 200 796 441 750 0.866005 0.500036<185.705 827.716> 441 750 200 704 0.865481 -0.500941<0 642.511>
LayerCount: 2
Fore
SplineSet
200 796 m 1,0,-1
 917 1210 l 1,1,-1
 997 1071 l 1,2,-1
 441 750 l 1,3,-1
 997 428 l 1,4,-1
 917 289 l 1,5,-1
 200 704 l 1,6,-1
 200 796 l 1,0,-1
EndSplineSet
Validated: 1
EndChar

StartChar: equal
Encoding: 61 61 32
Width: 1200
GlyphClass: 2
Flags: W
HStem: 510 160<186 1014> 830 160<186 1014>
LayerCount: 2
Fore
SplineSet
186 830 m 1,0,-1
 186 990 l 1,1,-1
 1014 990 l 1,2,-1
 1014 830 l 1,3,-1
 186 830 l 1,0,-1
186 510 m 1,4,-1
 186 670 l 1,5,-1
 1014 670 l 1,6,-1
 1014 510 l 1,7,-1
 186 510 l 1,4,-1
EndSplineSet
Validated: 1
EndChar

StartChar: greater
Encoding: 62 62 33
Width: 1200
GlyphClass: 2
Flags: W
DStem2: 283 1210 203 1071 0.866005 -0.500036<0.224654 642.235> 203 428 283 289 0.865481 0.500941<0 642.511>
LayerCount: 2
Fore
SplineSet
1000 796 m 1,0,-1
 1000 704 l 1,1,-1
 283 289 l 1,2,-1
 203 428 l 1,3,-1
 759 750 l 1,4,-1
 203 1071 l 1,5,-1
 283 1210 l 1,6,-1
 1000 796 l 1,0,-1
EndSplineSet
Validated: 1
EndChar

StartChar: question
Encoding: 63 63 34
Width: 1200
GlyphClass: 2
Flags: W
HStem: -20 261<507.099 696.856> 1367 153<434.769 761.533>
VStem: 150 180<1166 1273.13> 468 262<17.2229 206.723> 510 180<383 584.797> 870 180<895.549 1273.62>
DStem2: 785 855 726 578 0.779012 0.627009<-298.261 144.085>
LayerCount: 2
Fore
SplineSet
150 1166 m 1,0,1
 150 1333 150 1333 302 1435 c 0,2,3
 429 1520 429 1520 596 1520 c 2,4,-1
 600 1520 l 1,5,6
 760 1519 760 1519 890 1428 c 0,7,8
 1050 1317 1050 1317 1050 1166 c 2,9,-1
 1050 975 l 2,10,11
 1050 840 1050 840 891 713 c 0,12,13
 741 594 741 594 726 578 c 0,14,15
 690 537 690 537 690 470 c 2,16,-1
 690 383 l 1,17,-1
 510 383 l 1,18,-1
 510 470 l 2,19,20
 510 639 510 639 621 723 c 1,21,-1
 785 855 l 1,22,23
 870 926 870 926 870 975 c 2,24,-1
 870 1166 l 2,25,26
 870 1251 870 1251 779 1313 c 0,27,28
 701 1366 701 1366 601 1367 c 0,29,30
 506 1367 506 1367 430 1320 c 0,31,32
 330 1258 330 1258 330 1166 c 1,33,-1
 150 1166 l 1,0,1
468 111 m 0,34,35
 468 163 468 163 508 202 c 128,-1,36
 548 241 548 241 598 241 c 0,37,38
 599 241 599 241 600 241 c 0,39,40
 651 241 651 241 691 202 c 0,41,42
 730 164 730 164 730 110 c 0,43,44
 730 57 730 57 691 19 c 0,45,46
 651 -20 651 -20 599 -20 c 0,47,48
 541 -20 541 -20 506 16 c 0,49,50
 468 55 468 55 468 111 c 0,34,35
EndSplineSet
Validated: 1
EndChar

StartChar: at
Encoding: 64 64 35
Width: 1200
GlyphClass: 2
Flags: W
HStem: -420 153<450.539 750.958> -20 152<659.665 802.201> 0 21G<834 1014> 537 153<696.567 834> 967 153<447.705 749.953>
VStem: 186 180<-188.51 889.905> 448 172<167.589 462.717> 834 180<0 64 197.08 537 690 888.992>
LayerCount: 2
Fore
SplineSet
1014 0 m 1,0,-1
 834 0 l 1,1,-1
 834 64 l 1,2,3
 800 -20 800 -20 709 -20 c 0,4,5
 707 -20 707 -20 705 -20 c 0,6,7
 619 -20 619 -20 538 71 c 0,8,9
 448 173 448 173 448 335 c 0,10,11
 448 500 448 500 572 598 c 0,12,13
 687 689 687 689 834 690 c 1,14,-1
 834 766 l 2,15,16
 834 858 834 858 775 906 c 0,17,18
 700 967 700 967 605 967 c 0,19,20
 602 967 602 967 599 967 c 0,21,22
 495 967 495 967 425 905 c 0,23,24
 366 854 366 854 366 765 c 2,25,-1
 366 -66 l 2,26,27
 366 -156 366 -156 425 -206 c 0,28,29
 497 -267 497 -267 595 -267 c 0,30,31
 598 -267 598 -267 601 -267 c 0,32,33
 704 -267 704 -267 775 -206 c 0,34,35
 795 -189 795 -189 808 -168 c 1,36,-1
 955 -263 l 1,37,38
 929 -299 929 -299 890 -328 c 0,39,40
 766 -420 766 -420 600 -420 c 0,41,42
 413 -420 413 -420 300 -326 c 0,43,44
 186 -231 186 -231 186 -66 c 2,45,-1
 186 765 l 2,46,47
 186 935 186 935 314 1032 c 0,48,49
 430 1120 430 1120 596 1120 c 2,50,-1
 600 1120 l 1,51,52
 788 1119 788 1119 900 1026 c 0,53,54
 1014 932 1014 932 1014 766 c 2,55,-1
 1014 0 l 1,0,-1
834 537 m 1,56,57
 739 534 739 534 679 479 c 0,58,59
 620 425 620 425 620 337 c 0,60,61
 620 247 620 247 647 195 c 0,62,63
 680 132 680 132 729 132 c 0,64,65
 730 132 730 132 731 132 c 0,66,67
 779 132 779 132 815 196 c 0,68,69
 834 230 834 230 834 335 c 2,70,-1
 834 537 l 1,56,57
EndSplineSet
Validated: 1
EndChar

StartChar: A
Encoding: 65 65 36
Width: 1200
GlyphClass: 2
Flags: W
HStem: 0 21G<50 260 940 1150> 670 160<418 782> 1310 190<415 785>
VStem: 50 180<0 180> 970 180<0 180>
DStem2: 50 0 230 0 0.233463 0.972366<42.0233 538.026>
LayerCount: 2
Fore
SplineSet
50 0 m 1,0,1
 126 444 126 444 242 827 c 128,-1,2
 358 1210 358 1210 510 1500 c 1,3,-1
 690 1500 l 1,4,5
 842 1210 842 1210 958 827 c 128,-1,6
 1074 444 1074 444 1150 0 c 1,7,-1
 970 0 l 1,8,9
 910 347 910 347 826 670 c 1,10,-1
 374 670 l 1,11,12
 290 347 290 347 230 0 c 1,13,-1
 50 0 l 1,0,1
418 830 m 1,14,-1
 782 830 l 1,15,16
 717 1052 717 1052 600 1310 c 1,17,18
 483 1052 483 1052 418 830 c 1,14,-1
EndSplineSet
Validated: 1
EndChar

StartChar: B
Encoding: 66 66 37
Width: 1200
GlyphClass: 2
Flags: W
HStem: 0 153<330 760.533> 746 153<330 746.405> 1347 153<330 732.93>
VStem: 150 180<153 746 899 1347> 810 180<961.252 1279.08> 870 180<247.996 649.286>
LayerCount: 2
Fore
SplineSet
601 899 m 2,0,1
 695 899 695 899 751 946 c 0,2,3
 810 996 810 996 810 1070 c 2,4,-1
 810 1186 l 2,5,6
 810 1252 810 1252 743 1297 c 0,7,8
 669 1347 669 1347 600 1347 c 2,9,-1
 330 1347 l 1,10,-1
 330 899 l 1,11,-1
 601 899 l 2,0,1
601 746 m 1,12,13
 330 746 l 1,14,-1
 330 153 l 1,15,-1
 600 153 l 2,16,17
 699 153 699 153 778 207 c 0,18,19
 870 269 870 269 870 354 c 2,20,-1
 870 545 l 2,21,22
 870 629 870 629 779 692 c 0,23,24
 701 745 701 745 601 746 c 1,12,13
150 0 m 1,25,-1
 150 1500 l 1,26,-1
 599 1500 l 2,27,28
 745 1500 745 1500 859 1408 c 0,29,30
 990 1303 990 1303 990 1186 c 2,31,-1
 990 1070 l 2,32,33
 990 926 990 926 851 832 c 1,34,35
 871 820 871 820 890 807 c 0,36,37
 1050 698 1050 698 1050 545 c 2,38,-1
 1050 354 l 2,39,40
 1050 204 1050 204 889 92 c 0,41,42
 759 1 759 1 599 0 c 1,43,-1
 150 0 l 1,25,-1
EndSplineSet
Validated: 1
EndChar

StartChar: C
Encoding: 67 67 38
Width: 1200
GlyphClass: 2
Flags: W
HStem: -20 153<434.812 762.608> 1367 153<434.812 762.608>
VStem: 150 180<226.868 1273.13> 870 180<226.844 334 1166 1273.16>
LayerCount: 2
Fore
SplineSet
1050 334 m 1,0,1
 1050 184 1050 184 890 72 c 0,2,3
 759 -20 759 -20 600 -20 c 0,4,5
 428 -20 428 -20 302 65 c 0,6,7
 150 167 150 167 150 334 c 2,8,-1
 150 1166 l 2,9,10
 150 1333 150 1333 302 1435 c 0,11,12
 428 1520 428 1520 600 1520 c 0,13,14
 759 1520 759 1520 890 1428 c 0,15,16
 1050 1316 1050 1316 1050 1166 c 1,17,-1
 870 1166 l 1,18,19
 870 1250 870 1250 779 1313 c 0,20,21
 701 1366 701 1366 601 1367 c 0,22,23
 506 1367 506 1367 430 1320 c 0,24,25
 330 1258 330 1258 330 1166 c 2,26,-1
 330 334 l 2,27,28
 330 242 330 242 430 180 c 0,29,30
 506 133 506 133 601 133 c 0,31,32
 701 134 701 134 779 187 c 0,33,34
 870 250 870 250 870 334 c 1,35,-1
 1050 334 l 1,0,1
EndSplineSet
Validated: 1
EndChar

StartChar: D
Encoding: 68 68 39
Width: 1200
GlyphClass: 2
Flags: W
HStem: 0 153<329 761.533> 1347 153<330 761.533>
VStem: 150 179<153 1347> 870 180<246.844 1253.16>
LayerCount: 2
Fore
SplineSet
150 0 m 1,0,-1
 150 1500 l 1,1,-1
 600 1500 l 1,2,3
 760 1499 760 1499 890 1408 c 0,4,5
 1050 1296 1050 1296 1050 1146 c 2,6,7
 1050 1146 1050 1146 1050 354 c 0,8,9
 1050 204 1050 204 890 92 c 0,10,11
 760 1 760 1 600 0 c 1,12,-1
 150 0 l 1,0,-1
329 153 m 1,13,14
 465 153 465 153 601 153 c 1,15,16
 701 154 701 154 779 207 c 0,17,18
 870 270 870 270 870 354 c 2,19,-1
 870 1146 l 2,20,21
 870 1230 870 1230 779 1293 c 0,22,23
 701 1346 701 1346 601 1347 c 1,24,25
 466 1347 466 1347 330 1347 c 1,26,-1
 329 153 l 1,13,14
EndSplineSet
Validated: 1
EndChar

StartChar: E
Encoding: 69 69 40
Width: 1200
GlyphClass: 2
Flags: W
HStem: 0 160<366 1014> 670 160<366 821> 1340 160<366 946>
VStem: 186 180<160 670 830 1340>
CounterMasks: 1 e0
LayerCount: 2
Fore
SplineSet
186 0 m 1,0,-1
 186 1500 l 1,1,-1
 946 1500 l 1,2,-1
 946 1340 l 1,3,-1
 366 1340 l 1,4,-1
 366 830 l 1,5,-1
 821 830 l 1,6,-1
 821 670 l 1,7,-1
 366 670 l 1,8,-1
 366 160 l 1,9,-1
 1014 160 l 1,10,-1
 1014 0 l 1,11,-1
 186 0 l 1,0,-1
EndSplineSet
Validated: 1
EndChar

StartChar: F
Encoding: 70 70 41
Width: 1200
GlyphClass: 2
Flags: W
HStem: 0 21G<220 400> 670 160<400 855> 1340 160<400 980>
VStem: 220 180<0 670 830 1340>
LayerCount: 2
Fore
SplineSet
220 0 m 1,0,-1
 220 1500 l 1,1,-1
 980 1500 l 1,2,-1
 980 1340 l 1,3,-1
 400 1340 l 1,4,-1
 400 830 l 1,5,-1
 855 830 l 1,6,-1
 855 670 l 1,7,-1
 400 670 l 1,8,-1
 400 0 l 1,9,-1
 220 0 l 1,0,-1
EndSplineSet
Validated: 1
EndChar

StartChar: G
Encoding: 71 71 42
Width: 1200
GlyphClass: 2
Flags: W
HStem: -20 153<435.311 762.608> 669 160<555 870> 1367 153<434.812 762.608>
VStem: 150 180<226.417 1273.58> 870 180<226.844 670 1166 1273.16>
LayerCount: 2
Fore
SplineSet
1050 830 m 1,0,-1
 1050 334 l 2,1,2
 1050 184 1050 184 890 72 c 0,3,4
 759 -20 759 -20 600 -20 c 0,5,6
 430 -20 430 -20 302 65 c 0,7,8
 150 166 150 166 150 334 c 2,9,-1
 150 1166 l 2,10,11
 150 1334 150 1334 302 1435 c 1,12,13
 428 1520 428 1520 600 1520 c 0,14,15
 759 1520 759 1520 890 1428 c 0,16,17
 1050 1316 1050 1316 1050 1166 c 1,18,-1
 870 1166 l 1,19,20
 870 1250 870 1250 779 1313 c 0,21,22
 701 1366 701 1366 601 1367 c 0,23,24
 506 1367 506 1367 430 1320 c 0,25,26
 330 1258 330 1258 330 1166 c 2,27,-1
 330 334 l 2,28,29
 330 242 330 242 430 180 c 0,30,31
 506 133 506 133 601 133 c 0,32,33
 701 134 701 134 779 187 c 0,34,35
 870 250 870 250 870 334 c 2,36,-1
 870 670 l 1,37,-1
 555 669 l 1,38,-1
 555 829 l 1,39,-1
 1050 830 l 1,0,-1
EndSplineSet
Validated: 1
EndChar

StartChar: H
Encoding: 72 72 43
Width: 1200
GlyphClass: 2
Flags: W
HStem: 0 21G<150 330 870 1050> 670 160<330 870> 1480 20G<150 330 870 1050>
VStem: 150 180<0 670 830 1500> 870 180<0 670 830 1500>
LayerCount: 2
Fore
SplineSet
150 1500 m 1,0,-1
 330 1500 l 1,1,-1
 330 830 l 1,2,-1
 870 830 l 1,3,-1
 870 1500 l 1,4,-1
 1050 1500 l 1,5,-1
 1050 0 l 1,6,-1
 870 0 l 1,7,-1
 870 670 l 1,8,-1
 330 670 l 1,9,-1
 330 0 l 1,10,-1
 150 0 l 1,11,-1
 150 1500 l 1,0,-1
EndSplineSet
Validated: 1
EndChar

StartChar: I
Encoding: 73 73 44
Width: 1200
GlyphClass: 2
Flags: W
HStem: 0 160<186 510 690 1014> 1340 160<186 510 690 1014>
VStem: 510 180<160 1340>
LayerCount: 2
Fore
SplineSet
186 0 m 1,0,-1
 186 160 l 1,1,-1
 510 160 l 1,2,-1
 510 1340 l 1,3,-1
 186 1340 l 1,4,-1
 186 1500 l 1,5,-1
 1014 1500 l 1,6,-1
 1014 1340 l 1,7,-1
 690 1340 l 1,8,-1
 690 160 l 1,9,-1
 1014 160 l 1,10,-1
 1014 0 l 1,11,-1
 186 0 l 1,0,-1
EndSplineSet
Validated: 1
EndChar

StartChar: J
Encoding: 74 74 45
Width: 1200
GlyphClass: 2
Flags: W
HStem: -20 153<435.311 762.608> 1340 160<330 870>
VStem: 150 180<226.417 334> 870 180<226.844 1340>
LayerCount: 2
Fore
SplineSet
150 334 m 1,0,1
 150 334 150 334 330 334 c 1,2,3
 330 242 330 242 430 180 c 0,4,5
 506 133 506 133 601 133 c 0,6,7
 701 134 701 134 779 187 c 0,8,9
 870 250 870 250 870 334 c 2,10,-1
 870 1340 l 1,11,-1
 330 1340 l 1,12,-1
 330 1500 l 1,13,-1
 1050 1500 l 1,14,-1
 1050 334 l 2,15,16
 1050 184 1050 184 890 72 c 0,17,18
 759 -20 759 -20 600 -20 c 0,19,20
 430 -20 430 -20 302 65 c 0,21,22
 150 166 150 166 150 334 c 1,0,1
EndSplineSet
Validated: 1
EndChar

StartChar: K
Encoding: 75 75 46
Width: 1200
GlyphClass: 2
Flags: W
HStem: 0 21G<150 330 818.5 1050> 1480 20G<150 330 786 1015>
VStem: 150 180<0 442.23 628 1500> 835 180<1320 1500> 868 182<0 182>
LayerCount: 2
Fore
SplineSet
150 0 m 1,0,-1
 150 1500 l 1,1,-1
 330 1500 l 1,2,-1
 330 628 l 1,3,4
 483 822 483 822 601 1022 c 1,5,6
 737 1249 737 1249 835 1500 c 1,7,-1
 1015 1500 l 1,8,9
 909 1192 909 1192 759 950 c 0,10,11
 682 825 682 825 627 752 c 1,12,13
 760 609 760 609 859 431 c 0,14,15
 963 245 963 245 1050 0 c 1,16,-1
 868 0 l 1,17,18
 769 240 769 240 689 374 c 0,19,20
 615 498 615 498 521 622 c 1,21,22
 440 510 440 510 330 396 c 1,23,-1
 330 0 l 1,24,-1
 150 0 l 1,0,-1
EndSplineSet
Validated: 1
EndChar

StartChar: L
Encoding: 76 76 47
Width: 1200
GlyphClass: 2
Flags: W
HStem: 0 160<366 1014> 1480 20G<186 366>
VStem: 186 180<160 1500>
LayerCount: 2
Fore
SplineSet
186 0 m 1,0,-1
 186 1500 l 1,1,-1
 366 1500 l 1,2,-1
 366 160 l 1,3,-1
 1014 160 l 1,4,-1
 1014 0 l 1,5,-1
 186 0 l 1,0,-1
EndSplineSet
Validated: 1
EndChar

StartChar: M
Encoding: 77 77 48
Width: 1200
GlyphClass: 2
Flags: W
HStem: 0 21G<150 330 870 1050> 1480 20G<150 383.5 816.5 1050>
VStem: 150 180<0 1152> 510 180<458 714.5> 870 180<0 1152>
CounterMasks: 1 38
LayerCount: 2
Fore
SplineSet
150 0 m 1,0,-1
 150 1500 l 1,1,-1
 330 1500 l 1,2,3
 437 1321 437 1321 524 1100 c 0,4,5
 566 994 566 994 600 849 c 1,6,7
 624 968 624 968 676 1100 c 0,8,9
 763 1321 763 1321 870 1500 c 1,10,-1
 1050 1500 l 1,11,-1
 1050 0 l 1,12,-1
 870 0 l 1,13,-1
 870 1152 l 1,14,15
 810 1006 810 1006 758 810 c 128,-1,16
 706 614 706 614 690 458 c 1,17,-1
 510 458 l 1,18,19
 494 614 494 614 442 810 c 128,-1,20
 390 1006 390 1006 330 1152 c 1,21,-1
 330 0 l 1,22,-1
 150 0 l 1,0,-1
EndSplineSet
Validated: 1
EndChar

StartChar: N
Encoding: 78 78 49
Width: 1200
GlyphClass: 2
Flags: W
HStem: 0 21G<150 330 836.5 1050> 1480 20G<150 417 870 1050>
VStem: 150 180<0 1244> 870 180<0 201.842 632 1500>
LayerCount: 2
Fore
SplineSet
150 0 m 1,0,-1
 150 1500 l 1,1,-1
 330 1500 l 1,2,3
 504 1326 504 1326 626 1130 c 0,4,5
 772 895 772 895 870 632 c 1,6,-1
 870 1500 l 1,7,-1
 1050 1500 l 1,8,-1
 1050 0 l 1,9,-1
 870 0 l 1,10,11
 803 381 803 381 622 754 c 0,12,13
 473 1061 473 1061 330 1244 c 1,14,-1
 330 0 l 1,15,-1
 150 0 l 1,0,-1
EndSplineSet
Validated: 1
EndChar

StartChar: O
Encoding: 79 79 50
Width: 1200
GlyphClass: 2
Flags: W
HStem: -20 153<435.062 762.608> 1367 153<438.182 764.608>
VStem: 150 180<226.868 1274.9> 870 180<226.844 1274.75>
LayerCount: 2
Fore
SplineSet
330 334 m 2,0,1
 330 242 330 242 430 180 c 0,2,3
 506 133 506 133 601 133 c 0,4,5
 701 134 701 134 779 187 c 0,6,7
 870 250 870 250 870 334 c 2,8,-1
 870 1168 l 2,9,10
 870 1252 870 1252 781 1313 c 0,11,12
 703 1366 703 1366 603 1367 c 0,13,14
 512 1367 512 1367 432 1320 c 0,15,16
 330 1260 330 1260 330 1168 c 2,17,-1
 330 334 l 2,0,1
150 334 m 2,18,19
 150 334 150 334 150 1168 c 0,20,21
 150 1335 150 1335 304 1435 c 0,22,23
 435 1520 435 1520 602 1520 c 0,24,25
 761 1520 761 1520 892 1428 c 0,26,27
 1050 1318 1050 1318 1050 1168 c 2,28,-1
 1050 334 l 2,29,30
 1050 184 1050 184 890 72 c 0,31,32
 759 -20 759 -20 600 -20 c 0,33,34
 429 -20 429 -20 302 65 c 0,35,36
 150 167 150 167 150 334 c 2,18,19
EndSplineSet
Validated: 1
EndChar

StartChar: P
Encoding: 80 80 51
Width: 1200
GlyphClass: 2
Flags: W
HStem: 0 21G<150 330> 513 153<330 761.533> 1347 153<330 760.533>
VStem: 150 180<0 513 666 1347> 870 180<759.375 1251.57>
LayerCount: 2
Fore
SplineSet
150 0 m 1,0,-1
 150 1500 l 1,1,-1
 330 1500 l 1,2,-1
 599 1500 l 1,3,4
 759 1499 759 1499 889 1408 c 0,5,6
 1050 1296 1050 1296 1050 1146 c 2,7,-1
 1050 867 l 2,8,9
 1050 716 1050 716 890 605 c 0,10,11
 760 514 760 514 600 513 c 1,12,-1
 330 513 l 1,13,-1
 330 0 l 1,14,-1
 150 0 l 1,0,-1
330 1347 m 1,15,-1
 330 666 l 1,16,-1
 601 666 l 1,17,18
 701 667 701 667 779 720 c 0,19,20
 870 783 870 783 870 867 c 2,21,-1
 870 1146 l 2,22,23
 870 1230 870 1230 778 1293 c 0,24,25
 701 1346 701 1346 600 1347 c 1,26,-1
 330 1347 l 1,15,-1
EndSplineSet
Validated: 1
EndChar

StartChar: Q
Encoding: 81 81 52
Width: 1200
GlyphClass: 2
Flags: W
HStem: -20 153<435.354 763.746> 1367 153<438.182 766.609>
VStem: 150 180<226.868 1274.9> 870 180<350 1274.88>
DStem2: 640 678 494 577 0.573787 -0.819005<0 400.604 634.098 826.781>
LayerCount: 2
Fore
SplineSet
150 334 m 2,0,-1
 150 1168 l 2,1,2
 150 1335 150 1335 304 1435 c 0,3,4
 435 1520 435 1520 602 1520 c 0,5,6
 760 1520 760 1520 892 1428 c 0,7,8
 1050 1318 1050 1318 1050 1168 c 2,9,-1
 1050 334 l 2,10,11
 1050 246 1050 246 995 171 c 1,12,-1
 1115 0 l 1,13,-1
 969 -101 l 1,14,-1
 861 53 l 1,15,16
 741 -20 741 -20 600 -20 c 0,17,18
 429 -20 429 -20 302 65 c 0,19,20
 150 167 150 167 150 334 c 2,0,-1
330 334 m 2,21,22
 330 242 330 242 430 180 c 0,23,24
 506 133 506 133 597 133 c 0,25,26
 599 133 599 133 601 133 c 0,27,28
 694 133 694 133 771 182 c 1,29,-1
 494 577 l 1,30,-1
 640 678 l 1,31,-1
 870 350 l 1,32,-1
 870 1168 l 2,33,34
 870 1253 870 1253 781 1313 c 0,35,36
 703 1366 703 1366 603 1367 c 0,37,38
 512 1367 512 1367 432 1320 c 0,39,40
 330 1260 330 1260 330 1168 c 2,41,-1
 330 334 l 2,21,22
EndSplineSet
Validated: 1
EndChar

StartChar: R
Encoding: 82 82 53
Width: 1200
GlyphClass: 2
Flags: W
HStem: 0 21G<150 330 879.226 1100> 513 153<330 589> 1347 153<330 760.533>
VStem: 150 180<0 513 666 1347> 870 180<759.844 1251.57> 891 209<0 209>
DStem2: 779 546 589 513 0.506813 -0.862056<0 527.446>
LayerCount: 2
Fore
SplineSet
330 1347 m 1,0,-1
 330 666 l 1,1,-1
 601 666 l 1,2,3
 701 667 701 667 779 720 c 0,4,5
 870 783 870 783 870 867 c 2,6,-1
 870 1146 l 2,7,8
 870 1230 870 1230 778 1293 c 0,9,10
 701 1346 701 1346 600 1347 c 1,11,-1
 330 1347 l 1,0,-1
150 0 m 1,12,-1
 150 1500 l 1,13,-1
 330 1500 l 1,14,-1
 599 1500 l 1,15,16
 759 1499 759 1499 889 1408 c 0,17,18
 1050 1296 1050 1296 1050 1146 c 2,19,-1
 1050 867 l 2,20,21
 1050 717 1050 717 890 605 c 0,22,23
 837 568 837 568 779 546 c 1,24,-1
 1100 0 l 1,25,-1
 891 0 l 1,26,-1
 589 513 l 1,27,-1
 330 513 l 1,28,-1
 330 0 l 1,29,-1
 150 0 l 1,12,-1
EndSplineSet
Validated: 1
EndChar

StartChar: S
Encoding: 83 83 54
Width: 1200
GlyphClass: 2
Flags: W
HStem: -20 153<435.062 762.608> 1367 153<461.25 731.228>
VStem: 150 180<226.868 334> 209 180<1002.19 1301.03> 805 180<1165 1295.45> 870 180<226.844 610.045>
DStem2: 891 787 340 847 0.905872 -0.423551<-572.11 76.7834>
LayerCount: 2
Fore
SplineSet
150 334 m 1,0,1
 150 334 150 334 330 334 c 1,2,3
 330 242 330 242 430 180 c 0,4,5
 506 133 506 133 601 133 c 0,6,7
 701 134 701 134 779 187 c 0,8,9
 870 249 870 249 870 334 c 2,10,-1
 870 525 l 2,11,12
 870 594 870 594 774 646 c 0,13,14
 746 661 746 661 340 847 c 0,15,16
 209 907 209 907 209 1090 c 2,17,-1
 209 1206 l 2,18,19
 209 1322 209 1322 340 1428 c 0,20,21
 454 1520 454 1520 597 1520 c 2,22,-1
 600 1520 l 1,23,24
 742 1519 742 1519 857 1432 c 0,25,26
 985 1335 985 1335 985 1165 c 1,27,-1
 805 1165 l 1,28,29
 805 1258 805 1258 749 1309 c 0,30,31
 685 1367 685 1367 599 1367 c 0,32,33
 520 1367 520 1367 458 1322 c 0,34,35
 389 1272 389 1272 389 1206 c 2,36,-1
 389 1090 l 2,37,38
 389 1022 389 1022 444 996 c 0,39,40
 628 910 628 910 891 787 c 0,41,42
 1050 712 1050 712 1050 525 c 2,43,-1
 1050 334 l 2,44,45
 1050 184 1050 184 890 72 c 0,46,47
 759 -20 759 -20 600 -20 c 0,48,49
 429 -20 429 -20 302 65 c 0,50,51
 150 167 150 167 150 334 c 1,0,1
EndSplineSet
Validated: 1
EndChar

StartChar: T
Encoding: 84 84 55
Width: 1200
GlyphClass: 2
Flags: W
HStem: 0 21G<510 690> 1340 160<150 510 690 1050>
VStem: 510 180<0 1340>
LayerCount: 2
Fore
SplineSet
510 0 m 1,0,-1
 510 1340 l 1,1,-1
 150 1340 l 1,2,-1
 150 1500 l 1,3,-1
 1050 1500 l 1,4,-1
 1050 1340 l 1,5,-1
 690 1340 l 1,6,-1
 690 0 l 1,7,-1
 510 0 l 1,0,-1
EndSplineSet
Validated: 1
EndChar

StartChar: U
Encoding: 85 85 56
Width: 1200
GlyphClass: 2
Flags: W
HStem: -20 153<434.812 762.608> 1480 20G<150 330 870 1050>
VStem: 150 180<226.868 1500> 870 180<226.844 1500>
LayerCount: 2
Fore
SplineSet
150 1500 m 1,0,-1
 330 1500 l 1,1,-1
 330 334 l 2,2,3
 330 242 330 242 430 180 c 0,4,5
 506 133 506 133 601 133 c 0,6,7
 701 134 701 134 779 187 c 0,8,9
 870 250 870 250 870 334 c 2,10,-1
 870 1500 l 1,11,-1
 1050 1500 l 1,12,-1
 1050 334 l 2,13,14
 1050 184 1050 184 890 72 c 0,15,16
 759 -20 759 -20 600 -20 c 0,17,18
 428 -20 428 -20 302 65 c 0,19,20
 150 167 150 167 150 334 c 2,21,-1
 150 1500 l 1,0,-1
EndSplineSet
Validated: 1
EndChar

StartChar: V
Encoding: 86 86 57
Width: 1200
GlyphClass: 2
Flags: W
HStem: 0 190<415 785> 1480 20G<50 268 932 1150>
VStem: 50 180<1320 1500> 970 180<1320 1500>
LayerCount: 2
Fore
SplineSet
510 0 m 1,0,1
 358 290 358 290 242 673 c 128,-1,2
 126 1056 126 1056 50 1500 c 1,3,-1
 230 1500 l 1,4,5
 306 1059 306 1059 416 678 c 0,6,7
 481 453 481 453 600 190 c 1,8,9
 719 453 719 453 784 678 c 0,10,11
 894 1059 894 1059 970 1500 c 1,12,-1
 1150 1500 l 1,13,14
 1074 1056 1074 1056 958 673 c 128,-1,15
 842 290 842 290 690 0 c 1,16,-1
 510 0 l 1,0,1
EndSplineSet
Validated: 1
EndChar

StartChar: W
Encoding: 87 87 58
Width: 1200
GlyphClass: 2
Flags: W
HStem: 0 21G<190.5 460 734.5 1009.5> 1480 20G<10 198 1002 1190>
VStem: 10 180<987.211 1500> 1010 180<984.633 1500>
DStem2: 841 297 950 0 0.208028 0.978123<467.889 930.974>
LayerCount: 2
Fore
SplineSet
250 0 m 1,0,1
 131 424 131 424 84 744 c 0,2,3
 39 1050 39 1050 10 1500 c 1,4,-1
 190 1500 l 1,5,6
 206 1125 206 1125 268 756 c 0,7,8
 304 542 304 542 357 304 c 1,9,10
 389 410 389 410 420 532 c 0,11,12
 478 759 478 759 502 1036 c 1,13,-1
 684 1036 l 1,14,15
 709 773 709 773 774 526 c 0,16,17
 804 412 804 412 841 297 c 1,18,19
 895 539 895 539 932 756 c 0,20,21
 994 1119 994 1119 1010 1500 c 1,22,-1
 1190 1500 l 1,23,24
 1161 1050 1161 1050 1116 744 c 0,25,26
 1069 424 1069 424 950 0 c 1,27,-1
 770 0 l 1,28,29
 699 162 699 162 646 356 c 0,30,31
 605 507 605 507 596 600 c 1,32,33
 589 516 589 516 548 356 c 0,34,35
 490 133 490 133 430 0 c 1,36,-1
 250 0 l 1,0,1
EndSplineSet
Validated: 1
EndChar

StartChar: X
Encoding: 88 88 59
Width: 1200
GlyphClass: 2
Flags: W
HStem: 0 21G<100 381.5 818.5 1100> 435 354<423 777> 1480 20G<100 356.5 843.5 1100>
VStem: 100 206<0 206> 100 180<1320 1500> 894 206<0 206> 920 180<1320 1500>
LayerCount: 2
Fore
SplineSet
100 0 m 1,0,1
 306 267 306 267 501 609 c 1,2,-1
 446 712 l 1,3,4
 259 1070 259 1070 100 1500 c 1,5,-1
 280 1500 l 1,6,7
 433 1104 433 1104 600 789 c 1,8,9
 767 1104 767 1104 920 1500 c 1,10,-1
 1100 1500 l 1,11,12
 941 1070 941 1070 754 712 c 1,13,-1
 699 609 l 1,14,15
 894 267 894 267 1100 0 c 1,16,-1
 894 0 l 1,17,18
 743 195 743 195 600 435 c 1,19,20
 457 195 457 195 306 0 c 1,21,-1
 100 0 l 1,0,1
EndSplineSet
Validated: 1
EndChar

StartChar: Y
Encoding: 89 89 60
Width: 1200
GlyphClass: 2
Flags: W
HStem: 0 21G<510 690> 1480 20G<100 356.5 843.5 1100>
VStem: 100 180<1320 1500> 510 180<0 592> 920 180<1320 1500>
CounterMasks: 1 38
LayerCount: 2
Fore
SplineSet
510 0 m 1,0,-1
 510 592 l 1,1,-1
 446 712 l 1,2,3
 259 1070 259 1070 100 1500 c 1,4,-1
 280 1500 l 1,5,6
 433 1104 433 1104 600 789 c 1,7,8
 767 1104 767 1104 920 1500 c 1,9,-1
 1100 1500 l 1,10,11
 941 1070 941 1070 754 712 c 1,12,-1
 690 592 l 1,13,-1
 690 0 l 1,14,-1
 510 0 l 1,0,-1
EndSplineSet
Validated: 1
EndChar

StartChar: Z
Encoding: 90 90 61
Width: 1200
GlyphClass: 2
Flags: W
HStem: 0 160<367 1050> 1340 160<220 809>
LayerCount: 2
Fore
SplineSet
150 0 m 1,0,-1
 150 160 l 1,1,2
 367 412 367 412 568 792 c 0,3,4
 687 1017 687 1017 809 1340 c 1,5,-1
 220 1340 l 1,6,-1
 220 1500 l 1,7,-1
 1050 1500 l 1,8,9
 916 1082 916 1082 738 750 c 0,10,11
 563 423 563 423 367 160 c 1,12,-1
 1050 160 l 1,13,-1
 1050 0 l 1,14,-1
 150 0 l 1,0,-1
EndSplineSet
Validated: 1
EndChar

StartChar: bracketleft
Encoding: 91 91 62
Width: 1200
GlyphClass: 2
Flags: W
HStem: -260 160<528 852> 1600 160<528 852>
VStem: 348 504<-260 -100 1600 1760> 348 180<-100 1600>
LayerCount: 2
Fore
SplineSet
348 1760 m 1,0,-1
 852 1760 l 1,1,-1
 852 1600 l 1,2,-1
 528 1600 l 1,3,-1
 528 -100 l 1,4,-1
 852 -100 l 1,5,-1
 852 -260 l 1,6,-1
 348 -260 l 1,7,-1
 348 1760 l 1,0,-1
EndSplineSet
Validated: 1
EndChar

StartChar: backslash
Encoding: 92 92 63
Width: 1200
GlyphClass: 2
Flags: W
VStem: 30 197<1563 1760> 971 199<-260 -61>
DStem2: 227 1760 30 1760 0.423008 -0.906126<0 2145.09>
LayerCount: 2
Fore
SplineSet
30 1760 m 1,0,-1
 227 1760 l 1,1,-1
 1170 -260 l 1,2,-1
 971 -260 l 1,3,-1
 30 1760 l 1,0,-1
EndSplineSet
Validated: 1
EndChar

StartChar: bracketright
Encoding: 93 93 64
Width: 1200
GlyphClass: 2
Flags: W
HStem: -260 160<348 672> 1600 160<348 672>
VStem: 348 504<-260 -100 1600 1760> 672 180<-100 1600>
LayerCount: 2
Fore
SplineSet
348 -260 m 1,0,-1
 348 -100 l 1,1,-1
 672 -100 l 1,2,-1
 672 1600 l 1,3,-1
 348 1600 l 1,4,-1
 348 1760 l 1,5,-1
 852 1760 l 1,6,-1
 852 -260 l 1,7,-1
 348 -260 l 1,0,-1
EndSplineSet
Validated: 1
EndChar

StartChar: asciicircum
Encoding: 94 94 65
Width: 1200
GlyphClass: 2
Flags: W
HStem: 1058 442
DStem2: 576 1500 601 1328 0.774839 0.632158<-502.568 -89.3602> 624 1500 601 1328 0.774839 -0.632158<90.9099 502.568>
LayerCount: 2
Fore
SplineSet
185 1181 m 1,0,-1
 576 1500 l 1,1,-1
 624 1500 l 1,2,-1
 1015 1181 l 1,3,-1
 912 1058 l 1,4,-1
 601 1328 l 1,5,-1
 288 1058 l 1,6,-1
 185 1181 l 1,0,-1
EndSplineSet
Validated: 1
EndChar

StartChar: underscore
Encoding: 95 95 66
Width: 1200
GlyphClass: 2
Flags: W
HStem: -192 160<186 1014>
LayerCount: 2
Fore
SplineSet
186 -192 m 1,0,-1
 186 -32 l 1,1,-1
 1014 -32 l 1,2,-1
 1014 -192 l 1,3,-1
 186 -192 l 1,0,-1
EndSplineSet
Validated: 1
EndChar

StartChar: grave
Encoding: 96 96 67
Width: 1200
GlyphClass: 2
Flags: W
HStem: 1022 498
VStem: 411 378
LayerCount: 2
Fore
SplineSet
411 1426 m 1,0,-1
 573 1520 l 1,1,-1
 789 1086 l 1,2,-1
 679 1022 l 1,3,-1
 411 1426 l 1,0,-1
EndSplineSet
Validated: 1
EndChar

StartChar: a
Encoding: 97 97 68
Width: 1200
GlyphClass: 2
Flags: W
HStem: -20 153<448.809 751.899> 0 21G<834 1014> 537 153<449.121 834> 967 153<449.042 749.461>
VStem: 186 180<210.924 458.955> 834 180<0 64 209.854 537 690 888.992>
LayerCount: 2
Fore
SplineSet
245 963 m 1,0,1
 271 999 271 999 310 1028 c 0,2,3
 434 1120 434 1120 600 1120 c 0,4,5
 787 1120 787 1120 900 1026 c 0,6,7
 1014 932 1014 932 1014 766 c 2,8,-1
 1014 0 l 1,9,-1
 834 0 l 1,10,-1
 834 64 l 1,11,12
 730 -20 730 -20 600 -20 c 0,13,14
 425 -19 425 -19 310 72 c 0,15,16
 186 170 186 170 186 335 c 128,-1,17
 186 500 186 500 310 598 c 0,18,19
 425 689 425 689 600 690 c 1,20,-1
 834 690 l 1,21,-1
 834 766 l 2,22,23
 834 858 834 858 775 906 c 0,24,25
 700 967 700 967 605 967 c 0,26,27
 602 967 602 967 599 967 c 0,28,29
 496 967 496 967 425 906 c 0,30,31
 405 889 405 889 392 868 c 1,32,-1
 245 963 l 1,0,1
599 133 m 0,33,34
 702 133 702 133 775 195 c 0,35,36
 834 245 834 245 834 335 c 2,37,-1
 834 537 l 1,38,-1
 599 537 l 1,39,40
 496 535 496 535 425 475 c 0,41,42
 366 424 366 424 366 335 c 0,43,44
 366 245 366 245 425 195 c 0,45,46
 498 133 498 133 599 133 c 0,33,34
EndSplineSet
Validated: 1
EndChar

StartChar: b
Encoding: 98 98 69
Width: 1200
GlyphClass: 2
Flags: W
HStem: -20 153<448.691 751.939> 0 21G<186 366> 967 153<447.359 753.208> 1480 20G<186 366>
VStem: 186 180<0 64 209.854 891.388 1036 1500> 834 180<211.573 891.077>
LayerCount: 2
Fore
SplineSet
601 133 m 0,0,1
 702 133 702 133 775 195 c 0,2,3
 834 245 834 245 834 335 c 2,4,-1
 834 766 l 2,5,6
 834 856 834 856 775 906 c 0,7,8
 704 967 704 967 601 967 c 128,-1,9
 498 967 498 967 425 906 c 0,10,11
 366 857 366 857 366 766 c 2,12,-1
 366 335 l 2,13,14
 366 245 366 245 425 195 c 0,15,16
 498 133 498 133 601 133 c 0,0,1
186 0 m 1,17,-1
 186 1500 l 1,18,-1
 366 1500 l 1,19,-1
 366 1036 l 1,20,21
 472 1120 472 1120 600 1120 c 0,22,23
 770 1120 770 1120 886 1032 c 0,24,25
 1014 935 1014 935 1014 765 c 2,26,-1
 1014 334 l 2,27,28
 1014 169 1014 169 887.5 74.5 c 128,-1,29
 761 -20 761 -20 600 -20 c 0,30,31
 465 -20 465 -20 366 64 c 1,32,-1
 366 0 l 1,33,-1
 186 0 l 1,17,-1
EndSplineSet
Validated: 1
EndChar

StartChar: c
Encoding: 99 99 70
Width: 1200
GlyphClass: 2
Flags: W
HStem: -20 153<448.332 752.678> 967 153<448.263 751.191>
VStem: 186 180<208.612 890.146> 834 180<208.854 334 765 888.005>
LayerCount: 2
Fore
SplineSet
1014 334 m 1,0,1
 1014 164 1014 164 890 72 c 128,-1,2
 766 -20 766 -20 600 -20 c 0,3,4
 413 -20 413 -20 300 74 c 0,5,6
 186 169 186 169 186 334 c 2,7,-1
 186 765 l 2,8,9
 186 935 186 935 314 1032 c 0,10,11
 430 1120 430 1120 600 1120 c 0,12,13
 775 1119 775 1119 890 1028 c 0,14,15
 1014 930 1014 930 1014 765 c 1,16,-1
 834 765 l 1,17,18
 834 855 834 855 775 905 c 0,19,20
 702 967 702 967 601 967 c 0,21,22
 498 967 498 967 425 905 c 0,23,24
 366 855 366 855 366 765 c 2,25,-1
 366 334 l 2,26,27
 366 243 366 243 425 194 c 0,28,29
 498 133 498 133 601 133 c 128,-1,30
 704 133 704 133 775 194 c 0,31,32
 834 244 834 244 834 334 c 1,33,-1
 1014 334 l 1,0,1
EndSplineSet
Validated: 1
EndChar

StartChar: d
Encoding: 100 100 71
Width: 1200
GlyphClass: 2
Flags: W
HStem: -20 153<448.061 751.309> 0 21G<834 1014> 967 153<446.792 752.641> 1480 20G<834 1014>
VStem: 186 180<211.573 891.077> 834 180<0 64 209.854 891.388 1036 1500>
LayerCount: 2
Fore
SplineSet
599 133 m 0,0,1
 702 133 702 133 775 195 c 0,2,3
 834 245 834 245 834 335 c 2,4,-1
 834 766 l 2,5,6
 834 857 834 857 775 906 c 0,7,8
 702 967 702 967 599 967 c 128,-1,9
 496 967 496 967 425 906 c 0,10,11
 366 856 366 856 366 766 c 2,12,-1
 366 335 l 2,13,14
 366 245 366 245 425 195 c 0,15,16
 498 133 498 133 599 133 c 0,0,1
1014 0 m 1,17,-1
 834 0 l 1,18,-1
 834 64 l 1,19,20
 735 -20 735 -20 600 -20 c 0,21,22
 439 -20 439 -20 312.5 74.5 c 128,-1,23
 186 169 186 169 186 334 c 2,24,-1
 186 765 l 2,25,26
 186 935 186 935 314 1032 c 0,27,28
 430 1120 430 1120 600 1120 c 0,29,30
 728 1120 728 1120 834 1036 c 1,31,-1
 834 1500 l 1,32,-1
 1014 1500 l 1,33,-1
 1014 0 l 1,17,-1
EndSplineSet
Validated: 1
EndChar

StartChar: e
Encoding: 101 101 72
Width: 1200
GlyphClass: 2
Flags: W
HStem: -20 153<448.211 752.429> 967 153<448.095 751.155>
VStem: 186 180<211.49 388 549 890.146> 834 180<209.095 334 691 888.005>
DStem2: 366 549 366 388 0.957989 0.286805<0 489.065>
LayerCount: 2
Fore
SplineSet
598 967 m 0,0,1
 497 967 497 967 425 905 c 0,2,3
 366 855 366 855 366 765 c 2,4,-1
 366 549 l 1,5,-1
 834 691 l 1,6,-1
 834 765 l 2,7,8
 834 855 834 855 775 905 c 0,9,10
 702 967 702 967 598 967 c 0,0,1
1014 334 m 1,11,12
 1014 164 1014 164 890 72 c 0,13,14
 765 -20 765 -20 600 -20 c 0,15,16
 413 -20 413 -20 300 74 c 0,17,18
 186 169 186 169 186 334 c 2,19,-1
 186 765 l 2,20,21
 186 935 186 935 314 1032 c 0,22,23
 430 1120 430 1120 600 1120 c 0,24,25
 775 1119 775 1119 890 1028 c 0,26,27
 1014 930 1014 930 1014 765 c 2,28,-1
 1014 582 l 1,29,-1
 366 388 l 1,30,-1
 366 334 l 2,31,32
 366 244 366 244 425 194 c 0,33,34
 497 133 497 133 601 133 c 0,35,36
 704 133 704 133 775 194 c 0,37,38
 834 245 834 245 834 334 c 1,39,-1
 1014 334 l 1,11,12
EndSplineSet
Validated: 1
EndChar

StartChar: f
Encoding: 102 102 73
Width: 1200
GlyphClass: 2
Flags: W
HStem: 0 21G<186 366> 664 160<80 186 366 854> 1367 153<451.361 750.879>
VStem: 186 180<0 664 824 1290.15> 834 180<1165 1288>
LayerCount: 2
Fore
SplineSet
186 0 m 1,0,-1
 186 664 l 1,1,-1
 80 664 l 1,2,-1
 80 824 l 1,3,-1
 186 824 l 1,4,-1
 186 1165 l 2,5,6
 186 1335 186 1335 314 1432 c 0,7,8
 430 1520 430 1520 596 1520 c 2,9,-1
 600 1520 l 1,10,11
 775 1519 775 1519 890 1428 c 0,12,13
 1014 1330 1014 1330 1014 1165 c 1,14,-1
 834 1165 l 1,15,16
 834 1255 834 1255 775 1305 c 0,17,18
 702 1367 702 1367 601 1367 c 0,19,20
 498 1367 498 1367 425 1305 c 0,21,22
 366 1255 366 1255 366 1165 c 2,23,-1
 366 824 l 1,24,-1
 854 824 l 1,25,-1
 854 664 l 1,26,-1
 366 664 l 1,27,-1
 366 0 l 1,28,-1
 186 0 l 1,0,-1
EndSplineSet
Validated: 1
EndChar

StartChar: g
Encoding: 103 103 74
Width: 1200
GlyphClass: 2
Flags: W
HStem: -420 153<447.322 754.679> -20 153<447.164 753.019> 967 153<449.726 750.506> 1080 20G<834 1014>
VStem: 186 180<209.561 890.146> 834 180<-188.51 64 208.854 890.146 1036 1100>
LayerCount: 2
Fore
SplineSet
601 967 m 0,0,1
 498 967 498 967 425 905 c 0,2,3
 366 855 366 855 366 765 c 2,4,-1
 366 334 l 2,5,6
 366 243 366 243 425 194 c 0,7,8
 498 133 498 133 601 133 c 128,-1,9
 704 133 704 133 775 194 c 0,10,11
 834 244 834 244 834 334 c 2,12,-1
 834 765 l 2,13,14
 834 855 834 855 775 905 c 0,15,16
 702 967 702 967 601 967 c 0,0,1
245 -263 m 1,17,18
 245 -263 245 -263 392 -168 c 1,19,20
 405 -189 405 -189 425 -206 c 0,21,22
 496 -267 496 -267 599 -267 c 0,23,24
 707 -267 707 -267 775 -206 c 0,25,26
 834 -153 834 -153 834 -66 c 2,27,-1
 834 64 l 1,28,29
 736 -20 736 -20 600 -20 c 0,30,31
 418 -20 418 -20 300 74 c 0,32,33
 186 165 186 165 186 334 c 2,34,-1
 186 765 l 2,35,36
 186 935 186 935 314 1032 c 0,37,38
 430 1120 430 1120 611 1120 c 0,39,40
 728 1120 728 1120 834 1036 c 1,41,-1
 834 1100 l 1,42,-1
 1014 1100 l 1,43,-1
 1014 -66 l 2,44,45
 1014 -231 1014 -231 900 -326 c 0,46,47
 787 -420 787 -420 600 -420 c 0,48,49
 434 -420 434 -420 310 -328 c 0,50,51
 271 -299 271 -299 245 -263 c 1,17,18
EndSplineSet
Validated: 1
EndChar

StartChar: h
Encoding: 104 104 75
Width: 1200
GlyphClass: 2
Flags: W
HStem: 0 21G<186 366 834 1014> 967 153<448.809 751.377> 1480 20G<186 366>
VStem: 186 180<0 890.146 1036 1500> 834 180<0 888.005>
LayerCount: 2
Fore
SplineSet
186 0 m 1,0,-1
 186 1500 l 1,1,-1
 366 1500 l 1,2,-1
 366 1036 l 1,3,4
 471 1120 471 1120 597 1120 c 2,5,-1
 600 1120 l 1,6,7
 776 1118 776 1118 890 1028 c 0,8,9
 1014 930 1014 930 1014 765 c 2,10,-1
 1014 0 l 1,11,-1
 834 0 l 1,12,-1
 834 765 l 2,13,14
 834 855 834 855 775 905 c 0,15,16
 702 967 702 967 601 967 c 0,17,18
 499 967 499 967 425 905 c 0,19,20
 366 855 366 855 366 765 c 2,21,-1
 366 0 l 1,22,-1
 186 0 l 1,0,-1
EndSplineSet
Validated: 1
EndChar

StartChar: i
Encoding: 105 105 76
Width: 1200
GlyphClass: 2
Flags: W
HStem: -20 153<774.539 1018.56> 940 160<186 510> 1259 261<471.252 656.856>
VStem: 429 261<1295.13 1485.72> 510 180<211.49 940>
LayerCount: 2
Fore
SplineSet
429 1389 m 0,0,1
 429 1443 429 1443 468 1481 c 0,2,3
 508 1520 508 1520 560 1520 c 0,4,5
 611 1520 611 1520 651 1481 c 0,6,7
 690 1443 690 1443 690 1389 c 0,8,9
 690 1336 690 1336 651 1298 c 0,10,11
 611 1259 611 1259 561 1259 c 0,12,13
 560 1259 560 1259 559 1259 c 0,14,15
 510 1259 510 1259 470 1294 c 0,16,17
 429 1330 429 1330 429 1389 c 0,0,1
186 1100 m 1,18,-1
 690 1100 l 1,19,-1
 690 334 l 2,20,21
 690 244 690 244 749 194 c 0,22,23
 821 133 821 133 919 133 c 0,24,25
 922 133 922 133 925 133 c 0,26,27
 974 133 974 133 1020 149 c 1,28,-1
 1126 21 l 1,29,30
 1034 -20 1034 -20 924 -20 c 0,31,32
 737 -20 737 -20 624 74 c 0,33,34
 510 169 510 169 510 334 c 2,35,-1
 510 940 l 1,36,-1
 186 940 l 1,37,-1
 186 1100 l 1,18,-1
EndSplineSet
Validated: 1
EndChar

StartChar: j
Encoding: 106 106 77
Width: 1200
GlyphClass: 2
Flags: W
HStem: -419 152<230.809 535.697> 940 160<295 619> 1259 261<580.252 765.856>
VStem: 538 261<1295.13 1485.72> 619 180<-189.663 940>
LayerCount: 2
Fore
SplineSet
30 -263 m 1,0,1
 30 -263 30 -263 178 -168 c 1,2,3
 190 -188 190 -188 210 -206 c 0,4,5
 279 -267 279 -267 384 -267 c 128,-1,6
 489 -267 489 -267 560 -205 c 0,7,8
 619 -153 619 -153 619 -65 c 2,9,-1
 619 940 l 1,10,-1
 295 940 l 1,11,-1
 295 1100 l 1,12,-1
 799 1100 l 1,13,-1
 799 -65 l 2,14,15
 799 -233 799 -233 671 -332 c 0,16,17
 558 -419 558 -419 391 -419 c 0,18,19
 388 -419 388 -419 384 -419 c 0,20,21
 214 -419 214 -419 93 -326 c 0,22,23
 58 -299 58 -299 30 -263 c 1,0,1
538 1389 m 0,24,25
 538 1444 538 1444 577 1481 c 0,26,27
 618 1520 618 1520 669 1520 c 128,-1,28
 720 1520 720 1520 760 1481 c 0,29,30
 799 1443 799 1443 799 1389 c 0,31,32
 799 1336 799 1336 760 1298 c 0,33,34
 720 1259 720 1259 670 1259 c 2,35,-1
 668 1259 l 2,36,37
 619 1259 619 1259 579 1294 c 0,38,39
 538 1330 538 1330 538 1389 c 0,24,25
EndSplineSet
Validated: 1
EndChar

StartChar: k
Encoding: 107 107 78
Width: 1200
GlyphClass: 2
Flags: W
HStem: 0 21G<186 366 783 1014> 1080 20G<779 995> 1480 20G<186 366>
VStem: 186 180<0 192.117 365 1500> 815 180<979.713 1100>
DStem2: 749 552 634 405 0.522562 -0.852601<65.2377 506.143>
LayerCount: 2
Fore
SplineSet
186 0 m 1,0,-1
 186 1500 l 1,1,-1
 366 1500 l 1,2,-1
 366 365 l 1,3,4
 543 546 543 546 644 714 c 0,5,6
 743 878 743 878 815 1100 c 1,7,-1
 995 1100 l 1,8,9
 924 808 924 808 749 552 c 1,10,11
 787 496 787 496 823 431 c 0,12,13
 955 193 955 193 1014 0 c 1,14,-1
 832 0 l 1,15,16
 734 236 734 236 653 374 c 1,17,-1
 634 405 l 1,18,19
 519 282 519 282 366 157 c 1,20,-1
 366 0 l 1,21,-1
 186 0 l 1,0,-1
EndSplineSet
Validated: 1
EndChar

StartChar: l
Encoding: 108 108 79
Width: 1200
GlyphClass: 2
Flags: W
HStem: -20 153<774.539 1018.56> 1340 160<186 510>
VStem: 510 180<211.49 1340>
LayerCount: 2
Fore
SplineSet
186 1500 m 1,0,-1
 690 1500 l 1,1,-1
 690 334 l 2,2,3
 690 244 690 244 749 194 c 0,4,5
 821 133 821 133 919 133 c 0,6,7
 922 133 922 133 925 133 c 0,8,9
 974 133 974 133 1020 149 c 1,10,-1
 1126 21 l 1,11,12
 1034 -20 1034 -20 924 -20 c 0,13,14
 737 -20 737 -20 624 74 c 0,15,16
 510 169 510 169 510 334 c 2,17,-1
 510 1340 l 1,18,-1
 186 1340 l 1,19,-1
 186 1500 l 1,0,-1
EndSplineSet
Validated: 1
EndChar

StartChar: m
Encoding: 109 109 80
Width: 1200
GlyphClass: 2
Flags: W
HStem: 0 21G<144 324 511 691 876 1056> 969 151<356.564 479.542 715.443 845.724> 1080 20G<144 324>
VStem: 144 180<0 941.914 1036 1100> 511 180<0 903.735> 876 180<0 943.106>
LayerCount: 2
Fore
SplineSet
144 0 m 1,0,-1
 144 1100 l 1,1,-1
 324 1100 l 1,2,-1
 324 1036 l 1,3,4
 359 1120 359 1120 453 1120 c 0,5,6
 546 1120 546 1120 620 1028 c 1,7,8
 691 1120 691 1120 786 1120 c 2,9,-1
 788 1120 l 1,10,11
 887 1119 887 1119 974 1028 c 0,12,13
 1056 942 1056 942 1056 765 c 2,14,-1
 1056 0 l 1,15,-1
 876 0 l 1,16,-1
 876 765 l 2,17,18
 876 866 876 866 858 903 c 0,19,20
 826 970 826 970 783 970 c 0,21,22
 731 970 731 970 706 905 c 0,23,24
 691 865 691 865 691 765 c 2,25,-1
 691 0 l 1,26,-1
 511 0 l 1,27,-1
 511 765 l 2,28,29
 511 861 511 861 491 905 c 0,30,31
 461 969 461 969 418 969 c 0,32,33
 376 969 376 969 344 903 c 0,34,35
 324 862 324 862 324 765 c 2,36,-1
 324 0 l 1,37,-1
 144 0 l 1,0,-1
EndSplineSet
Validated: 1
EndChar

StartChar: n
Encoding: 110 110 81
Width: 1200
GlyphClass: 2
Flags: W
HStem: 0 21G<186 366 834 1014> 967 153<448.545 751.377> 1080 20G<186 366>
VStem: 186 180<0 890.146 1036 1100> 834 180<0 888.005>
LayerCount: 2
Fore
SplineSet
186 0 m 1,0,-1
 186 1100 l 1,1,-1
 366 1100 l 1,2,-1
 366 1036 l 1,3,4
 470 1120 470 1120 597 1120 c 2,5,-1
 600 1120 l 1,6,7
 776 1118 776 1118 890 1028 c 0,8,9
 1014 930 1014 930 1014 765 c 2,10,-1
 1014 0 l 1,11,-1
 834 0 l 1,12,-1
 834 765 l 2,13,14
 834 855 834 855 775 905 c 0,15,16
 702 967 702 967 601 967 c 0,17,18
 498 967 498 967 425 905 c 0,19,20
 366 855 366 855 366 765 c 2,21,-1
 366 0 l 1,22,-1
 186 0 l 1,0,-1
EndSplineSet
Validated: 1
EndChar

StartChar: o
Encoding: 111 111 82
Width: 1200
GlyphClass: 2
Flags: W
HStem: -20 153<448.332 752.678> 967 153<448.263 751.191>
VStem: 186 180<208.612 890.146> 834 180<208.854 888.005>
LayerCount: 2
Fore
SplineSet
601 967 m 0,0,1
 498 967 498 967 425 905 c 0,2,3
 366 855 366 855 366 765 c 2,4,-1
 366 334 l 2,5,6
 366 243 366 243 425 194 c 0,7,8
 498 133 498 133 601 133 c 128,-1,9
 704 133 704 133 775 194 c 0,10,11
 834 244 834 244 834 334 c 2,12,-1
 834 765 l 2,13,14
 834 855 834 855 775 905 c 0,15,16
 702 967 702 967 601 967 c 0,0,1
600 1120 m 0,17,18
 775 1119 775 1119 890 1028 c 0,19,20
 1014 930 1014 930 1014 765 c 2,21,-1
 1014 334 l 2,22,23
 1014 164 1014 164 890 72 c 128,-1,24
 766 -20 766 -20 600 -20 c 0,25,26
 413 -20 413 -20 300 74 c 0,27,28
 186 169 186 169 186 334 c 2,29,-1
 186 765 l 2,30,31
 186 935 186 935 314 1032 c 0,32,33
 430 1120 430 1120 600 1120 c 0,17,18
EndSplineSet
Validated: 1
EndChar

StartChar: p
Encoding: 112 112 83
Width: 1200
GlyphClass: 2
Flags: W
HStem: -400 21G<186 366> -20 153<447.359 753.208> 967 153<448.691 751.939> 1080 20G<186 366>
VStem: 186 180<-400 64 208.612 890.146 1036 1100> 834 180<208.923 888.427>
LayerCount: 2
Fore
SplineSet
601 967 m 0,0,1
 498 967 498 967 425 905 c 0,2,3
 366 855 366 855 366 765 c 2,4,-1
 366 334 l 2,5,6
 366 243 366 243 425 194 c 0,7,8
 498 133 498 133 601 133 c 128,-1,9
 704 133 704 133 775 194 c 0,10,11
 834 244 834 244 834 334 c 2,12,-1
 834 765 l 2,13,14
 834 855 834 855 775 905 c 0,15,16
 702 967 702 967 601 967 c 0,0,1
186 1100 m 1,17,-1
 366 1100 l 1,18,-1
 366 1036 l 1,19,20
 465 1120 465 1120 600 1120 c 0,21,22
 761 1120 761 1120 887.5 1025.5 c 128,-1,23
 1014 931 1014 931 1014 766 c 2,24,-1
 1014 335 l 2,25,26
 1014 165 1014 165 886 68 c 0,27,28
 770 -20 770 -20 600 -20 c 0,29,30
 472 -20 472 -20 366 64 c 1,31,-1
 366 -400 l 1,32,-1
 186 -400 l 1,33,-1
 186 1100 l 1,17,-1
EndSplineSet
Validated: 1
EndChar

StartChar: q
Encoding: 113 113 84
Width: 1200
GlyphClass: 2
Flags: W
HStem: -400 21G<834 905> -20 153<447.982 752.25> -20 20G<1177 1190> 967 153<449.707 751.163> 1080 20G<834 1014>
VStem: 186 180<208.923 888.51> 834 180<-172 64 208.854 890.146 1036 1100>
LayerCount: 2
Fore
SplineSet
601 967 m 0,0,1
 498 967 498 967 425 905 c 0,2,3
 366 855 366 855 366 765 c 2,4,-1
 366 334 l 2,5,6
 366 243 366 243 425 194 c 0,7,8
 498 133 498 133 601 133 c 128,-1,9
 704 133 704 133 775 194 c 0,10,11
 834 244 834 244 834 334 c 2,12,-1
 834 765 l 2,13,14
 834 855 834 855 775 905 c 0,15,16
 702 967 702 967 601 967 c 0,0,1
834 -400 m 1,17,-1
 834 64 l 1,18,19
 728 -20 728 -20 606 -20 c 0,20,21
 603 -20 603 -20 600 -20 c 0,22,23
 430 -20 430 -20 314 68 c 0,24,25
 186 165 186 165 186 335 c 2,26,-1
 186 766 l 2,27,28
 186 931 186 931 300 1026 c 0,29,30
 413 1120 413 1120 583 1120 c 0,31,32
 591 1120 591 1120 600 1120 c 0,33,34
 735 1120 735 1120 834 1036 c 1,35,-1
 834 1100 l 1,36,-1
 1014 1100 l 1,37,-1
 1014 -172 l 1,38,39
 1068 -154 1068 -154 1116 -104 c 128,-1,40
 1164 -54 1164 -54 1190 0 c 1,41,-1
 1190 -240 l 1,42,43
 1149 -306 1149 -306 1057 -356 c 0,44,45
 976 -400 976 -400 834 -400 c 1,17,-1
EndSplineSet
Validated: 1
EndChar

StartChar: r
Encoding: 114 114 85
Width: 1200
GlyphClass: 2
Flags: W
HStem: 0 21G<186 366> 967 153<448.545 751.377> 1080 20G<186 366>
VStem: 186 180<0 890.146 1036 1100> 834 180<765 888.005>
LayerCount: 2
Fore
SplineSet
186 0 m 1,0,-1
 186 1100 l 1,1,-1
 366 1100 l 1,2,-1
 366 1036 l 1,3,4
 471 1120 471 1120 597 1120 c 2,5,-1
 600 1120 l 1,6,7
 776 1118 776 1118 890 1028 c 0,8,9
 1014 930 1014 930 1014 765 c 1,10,-1
 834 765 l 1,11,12
 834 855 834 855 775 905 c 0,13,14
 702 967 702 967 601 967 c 0,15,16
 498 967 498 967 425 905 c 0,17,18
 366 855 366 855 366 765 c 2,19,-1
 366 0 l 1,20,-1
 186 0 l 1,0,-1
EndSplineSet
Validated: 1
EndChar

StartChar: s
Encoding: 115 115 86
Width: 1200
GlyphClass: 2
Flags: W
HStem: -20 153<450.539 750.958> 967 153<478.04 725.905>
VStem: 186 180<211.49 334> 247 180<726.228 914.371> 770 180<825 918.085> 834 180<208.922 426.402>
LayerCount: 2
Fore
SplineSet
186 334 m 1,0,-1
 366 334 l 1,1,2
 366 244 366 244 425 194 c 0,3,4
 497 133 497 133 595 133 c 0,5,6
 598 133 598 133 601 133 c 0,7,8
 704 133 704 133 775 194 c 0,9,10
 834 245 834 245 834 334 c 1,11,12
 833 413 833 413 749 451 c 1,13,-1
 445 543 l 1,14,15
 247 613 247 613 247 804 c 1,16,17
 248 931 248 931 361 1035 c 1,18,19
 455 1120 455 1120 600 1120 c 0,20,21
 758 1120 758 1120 845 1038 c 0,22,23
 944 944 944 944 950 825 c 1,24,-1
 770 825 l 1,25,26
 757 890 757 890 730 919 c 0,27,28
 685 967 685 967 601 967 c 0,29,30
 518 967 518 967 471 916 c 1,31,32
 428 871 428 871 427 804 c 1,33,34
 427 804 427 804 427 803 c 0,35,36
 427 713 427 713 598 672 c 0,37,38
 775 630 775 630 877 572 c 0,39,40
 1014 495 1014 495 1014 334 c 0,41,42
 1014 164 1014 164 890 72 c 128,-1,43
 766 -20 766 -20 600 -20 c 0,44,45
 413 -20 413 -20 300 74 c 0,46,47
 186 169 186 169 186 334 c 1,0,-1
EndSplineSet
Validated: 1
EndChar

StartChar: t
Encoding: 116 116 87
Width: 1200
GlyphClass: 2
Flags: W
HStem: -20 153<448.398 750.381> 940 160<80 186 366 854> 1480 20G<186 366>
VStem: 186 180<209.854 940 1100 1500> 834 180<211.995 335>
LayerCount: 2
Fore
SplineSet
186 1500 m 1,0,-1
 366 1500 l 1,1,-1
 366 1100 l 1,2,-1
 854 1100 l 1,3,-1
 854 940 l 1,4,-1
 366 940 l 1,5,-1
 366 335 l 2,6,7
 366 245 366 245 425 195 c 0,8,9
 498 133 498 133 595 133 c 0,10,11
 598 133 598 133 601 133 c 0,12,13
 702 133 702 133 775 195 c 0,14,15
 834 246 834 246 834 335 c 1,16,-1
 1014 335 l 1,17,18
 1014 170 1014 170 890 72 c 0,19,20
 774 -20 774 -20 600 -20 c 0,21,22
 429 -20 429 -20 314 68 c 0,23,24
 186 165 186 165 186 335 c 2,25,-1
 186 940 l 1,26,-1
 80 940 l 1,27,-1
 80 1100 l 1,28,-1
 186 1100 l 1,29,-1
 186 1500 l 1,0,-1
EndSplineSet
Validated: 1
EndChar

StartChar: u
Encoding: 117 117 88
Width: 1200
GlyphClass: 2
Flags: W
HStem: -20 153<448.623 751.455> 0 21G<834 1014> 1080 20G<186 366 834 1014>
VStem: 186 180<211.995 1100> 834 180<0 64 209.854 1100>
LayerCount: 2
Fore
SplineSet
186 1100 m 1,0,-1
 366 1100 l 1,1,-1
 366 335 l 2,2,3
 366 245 366 245 425 195 c 0,4,5
 498 133 498 133 599 133 c 0,6,7
 702 133 702 133 775 195 c 0,8,9
 834 245 834 245 834 335 c 2,10,-1
 834 1100 l 1,11,-1
 1014 1100 l 1,12,-1
 1014 0 l 1,13,-1
 834 0 l 1,14,-1
 834 64 l 1,15,16
 730 -20 730 -20 603 -20 c 2,17,-1
 600 -20 l 1,18,19
 424 -18 424 -18 310 72 c 0,20,21
 186 170 186 170 186 335 c 2,22,-1
 186 1100 l 1,0,-1
EndSplineSet
Validated: 1
EndChar

StartChar: v
Encoding: 118 118 89
Width: 1200
GlyphClass: 2
Flags: W
HStem: 0 21G<431 758> 1080 20G<100 300 900 1100>
VStem: 100 180<920 1100> 920 180<920 1100>
LayerCount: 2
Fore
SplineSet
510 0 m 1,0,1
 352 220 352 220 254 508 c 0,2,3
 160 784 160 784 100 1100 c 1,4,-1
 280 1100 l 1,5,6
 320 855 320 855 420 562 c 0,7,8
 490 358 490 358 600 167 c 1,9,10
 711 360 711 360 780 562 c 0,11,12
 880 855 880 855 920 1100 c 1,13,-1
 1100 1100 l 1,14,15
 1044 788 1044 788 942 510 c 1,16,17
 826 199 826 199 690 0 c 1,18,-1
 510 0 l 1,0,1
EndSplineSet
Validated: 1
EndChar

StartChar: w
Encoding: 119 119 90
Width: 1200
GlyphClass: 2
Flags: W
HStem: 0 21G<265 514 687 936> 1080 20G<64 258.5 940 1136>
VStem: 64 180<920 1100> 510 181<490.602 836> 956 180<920 1100>
DStem2: 327 589 156 549 0.244699 -0.969599<-507.258 352.411> 785 248 891 0 0.270126 0.962825<0 728.74>
LayerCount: 2
Fore
SplineSet
310 0 m 1,0,1
 220 272 220 272 156 549 c 0,2,3
 82 865 82 865 64 1100 c 1,4,-1
 244 1100 l 1,5,6
 273 826 273 826 327 589 c 0,7,8
 367 413 367 413 416 248 c 1,9,10
 451 404 451 404 473 537 c 128,-1,11
 495 670 495 670 510 836 c 1,12,-1
 691 836 l 1,13,14
 706 670 706 670 728 537 c 128,-1,15
 750 404 750 404 785 248 c 1,16,17
 833 410 833 410 874 589 c 0,18,19
 924 804 924 804 956 1100 c 1,20,-1
 1136 1100 l 1,21,22
 1118 865 1118 865 1045 549 c 0,23,24
 981 272 981 272 891 0 c 1,25,-1
 711 0 l 1,26,27
 663 129 663 129 641 208 c 0,28,29
 620 283 620 283 601 392 c 1,30,31
 581 283 581 283 560 208 c 0,32,33
 538 129 538 129 490 0 c 1,34,-1
 310 0 l 1,0,1
EndSplineSet
Validated: 1
EndChar

StartChar: x
Encoding: 120 120 91
Width: 1200
GlyphClass: 2
Flags: W
HStem: 0 21G<130 421.5 775.5 1070> 1080 20G<130 395.5 807.5 1070>
VStem: 130 225<0 225> 130 197<903 1100> 845 225<0 225> 873 197<903 1100>
LayerCount: 2
Fore
SplineSet
130 0 m 1,0,1
 318 176 318 176 492 404 c 1,2,3
 426 498 426 498 406 534 c 0,4,5
 230 838 230 838 130 1100 c 1,6,-1
 327 1100 l 1,7,8
 464 784 464 784 600 553 c 1,9,10
 742 776 742 776 873 1100 c 1,11,-1
 1070 1100 l 1,12,13
 936 770 936 770 795 534 c 0,14,15
 764 483 764 483 709 404 c 1,16,17
 880 176 880 176 1070 0 c 1,18,-1
 845 0 l 1,19,20
 706 120 706 120 600 263 c 1,21,22
 488 120 488 120 355 0 c 1,23,-1
 130 0 l 1,0,1
EndSplineSet
Validated: 1
EndChar

StartChar: y
Encoding: 121 121 92
Width: 1200
GlyphClass: 2
Flags: W
HStem: -420 153<447.322 751.427> -20 153<450.117 751.455> 1080 20G<186 366 834 1014>
VStem: 186 180<211.995 1100> 834 180<-188.992 64 209.854 1100>
LayerCount: 2
Fore
SplineSet
245 -263 m 1,0,-1
 392 -168 l 1,1,2
 405 -189 405 -189 425 -206 c 0,3,4
 496 -267 496 -267 599 -267 c 0,5,6
 700 -267 700 -267 775 -206 c 0,7,8
 834 -158 834 -158 834 -66 c 2,9,-1
 834 64 l 1,10,11
 730 -20 730 -20 603 -20 c 0,12,13
 602 -20 602 -20 600 -20 c 0,14,15
 427 -20 427 -20 310 72 c 0,16,17
 186 170 186 170 186 335 c 2,18,-1
 186 1100 l 1,19,-1
 366 1100 l 1,20,-1
 366 335 l 2,21,22
 366 245 366 245 425 195 c 0,23,24
 498 133 498 133 599 133 c 0,25,26
 702 133 702 133 775 195 c 0,27,28
 834 245 834 245 834 335 c 2,29,-1
 834 1100 l 1,30,-1
 1014 1100 l 1,31,-1
 1014 -66 l 2,32,33
 1014 -232 1014 -232 900 -326 c 0,34,35
 787 -420 787 -420 600 -420 c 0,36,37
 434 -420 434 -420 310 -328 c 0,38,39
 271 -299 271 -299 245 -263 c 1,0,-1
EndSplineSet
Validated: 1
EndChar

StartChar: z
Encoding: 122 122 93
Width: 1200
GlyphClass: 2
Flags: W
HStem: 0 160<416 1014> 940 160<222 773>
LayerCount: 2
Fore
SplineSet
186 0 m 1,0,-1
 186 160 l 1,1,2
 383 352 383 352 530 546 c 0,3,4
 662 720 662 720 773 940 c 1,5,-1
 222 940 l 1,6,-1
 222 1100 l 1,7,-1
 1014 1100 l 1,8,9
 903 778 903 778 740 542 c 0,10,11
 593 329 593 329 416 160 c 1,12,-1
 1014 160 l 1,13,-1
 1014 0 l 1,14,-1
 186 0 l 1,0,-1
EndSplineSet
Validated: 1
EndChar

StartChar: braceleft
Encoding: 123 123 94
Width: 1200
GlyphClass: 2
Flags: W
HStem: -260 160<739.545 1014> 670 160<186 461.876> 1600 160<739.545 1014>
VStem: 510 180<-50.4604 620.46 880.509 1549.49>
CounterMasks: 1 e0
LayerCount: 2
Fore
SplineSet
186 830 m 1,0,-1
 338 830 l 2,1,2
 423 830 423 830 466 879 c 0,3,4
 509 927 509 927 510 1010 c 1,5,-1
 510 1420 l 2,6,7
 510 1560 510 1560 593 1652 c 0,8,9
 691 1759 691 1759 862 1760 c 1,10,-1
 1014 1760 l 1,11,-1
 1014 1600 l 1,12,-1
 862 1600 l 2,13,14
 777 1600 777 1600 734 1551 c 0,15,16
 691 1503 691 1503 690 1420 c 1,17,-1
 690 1010 l 2,18,19
 690 867 690 867 607 778 c 0,20,21
 593 763 593 763 578 750 c 1,22,23
 593 737 593 737 607 722 c 0,24,25
 690 633 690 633 690 490 c 2,26,-1
 690 80 l 1,27,28
 691 -3 691 -3 734 -52 c 0,29,30
 777 -100 777 -100 862 -100 c 2,31,-1
 1014 -100 l 1,32,-1
 1014 -260 l 1,33,-1
 862 -260 l 1,34,35
 691 -259 691 -259 593 -152 c 0,36,37
 510 -60 510 -60 510 80 c 2,38,-1
 510 490 l 1,39,40
 509 573 509 573 466 622 c 0,41,42
 423 670 423 670 338 670 c 2,43,-1
 186 670 l 1,44,-1
 186 830 l 1,0,-1
EndSplineSet
Validated: 1
EndChar

StartChar: bar
Encoding: 124 124 95
Width: 1200
GlyphClass: 2
Flags: W
VStem: 510 180<-260 1760>
LayerCount: 2
Fore
SplineSet
510 1760 m 1,0,-1
 690 1760 l 1,1,-1
 690 -260 l 1,2,-1
 510 -260 l 1,3,-1
 510 1760 l 1,0,-1
EndSplineSet
Validated: 1
EndChar

StartChar: braceright
Encoding: 125 125 96
Width: 1200
GlyphClass: 2
Flags: W
HStem: -260 160<186 460.455> 670 160<738.124 1014> 1600 160<186 460.455>
VStem: 510 180<-50.4604 620.46 880.509 1549.49>
CounterMasks: 1 e0
LayerCount: 2
Fore
SplineSet
1014 830 m 1,0,-1
 1014 670 l 1,1,-1
 862 670 l 2,2,3
 777 670 777 670 734 622 c 0,4,5
 691 573 691 573 690 490 c 1,6,-1
 690 80 l 2,7,8
 690 -60 690 -60 607 -152 c 0,9,10
 509 -259 509 -259 338 -260 c 1,11,-1
 186 -260 l 1,12,-1
 186 -100 l 1,13,-1
 338 -100 l 2,14,15
 423 -100 423 -100 466 -52 c 0,16,17
 509 -3 509 -3 510 80 c 1,18,-1
 510 490 l 2,19,20
 510 633 510 633 593 722 c 0,21,22
 607 737 607 737 622 750 c 1,23,24
 607 763 607 763 593 778 c 0,25,26
 510 867 510 867 510 1010 c 2,27,-1
 510 1420 l 1,28,29
 509 1503 509 1503 466 1551 c 0,30,31
 423 1600 423 1600 338 1600 c 2,32,-1
 186 1600 l 1,33,-1
 186 1760 l 1,34,-1
 338 1760 l 1,35,36
 509 1759 509 1759 607 1652 c 0,37,38
 690 1560 690 1560 690 1420 c 2,39,-1
 690 1010 l 1,40,41
 691 927 691 927 734 879 c 0,42,43
 777 830 777 830 862 830 c 2,44,-1
 1014 830 l 1,0,-1
EndSplineSet
Validated: 1
EndChar

StartChar: asciitilde
Encoding: 126 126 97
Width: 1200
GlyphClass: 2
Flags: W
HStem: 576 139<690.5 847.922> 781 138<353.016 529.538>
VStem: 186 128<633 744.439> 883 131<731 862>
LayerCount: 2
Fore
SplineSet
186 633 m 1,0,1
 230 919 230 919 419 919 c 0,2,3
 528 919 528 919 632 812 c 0,4,5
 725 716 725 716 787 715 c 1,6,-1
 788 715 l 2,7,8
 854 715 854 715 883 862 c 1,9,-1
 1014 862 l 1,10,11
 963 577 963 577 793 576 c 1,12,-1
 792 576 l 2,13,14
 701 576 701 576 568 704 c 0,15,16
 488 781 488 781 424 781 c 0,17,18
 418 781 418 781 413 780 c 0,19,20
 339 765 339 765 314 633 c 1,21,-1
 186 633 l 1,0,1
EndSplineSet
Validated: 1
EndChar

StartChar: exclamdown
Encoding: 161 161 99
Width: 1200
GlyphClass: 2
Flags: W
HStem: 849 261<514.161 696.901>
VStem: 470 261<-410 -144.431 888.007 1074.57> 530 140<396.006 720>
LayerCount: 2
Fore
SplineSet
605 1110 m 0,0,1
 652 1110 652 1110 692 1071 c 0,2,3
 731 1033 731 1033 731 982 c 2,4,-1
 731 979 l 1,5,6
 728 919 728 919 698 887 c 0,7,8
 663 849 663 849 605 849 c 0,9,10
 550 849 550 849 513 879 c 0,11,12
 470 914 470 914 470 979 c 0,13,14
 470 1032 470 1032 511 1071 c 128,-1,15
 552 1110 552 1110 605 1110 c 0,0,1
480 -410 m 1,16,-1
 530 720 l 1,17,-1
 670 720 l 1,18,-1
 720 -410 l 1,19,-1
 480 -410 l 1,16,-1
EndSplineSet
Validated: 1
EndChar

StartChar: cent
Encoding: 162 162 100
Width: 1200
GlyphClass: 2
Flags: W
VStem: 186 180<211.49 890.146> 510 180<-260 -6.27637 147 952 1105.08 1348> 834 180<209.095 334 765 888.487>
CounterMasks: 1 e0
LayerCount: 2
Fore
SplineSet
1014 334 m 1,0,1
 1014 164 1014 164 890 72 c 0,2,3
 801 6 801 6 690 -13 c 1,4,-1
 690 -260 l 1,5,-1
 510 -260 l 1,6,-1
 510 -14 l 1,7,8
 384 4 384 4 300 74 c 0,9,10
 186 169 186 169 186 334 c 2,11,-1
 186 765 l 2,12,13
 186 936 186 936 314 1032 c 0,14,15
 399 1096 399 1096 510 1114 c 1,16,-1
 510 1348 l 1,17,-1
 690 1348 l 1,18,-1
 690 1113 l 1,19,20
 806 1094 806 1094 890 1028 c 0,21,22
 1014 931 1014 931 1014 765 c 1,23,-1
 834 765 l 1,24,25
 834 855 834 855 775 905 c 0,26,27
 737 937 737 937 690 952 c 1,28,-1
 690 147 l 1,29,30
 738 162 738 162 775 194 c 0,31,32
 834 245 834 245 834 334 c 1,33,-1
 1014 334 l 1,0,1
510 146 m 1,34,-1
 510 954 l 1,35,36
 464 938 464 938 425 905 c 0,37,38
 366 855 366 855 366 765 c 2,39,-1
 366 334 l 2,40,41
 366 244 366 244 425 194 c 0,42,43
 464 161 464 161 510 146 c 1,34,-1
EndSplineSet
Validated: 1
EndChar

StartChar: sterling
Encoding: 163 163 101
Width: 1200
GlyphClass: 2
Flags: W
HStem: 0 160<80 186 366 1017> 664 160<80 186 366 854> 1367 153<451.361 750.879>
VStem: 186 180<160 664 824 1290.15> 834 180<1165 1288>
LayerCount: 2
Fore
SplineSet
80 0 m 1,0,-1
 80 160 l 1,1,-1
 186 160 l 1,2,-1
 186 664 l 1,3,-1
 80 664 l 1,4,-1
 80 824 l 1,5,-1
 186 824 l 1,6,-1
 186 1165 l 2,7,8
 186 1335 186 1335 314 1432 c 0,9,10
 430 1520 430 1520 596 1520 c 2,11,-1
 600 1520 l 1,12,13
 775 1519 775 1519 890 1428 c 0,14,15
 1014 1330 1014 1330 1014 1165 c 1,16,-1
 834 1165 l 1,17,18
 834 1255 834 1255 775 1305 c 0,19,20
 702 1367 702 1367 601 1367 c 0,21,22
 498 1367 498 1367 425 1305 c 0,23,24
 366 1255 366 1255 366 1165 c 2,25,-1
 366 824 l 1,26,-1
 854 824 l 1,27,-1
 854 664 l 1,28,-1
 366 664 l 1,29,-1
 366 160 l 1,30,-1
 1017 160 l 1,31,-1
 1017 0 l 1,32,-1
 80 0 l 1,0,-1
EndSplineSet
Validated: 1
EndChar

StartChar: currency
Encoding: 164 164 102
Width: 1200
GlyphClass: 2
Flags: W
HStem: 413 168<477.988 702.901> 910 168<478.223 704.026>
VStem: 254 174<632.188 860.204> 755 175<632.696 858.146>
DStem2: 298 1165 185 1052 0.707107 -0.707107<0 186.225 818.675 1013.99> 185 448 298 335 0.707107 0.707107<0 182.335 812.629 1013.99>
LayerCount: 2
Fore
SplineSet
428 746 m 0,0,1
 428 678 428 678 475 629 c 0,2,3
 521 581 521 581 590 581 c 0,4,5
 660 581 660 581 707 629 c 0,6,7
 755 678 755 678 755 746 c 0,8,9
 755 813 755 813 707 862 c 0,10,11
 660 910 660 910 592 910 c 0,12,13
 522 910 522 910 476 864 c 0,14,15
 428 817 428 817 428 746 c 0,0,1
185 448 m 1,16,-1
 305 568 l 1,17,18
 254 646 254 646 254 746 c 0,19,20
 254 848 254 848 308 928 c 1,21,-1
 185 1052 l 1,22,-1
 298 1165 l 1,23,-1
 426 1037 l 1,24,25
 500 1078 500 1078 592 1078 c 0,26,27
 690 1078 690 1078 768 1031 c 1,28,-1
 902 1165 l 1,29,-1
 1015 1052 l 1,30,-1
 882 919 l 1,31,32
 930 845 930 845 930 746 c 0,33,34
 930 651 930 651 886 578 c 1,35,-1
 1015 448 l 1,36,-1
 902 335 l 1,37,-1
 773 464 l 1,38,39
 693 413 693 413 592 413 c 0,40,41
 497 413 497 413 421 457 c 1,42,-1
 298 335 l 1,43,-1
 185 448 l 1,16,-1
EndSplineSet
Validated: 1
EndChar

StartChar: yen
Encoding: 165 165 103
Width: 1200
GlyphClass: 2
Flags: W
HStem: 0 21G<510 690> 388 160<186 510 690 1014> 708 160<186 367 833 1014> 1480 20G<100 347 853 1100>
VStem: 100 180<1320 1500> 510 180<0 388 548 592> 920 180<1320 1500>
CounterMasks: 1 0e
LayerCount: 2
Fore
SplineSet
510 0 m 1,0,-1
 510 388 l 1,1,-1
 186 388 l 1,2,-1
 186 548 l 1,3,-1
 510 548 l 1,4,-1
 510 592 l 1,5,-1
 448 708 l 1,6,-1
 186 708 l 1,7,-1
 186 868 l 1,8,-1
 367 868 l 1,9,10
 225 1162 225 1162 100 1500 c 1,11,-1
 280 1500 l 1,12,13
 414 1153 414 1153 559 868 c 1,14,-1
 641 868 l 1,15,16
 786 1153 786 1153 920 1500 c 1,17,-1
 1100 1500 l 1,18,19
 975 1162 975 1162 833 868 c 1,20,-1
 1014 868 l 1,21,-1
 1014 708 l 1,22,-1
 752 708 l 1,23,-1
 690 592 l 1,24,-1
 690 548 l 1,25,-1
 1014 548 l 1,26,-1
 1014 388 l 1,27,-1
 690 388 l 1,28,-1
 690 0 l 1,29,-1
 510 0 l 1,0,-1
EndSplineSet
Validated: 1
EndChar

StartChar: brokenbar
Encoding: 166 166 104
Width: 1200
GlyphClass: 2
Flags: W
VStem: 510 180<-260 670 830 1760>
LayerCount: 2
Fore
SplineSet
510 1760 m 1,0,-1
 690 1760 l 1,1,-1
 690 830 l 1,2,-1
 510 830 l 1,3,-1
 510 1760 l 1,0,-1
510 670 m 1,4,-1
 690 670 l 1,5,-1
 690 -260 l 1,6,-1
 510 -260 l 1,7,-1
 510 670 l 1,4,-1
EndSplineSet
Validated: 1
EndChar

StartChar: section
Encoding: 167 167 105
Width: 1200
GlyphClass: 2
Flags: W
HStem: -20 153<462.095 709.96> 1367 153<490.04 737.905>
VStem: 174 180<673.598 890.958> 238 180<181.915 275> 259 180<1125.83 1314.22> 761 180<185.783 374.168> 782 180<1225 1318.08> 846 180<609.042 826.402>
LayerCount: 2
Fore
SplineSet
238 275 m 1,0,1
 238 275 238 275 418 275 c 1,2,3
 431 210 431 210 458 181 c 0,4,5
 503 133 503 133 587 133 c 0,6,7
 670 133 670 133 717 184 c 1,8,9
 761 230 761 230 761 296 c 0,10,11
 761 387 761 387 590 428 c 0,12,13
 415 470 415 470 311 528 c 0,14,15
 174 605 174 605 174 766 c 0,16,17
 174 936 174 936 298 1028 c 1,18,-1
 312 1038 l 1,19,20
 259 1105 259 1105 259 1204 c 0,21,22
 259 1330 259 1330 373 1435 c 1,23,24
 467 1520 467 1520 612 1520 c 0,25,26
 770 1520 770 1520 857 1438 c 0,27,28
 956 1344 956 1344 962 1225 c 1,29,-1
 782 1225 l 1,30,31
 769 1290 769 1290 742 1319 c 0,32,33
 697 1367 697 1367 613 1367 c 0,34,35
 530 1367 530 1367 483 1316 c 1,36,37
 439 1270 439 1270 439 1204 c 0,38,39
 439 1113 439 1113 610 1072 c 0,40,41
 785 1030 785 1030 889 972 c 0,42,43
 1026 895 1026 895 1026 734 c 0,44,45
 1026 564 1026 564 902 472 c 1,46,-1
 888 462 l 1,47,48
 941 395 941 395 941 296 c 0,49,50
 941 170 941 170 827 65 c 1,51,52
 733 -20 733 -20 588 -20 c 0,53,54
 430 -20 430 -20 343 62 c 0,55,56
 244 156 244 156 238 275 c 1,0,1
466 940 m 1,57,58
 437 927 437 927 413 906 c 0,59,60
 354 854 354 854 354 766 c 1,61,62
 355 687 355 687 439 649 c 1,63,-1
 734 560 l 1,64,65
 763 573 763 573 787 594 c 0,66,67
 846 646 846 646 846 734 c 1,68,69
 845 813 845 813 761 851 c 1,70,-1
 466 940 l 1,57,58
EndSplineSet
Validated: 1
EndChar

StartChar: dieresis
Encoding: 168 168 106
Width: 1200
GlyphClass: 2
Flags: W
HStem: 1259 261<346.277 539.856 661.277 854.856>
VStem: 312 261<1293.28 1485.72> 627 261<1293.28 1485.72>
LayerCount: 2
Fore
SplineSet
627 1389 m 128,-1,1
 627 1442 627 1442 666 1481 c 128,-1,2
 705 1520 705 1520 758 1520 c 0,3,4
 808 1520 808 1520 849 1481 c 0,5,6
 888 1444 888 1444 888 1389 c 0,7,8
 888 1336 888 1336 849 1298 c 0,9,10
 809 1259 809 1259 759 1259 c 0,11,12
 758 1259 758 1259 757 1259 c 0,13,14
 707 1259 707 1259 666 1298 c 0,15,0
 627 1336 627 1336 627 1389 c 128,-1,1
312 1389 m 128,-1,17
 312 1442 312 1442 351 1481 c 128,-1,18
 390 1520 390 1520 443 1520 c 0,19,20
 493 1520 493 1520 534 1481 c 0,21,22
 573 1444 573 1444 573 1389 c 0,23,24
 573 1336 573 1336 534 1298 c 0,25,26
 494 1259 494 1259 444 1259 c 0,27,28
 443 1259 443 1259 442 1259 c 0,29,30
 392 1259 392 1259 352 1298 c 0,31,16
 312 1336 312 1336 312 1389 c 128,-1,17
EndSplineSet
Validated: 1
EndChar

StartChar: copyright
Encoding: 169 169 107
Width: 1200
GlyphClass: 2
Flags: W
HStem: 615 70<444.226 756.885> 786 126<529.878 670.152> 1230 126<533.785 670.091> 1454 66<447.586 752.364>
VStem: 149 78<895.243 1242.13> 368 140<934.503 1210.43> 692 140<937.566 1013 1128 1203.4> 973 77<897.709 1239.29>
LayerCount: 2
Fore
SplineSet
832 1013 m 1,0,-1
 832 988 l 2,1,2
 832 890 832 890 760 837 c 0,3,4
 691 786 691 786 600 786 c 0,5,6
 499 786 499 786 434 835 c 0,7,8
 368 885 368 885 368 972 c 2,9,-1
 368 1170 l 2,10,11
 368 1259 368 1259 442 1311 c 0,12,13
 506 1356 506 1356 598 1356 c 2,14,-1
 600 1356 l 1,15,16
 698 1355 698 1355 761 1305 c 0,17,18
 832 1249 832 1249 832 1154 c 2,19,-1
 832 1128 l 1,20,-1
 692 1128 l 1,21,-1
 692 1154 l 2,22,23
 692 1185 692 1185 671 1204 c 0,24,25
 642 1230 642 1230 600 1230 c 0,26,27
 597 1230 597 1230 597 1230 c 1,28,29
 558 1229 558 1229 533 1211 c 128,-1,30
 508 1193 508 1193 508 1164 c 2,31,-1
 508 978 l 2,32,33
 508 950 508 950 529 934 c 0,34,35
 557 912 557 912 597 912 c 0,36,37
 600 912 600 912 600 912 c 1,38,39
 644 913 644 913 671 937 c 0,40,41
 692 955 692 955 692 988 c 2,42,-1
 692 1013 l 1,43,-1
 832 1013 l 1,0,-1
227 1069 m 128,-1,45
 227 908 227 908 336 797 c 128,-1,46
 445 686 445 686 600 685 c 1,47,-1
 603 685 l 2,48,49
 756 685 756 685 864 797 c 0,50,51
 973 910 973 910 973 1069 c 128,-1,52
 973 1228 973 1228 864 1341 c 128,-1,53
 755 1454 755 1454 603 1454 c 2,54,-1
 600 1454 l 1,55,56
 442 1453 442 1453 336 1343 c 0,57,44
 227 1230 227 1230 227 1069 c 128,-1,45
149 1066 m 0,58,59
 149 1255 149 1255 282 1388 c 0,60,61
 414 1520 414 1520 600 1520 c 128,-1,62
 786 1520 786 1520 918 1388 c 128,-1,63
 1050 1256 1050 1256 1050 1068 c 128,-1,64
 1050 880 1050 880 918 748 c 128,-1,65
 786 616 786 616 600 615 c 1,66,-1
 597 615 l 2,67,68
 417 615 417 615 284 744 c 0,69,70
 149 875 149 875 149 1066 c 0,58,59
EndSplineSet
Validated: 1
EndChar

StartChar: ordfeminine
Encoding: 170 170 108
Width: 1200
GlyphClass: 2
Flags: W
HStem: 670 160<186 1014> 882 135<490.06 662.2> 1189 101<481.759 680> 1385 125<482.493 654.937>
VStem: 323 149<1045.6 1176.71> 680 149<894 907 1045.66 1189 1290 1359.43>
LayerCount: 2
Fore
SplineSet
680 1189 m 1,0,-1
 575 1189 l 2,1,2
 524 1189 524 1189 497 1165 c 0,3,4
 473 1144 473 1144 473 1122 c 1,5,-1
 472 1102 l 1,6,7
 472 1064 472 1064 496 1045 c 0,8,9
 532 1017 532 1017 578 1017 c 128,-1,10
 624 1017 624 1017 656 1045 c 0,11,12
 680 1066 680 1066 680 1103 c 2,13,-1
 680 1189 l 1,0,-1
829 894 m 1,14,-1
 680 894 l 1,15,-1
 680 907 l 1,16,17
 632 882 632 882 576 882 c 0,18,19
 472 882 472 882 401 934 c 0,20,21
 323 991 323 991 323 1086 c 0,22,23
 323 1182 323 1182 400 1238 c 0,24,25
 470 1289 470 1289 576 1290 c 1,26,-1
 680 1290 l 1,27,-1
 680 1306 l 2,28,29
 680 1342 680 1342 656 1360 c 0,30,31
 622 1385 622 1385 584 1385 c 0,32,33
 583 1385 583 1385 581 1385 c 2,34,-1
 578 1385 l 1,35,36
 544 1384 544 1384 529 1378 c 0,37,38
 496 1365 496 1365 484 1346 c 1,39,-1
 470 1326 l 1,40,-1
 345 1400 l 1,41,-1
 361 1420 l 2,42,43
 378 1441 378 1441 401 1458 c 0,44,45
 471 1510 471 1510 576 1510 c 0,46,47
 689 1510 689 1510 757 1457 c 0,48,49
 829 1401 829 1401 829 1307 c 2,50,-1
 829 894 l 1,14,-1
186 670 m 1,51,-1
 186 830 l 1,52,-1
 1014 830 l 1,53,-1
 1014 670 l 1,54,-1
 186 670 l 1,51,-1
EndSplineSet
Validated: 1
EndChar

StartChar: guillemotleft
Encoding: 171 171 109
Width: 1200
GlyphClass: 2
Flags: W
DStem2: 150 775 325 752 0.635707 0.77193<93.4944 505.206> 325 752 150 726 0.636677 -0.771131<0 413.267> 543 775 718 752 0.635707 0.77193<93.4944 505.206> 718 752 543 726 0.636677 -0.771131<0 413.267>
LayerCount: 2
Fore
SplineSet
865 336 m 1,0,-1
 543 726 l 1,1,-1
 543 775 l 1,2,-1
 865 1166 l 1,3,-1
 988 1063 l 1,4,-1
 718 752 l 1,5,-1
 988 439 l 1,6,-1
 865 336 l 1,0,-1
472 336 m 1,7,-1
 150 726 l 1,8,-1
 150 775 l 1,9,-1
 472 1166 l 1,10,-1
 595 1063 l 1,11,-1
 325 752 l 1,12,-1
 595 439 l 1,13,-1
 472 336 l 1,7,-1
EndSplineSet
Validated: 1
EndChar

StartChar: logicalnot
Encoding: 172 172 110
Width: 1200
GlyphClass: 2
Flags: W
HStem: 670 160<186 854>
VStem: 854 160<309 670>
LayerCount: 2
Fore
SplineSet
186 670 m 1,0,-1
 186 830 l 1,1,-1
 1014 830 l 1,2,-1
 1014 309 l 1,3,-1
 854 309 l 1,4,-1
 854 670 l 1,5,-1
 186 670 l 1,0,-1
EndSplineSet
Validated: 1
EndChar

StartChar: uni00AD
Encoding: 173 173 111
Width: 1200
GlyphClass: 2
Flags: W
HStem: 670 160<186 1014>
LayerCount: 2
Fore
SplineSet
186 670 m 1,0,-1
 186 830 l 1,1,-1
 1014 830 l 1,2,-1
 1014 670 l 1,3,-1
 186 670 l 1,0,-1
EndSplineSet
Validated: 1
EndChar

StartChar: registered
Encoding: 174 174 112
Width: 1200
GlyphClass: 2
Flags: W
HStem: 615 70<444.226 757.219> 946 121<522 579> 1250 121<522 677.52> 1454 66<447.586 752.364>
VStem: 149 78<895.243 1242.13> 390 132<771 946 1067 1250> 678 132<1073.08 1243.84> 973 77<896.744 1239.29>
LayerCount: 2
Fore
SplineSet
149 1066 m 0,0,1
 149 1255 149 1255 282 1388 c 0,2,3
 414 1520 414 1520 600 1520 c 128,-1,4
 786 1520 786 1520 918 1388 c 128,-1,5
 1050 1256 1050 1256 1050 1068 c 128,-1,6
 1050 880 1050 880 918 748 c 128,-1,7
 786 616 786 616 600 615 c 1,8,-1
 597 615 l 2,9,10
 417 615 417 615 284 744 c 0,11,12
 149 875 149 875 149 1066 c 0,0,1
390 771 m 1,13,-1
 390 1371 l 1,14,-1
 600 1371 l 2,15,16
 672 1371 672 1371 733 1332 c 0,17,18
 810 1283 810 1283 810 1215 c 2,19,-1
 810 1114 l 2,20,21
 810 1050 810 1050 733 996 c 0,22,23
 723 989 723 989 714 985 c 1,24,-1
 847 780 l 1,25,26
 855 788 855 788 864 797 c 0,27,28
 973 906 973 906 973 1069 c 0,29,30
 973 1228 973 1228 864 1341 c 128,-1,31
 755 1454 755 1454 603 1454 c 2,32,-1
 600 1454 l 1,33,34
 442 1453 442 1453 336 1343 c 0,35,36
 227 1230 227 1230 227 1069 c 128,-1,37
 227 908 227 908 336 797 c 128,-1,38
 445 686 445 686 600 685 c 1,39,-1
 603 685 l 2,40,41
 737 685 737 685 837 771 c 1,42,-1
 699 771 l 1,43,-1
 579 946 l 1,44,-1
 522 946 l 1,45,-1
 522 771 l 1,46,-1
 390 771 l 1,13,-1
600 1250 m 2,47,-1
 522 1250 l 1,48,-1
 522 1067 l 1,49,-1
 600 1067 l 2,50,51
 633 1067 633 1067 655 1081 c 0,52,53
 668 1089 668 1089 676 1101 c 0,54,55
 678 1104 678 1104 678 1111 c 2,56,-1
 678 1206 l 2,57,58
 678 1214 678 1214 675 1218 c 0,59,60
 669 1227 669 1227 652 1237 c 0,61,62
 630 1250 630 1250 600 1250 c 2,47,-1
EndSplineSet
Validated: 1
EndChar

StartChar: macron
Encoding: 175 175 113
Width: 1200
GlyphClass: 2
Flags: W
HStem: 1532 160<186 1014>
LayerCount: 2
Fore
SplineSet
186 1532 m 1,0,-1
 186 1692 l 1,1,-1
 1014 1692 l 1,2,-1
 1014 1532 l 1,3,-1
 186 1532 l 1,0,-1
EndSplineSet
Validated: 1
EndChar

StartChar: degree
Encoding: 176 176 114
Width: 1200
GlyphClass: 2
Flags: W
HStem: 1020 152<531.587 668.413> 1370 150<531.587 668.413>
VStem: 350 160<1193.42 1347.58> 690 160<1193.42 1347.58>
LayerCount: 2
Fore
SplineSet
510 1271 m 128,-1,1
 510 1230 510 1230 536 1201 c 128,-1,2
 562 1172 562 1172 600 1172 c 128,-1,3
 638 1172 638 1172 664 1201 c 128,-1,4
 690 1230 690 1230 690 1271 c 128,-1,5
 690 1312 690 1312 664 1341 c 128,-1,6
 638 1370 638 1370 600 1370 c 128,-1,7
 562 1370 562 1370 536 1341 c 128,-1,0
 510 1312 510 1312 510 1271 c 128,-1,1
350 1270 m 128,-1,9
 350 1374 350 1374 423 1447 c 128,-1,10
 496 1520 496 1520 600 1520 c 128,-1,11
 704 1520 704 1520 777 1447 c 128,-1,12
 850 1374 850 1374 850 1270 c 128,-1,13
 850 1166 850 1166 777 1093 c 128,-1,14
 704 1020 704 1020 600 1020 c 128,-1,15
 496 1020 496 1020 423 1093 c 128,-1,8
 350 1166 350 1166 350 1270 c 128,-1,9
EndSplineSet
Validated: 1
EndChar

StartChar: plusminus
Encoding: 177 177 115
Width: 1200
GlyphClass: 2
Flags: W
HStem: 233 160<186 1014> 780 160<186 520 680 1014>
VStem: 520 160<446 780 940 1274>
LayerCount: 2
Fore
SplineSet
186 780 m 1,0,-1
 186 940 l 1,1,-1
 520 940 l 1,2,-1
 520 1274 l 1,3,-1
 680 1274 l 1,4,-1
 680 940 l 1,5,-1
 1014 940 l 1,6,-1
 1014 780 l 1,7,-1
 680 780 l 1,8,-1
 680 446 l 1,9,-1
 520 446 l 1,10,-1
 520 780 l 1,11,-1
 186 780 l 1,0,-1
186 233 m 1,12,-1
 186 393 l 1,13,-1
 1014 393 l 1,14,-1
 1014 233 l 1,15,-1
 186 233 l 1,12,-1
EndSplineSet
Validated: 1
EndChar

StartChar: uni00B2
Encoding: 178 178 116
Width: 1200
GlyphClass: 2
Flags: W
HStem: 826 122<504 828> 1391 119<504.008 694.141>
VStem: 372 132<948 1051.63 1350 1382.2> 696 132<1232.8 1383.38>
DStem2: 446 1142 514 1039 0.918096 0.396359<-7.46308 291.603>
LayerCount: 2
Fore
SplineSet
372 1350 m 1,0,1
 372 1427 372 1427 452 1473 c 0,2,3
 516 1510 516 1510 598 1510 c 2,4,-1
 600 1510 l 2,5,6
 680 1510 680 1510 745 1470 c 0,7,8
 828 1419 828 1419 828 1350 c 2,9,-1
 828 1269 l 2,10,11
 828 1174 828 1174 741 1137 c 2,12,-1
 514 1039 l 2,13,14
 504 1034 504 1034 504 1021 c 2,15,-1
 504 948 l 1,16,-1
 828 948 l 1,17,-1
 828 826 l 1,18,-1
 372 826 l 1,19,-1
 372 1016 l 2,20,21
 372 1110 372 1110 446 1142 c 2,22,-1
 668 1238 l 2,23,24
 684 1245 684 1245 692 1255 c 0,25,26
 696 1260 696 1260 696 1268 c 2,27,-1
 696 1350 l 2,28,29
 696 1367 696 1367 666 1379 c 0,30,31
 637 1391 637 1391 600 1391 c 0,32,33
 567 1391 567 1391 537 1380 c 0,34,35
 504 1368 504 1368 504 1350 c 1,36,-1
 372 1350 l 1,0,1
EndSplineSet
Validated: 1
EndChar

StartChar: uni00B3
Encoding: 179 179 117
Width: 1200
GlyphClass: 2
Flags: W
HStem: 817 120<508.648 689.945> 1125 131<512 651.464> 1391 119<531.066 669.295>
VStem: 372 132<948.223 1028> 399 131<1319 1386.94> 670 130<1268.41 1385.97> 696 132<948.724 1111.31>
LayerCount: 2
Fore
SplineSet
372 1028 m 1,0,-1
 504 1028 l 1,1,-1
 504 1002 l 2,2,3
 504 973 504 973 537 954 c 0,4,5
 567 937 567 937 600 937 c 0,6,7
 636 937 636 937 666 957 c 128,-1,8
 696 977 696 977 696 1002 c 2,9,-1
 696 1053 l 2,10,11
 696 1079 696 1079 666 1103 c 0,12,13
 639 1125 639 1125 600 1125 c 2,14,-1
 512 1125 l 1,15,-1
 512 1256 l 1,16,-1
 600 1256 l 2,17,18
 635 1256 635 1256 652 1268 c 0,19,20
 670 1281 670 1281 670 1299 c 2,21,-1
 670 1343 l 2,22,23
 670 1361 670 1361 650 1375 c 0,24,25
 627 1391 627 1391 600 1391 c 0,26,27
 572 1391 572 1391 551 1376 c 128,-1,28
 530 1361 530 1361 530 1344 c 2,29,-1
 530 1319 l 1,30,-1
 399 1319 l 1,31,-1
 399 1344 l 2,32,33
 399 1408 399 1408 467 1463 c 0,34,35
 525 1510 525 1510 599 1510 c 2,36,-1
 600 1510 l 2,37,38
 669 1510 669 1510 731 1468 c 0,39,40
 800 1421 800 1421 800 1346 c 2,41,-1
 800 1298 l 2,42,43
 800 1240 800 1240 755 1200 c 1,44,45
 828 1148 828 1148 828 1077 c 2,46,-1
 828 989 l 2,47,48
 828 914 828 914 745 860 c 0,49,50
 679 817 679 817 600 817 c 0,51,52
 505 817 505 817 452 849 c 0,53,54
 372 898 372 898 372 988 c 2,55,-1
 372 1028 l 1,0,-1
EndSplineSet
Validated: 1
EndChar

StartChar: acute
Encoding: 180 180 118
Width: 1200
GlyphClass: 2
Flags: W
HStem: 1022 498
VStem: 411 378
LayerCount: 2
Fore
SplineSet
627 1520 m 1,0,-1
 789 1426 l 1,1,-1
 521 1022 l 1,2,-1
 411 1086 l 1,3,-1
 627 1520 l 1,0,-1
EndSplineSet
Validated: 1
EndChar

StartChar: uni00B5
Encoding: 181 181 119
Width: 1200
GlyphClass: 2
Flags: W
HStem: -400 21G<186 366> -20 153<448.496 749.698> 0 21G<834 1014> 1080 20G<186 366 834 1014>
VStem: 186 180<-400 35 209.854 1100> 834 180<0 64 209.854 1100>
LayerCount: 2
Fore
SplineSet
186 1100 m 1,0,-1
 366 1100 l 1,1,-1
 366 335 l 2,2,3
 366 245 366 245 425 195 c 0,4,5
 498 133 498 133 599 133 c 0,6,7
 702 133 702 133 775 195 c 0,8,9
 834 245 834 245 834 335 c 2,10,-1
 834 1100 l 1,11,-1
 1014 1100 l 1,12,-1
 1014 0 l 1,13,-1
 834 0 l 1,14,-1
 834 64 l 1,15,16
 730 -20 730 -20 606 -20 c 0,17,18
 603 -20 603 -20 600 -20 c 0,19,20
 469 -20 469 -20 366 35 c 1,21,-1
 366 -400 l 1,22,-1
 186 -400 l 1,23,-1
 186 1100 l 1,0,-1
EndSplineSet
Validated: 1
EndChar

StartChar: paragraph
Encoding: 182 182 120
Width: 1200
GlyphClass: 2
Flags: W
HStem: 0 21G<600 740 876 1016> 1360 140<740 876>
VStem: 150 590<849.342 1246.66> 600 140<0 595> 876 140<0 1360>
LayerCount: 2
Fore
SplineSet
1016 0 m 1,0,-1
 876 0 l 1,1,-1
 876 1360 l 1,2,-1
 740 1360 l 1,3,-1
 740 0 l 1,4,-1
 600 0 l 1,5,-1
 600 595 l 1,6,7
 414 596 414 596 282 728 c 128,-1,8
 150 860 150 860 150 1048 c 128,-1,9
 150 1236 150 1236 282 1368 c 0,10,11
 415 1500 415 1500 600 1500 c 2,12,-1
 1016 1500 l 1,13,-1
 1016 0 l 1,0,-1
EndSplineSet
Validated: 1
EndChar

StartChar: periodcentered
Encoding: 183 183 121
Width: 1200
GlyphClass: 2
Flags: W
HStem: 620 261<514.19 697.856>
VStem: 470 261<655.131 846.723>
LayerCount: 2
Fore
SplineSet
470 750 m 0,0,1
 470 803 470 803 509 842 c 128,-1,2
 548 881 548 881 601 881 c 0,3,4
 652 881 652 881 692 842 c 0,5,6
 731 804 731 804 731 753 c 0,7,8
 731 751 731 751 731 750 c 0,9,10
 731 697 731 697 692 659 c 0,11,12
 652 620 652 620 602 620 c 2,13,-1
 600 620 l 1,14,15
 551 622 551 622 513 654 c 0,16,17
 470 690 470 690 470 750 c 0,0,1
EndSplineSet
Validated: 1
EndChar

StartChar: cedilla
Encoding: 184 184 122
Width: 1200
GlyphClass: 2
Flags: W
HStem: -410 569
VStem: 568 147<-195.094 4.39966>
LayerCount: 2
Fore
SplineSet
502 -410 m 1,0,1
 502 -410 502 -410 502 -221 c 1,2,3
 568 -158 568 -158 568 -91.5 c 128,-1,4
 568 -25 568 -25 486 43 c 1,5,6
 486 43 486 43 486 159 c 1,7,8
 714 55 714 55 715 -124 c 1,9,10
 715 -124 715 -124 715 -126 c 0,11,12
 715 -320 715 -320 502 -410 c 1,0,1
EndSplineSet
Validated: 1
EndChar

StartChar: uni00B9
Encoding: 185 185 123
Width: 1200
GlyphClass: 2
Flags: W
HStem: 825 122<389 534 666 811> 1480 20G<527.378 666>
VStem: 534 132<947 1333>
LayerCount: 2
Fore
SplineSet
389 825 m 1,0,-1
 389 947 l 1,1,-1
 534 947 l 1,2,-1
 534 1333 l 1,3,-1
 389 1175 l 1,4,-1
 389 1352 l 1,5,-1
 549 1500 l 1,6,-1
 666 1500 l 1,7,-1
 666 947 l 1,8,-1
 811 947 l 1,9,-1
 811 825 l 1,10,-1
 389 825 l 1,0,-1
EndSplineSet
Validated: 1
EndChar

StartChar: ordmasculine
Encoding: 186 186 124
Width: 1200
GlyphClass: 2
Flags: W
HStem: 670 160<186 1014> 883 134<519.741 697.092> 1376 134<528.034 682.119>
VStem: 354 149<1041.54 1350.43> 711 149<1042.47 1353.31>
LayerCount: 2
Fore
SplineSet
604 1376 m 0,0,1
 560 1376 560 1376 527 1351 c 0,2,3
 503 1333 503 1333 503 1300 c 2,4,-1
 503 1092 l 2,5,6
 503 1058 503 1058 527 1041 c 0,7,8
 560 1017 560 1017 604 1017 c 0,9,10
 655 1017 655 1017 690 1042 c 0,11,12
 711 1057 711 1057 711 1092 c 2,13,-1
 711 1300 l 2,14,15
 711 1332 711 1332 683 1354 c 128,-1,16
 655 1376 655 1376 604 1376 c 0,0,1
607 883 m 0,17,18
 495 883 495 883 426 936 c 0,19,20
 354 991 354 991 354 1086 c 2,21,-1
 354 1306 l 2,22,23
 354 1404 354 1404 434 1460 c 0,24,25
 505 1510 505 1510 605 1510 c 2,26,-1
 607 1510 l 2,27,28
 711 1510 711 1510 782 1458 c 0,29,30
 860 1401 860 1401 860 1306 c 2,31,-1
 860 1086 l 2,32,33
 860 991 860 991 777 932 c 0,34,35
 708 883 708 883 607 883 c 0,17,18
186 670 m 1,36,-1
 186 830 l 1,37,-1
 1014 830 l 1,38,-1
 1014 670 l 1,39,-1
 186 670 l 1,36,-1
EndSplineSet
Validated: 1
EndChar

StartChar: guillemotright
Encoding: 187 187 125
Width: 1200
GlyphClass: 2
Flags: W
DStem2: 657 775 482 752 0.635707 -0.77193<-505.206 -93.4944> 482 752 657 726 0.636677 0.771131<-413.267 0> 1050 775 875 752 0.635707 -0.77193<-505.206 -93.4944> 875 752 1050 726 0.636677 0.771131<-413.267 0>
LayerCount: 2
Fore
SplineSet
335 336 m 1,0,-1
 212 439 l 1,1,-1
 482 752 l 1,2,-1
 212 1063 l 1,3,-1
 335 1166 l 1,4,-1
 657 775 l 1,5,-1
 657 726 l 1,6,-1
 335 336 l 1,0,-1
728 336 m 1,7,-1
 605 439 l 1,8,-1
 875 752 l 1,9,-1
 605 1063 l 1,10,-1
 728 1166 l 1,11,-1
 1050 775 l 1,12,-1
 1050 726 l 1,13,-1
 728 336 l 1,7,-1
EndSplineSet
Validated: 1
EndChar

StartChar: onequarter
Encoding: 188 188 126
Width: 1200
GlyphClass: 2
Flags: W
HStem: 0 21G<909 1040> 119 122<746 909> 825 122<74 220 351 497> 1480 20G<212.378 351>
VStem: 220 131<947 1333> 909 131<0 119 241 513>
DStem2: 49 233 187 118 0.642739 0.766086<0.598069 1499.83>
LayerCount: 2
Fore
SplineSet
909 0 m 1,0,-1
 909 119 l 1,1,-1
 585 119 l 1,2,-1
 590 148 l 1,3,4
 616 305 616 305 715 447 c 0,5,6
 813 588 813 588 918 675 c 1,7,-1
 925 675 l 1,8,-1
 1040 675 l 1,9,-1
 1040 0 l 1,10,-1
 909 0 l 1,0,-1
746 241 m 1,11,-1
 909 241 l 1,12,-1
 909 513 l 1,13,14
 881 484 881 484 834 412 c 0,15,16
 779 328 779 328 746 241 c 1,11,-1
74 825 m 1,17,-1
 74 947 l 1,18,-1
 220 947 l 1,19,-1
 220 1333 l 1,20,-1
 74 1175 l 1,21,-1
 74 1352 l 1,22,-1
 234 1500 l 1,23,-1
 351 1500 l 1,24,-1
 351 947 l 1,25,-1
 497 947 l 1,26,-1
 497 825 l 1,27,-1
 74 825 l 1,17,-1
1013 1382 m 1,28,-1
 1151 1267 l 1,29,-1
 187 118 l 1,30,-1
 49 233 l 1,31,-1
 1013 1382 l 1,28,-1
EndSplineSet
Validated: 1
EndChar

StartChar: onehalf
Encoding: 189 189 127
Width: 1200
GlyphClass: 2
Flags: W
HStem: 0 122<780 1104> 565 119<780.008 970.141> 825 122<74 220 351 497> 1480 20G<212.378 351>
VStem: 220 131<947 1333> 648 132<122 225.629 524 556.204> 972 132<406.799 557.375>
DStem2: 49 233 187 118 0.642739 0.766086<0.598069 1499.83> 722 316 790 213 0.918096 0.396359<-7.46308 291.603>
LayerCount: 2
Fore
SplineSet
648 524 m 1,0,1
 648 601 648 601 728 647 c 0,2,3
 792 684 792 684 874 684 c 2,4,-1
 876 684 l 2,5,6
 956 684 956 684 1021 644 c 0,7,8
 1104 593 1104 593 1104 524 c 2,9,-1
 1104 443 l 2,10,11
 1104 348 1104 348 1017 311 c 2,12,-1
 790 213 l 2,13,14
 780 208 780 208 780 195 c 2,15,-1
 780 122 l 1,16,-1
 1104 122 l 1,17,-1
 1104 0 l 1,18,-1
 648 0 l 1,19,-1
 648 190 l 2,20,21
 648 284 648 284 722 316 c 2,22,-1
 944 412 l 2,23,24
 960 419 960 419 968 429 c 0,25,26
 972 434 972 434 972 442 c 2,27,-1
 972 524 l 2,28,29
 972 541 972 541 942 553 c 0,30,31
 913 565 913 565 876 565 c 0,32,33
 843 565 843 565 813 554 c 0,34,35
 780 542 780 542 780 524 c 1,36,-1
 648 524 l 1,0,1
74 825 m 1,37,-1
 74 947 l 1,38,-1
 220 947 l 1,39,-1
 220 1333 l 1,40,-1
 74 1175 l 1,41,-1
 74 1352 l 1,42,-1
 234 1500 l 1,43,-1
 351 1500 l 1,44,-1
 351 947 l 1,45,-1
 497 947 l 1,46,-1
 497 825 l 1,47,-1
 74 825 l 1,37,-1
1013 1382 m 1,48,-1
 1151 1267 l 1,49,-1
 187 118 l 1,50,-1
 49 233 l 1,51,-1
 1013 1382 l 1,48,-1
EndSplineSet
Validated: 1
EndChar

StartChar: threequarters
Encoding: 190 190 128
Width: 1200
GlyphClass: 2
Flags: W
HStem: 0 21G<909 1040> 119 122<746 909> 817 120<215.648 396.945> 1125 131<219 358.464> 1391 119<238.066 376.295>
VStem: 79 132<948.223 1028> 106 131<1319 1386.94> 377 130<1268.41 1385.97> 403 132<948.724 1111.31> 909 131<0 119 241 513>
DStem2: 49 233 187 118 0.642739 0.766086<0.598069 1499.83>
LayerCount: 2
Fore
SplineSet
79 1028 m 1,0,-1
 211 1028 l 1,1,-1
 211 1002 l 2,2,3
 211 973 211 973 244 954 c 0,4,5
 274 937 274 937 307 937 c 0,6,7
 343 937 343 937 373 957 c 128,-1,8
 403 977 403 977 403 1002 c 2,9,-1
 403 1053 l 2,10,11
 403 1079 403 1079 373 1103 c 0,12,13
 346 1125 346 1125 307 1125 c 2,14,-1
 219 1125 l 1,15,-1
 219 1256 l 1,16,-1
 307 1256 l 2,17,18
 342 1256 342 1256 359 1268 c 0,19,20
 377 1281 377 1281 377 1299 c 2,21,-1
 377 1343 l 2,22,23
 377 1361 377 1361 357 1375 c 0,24,25
 334 1391 334 1391 307 1391 c 0,26,27
 279 1391 279 1391 258 1376 c 128,-1,28
 237 1361 237 1361 237 1344 c 2,29,-1
 237 1319 l 1,30,-1
 106 1319 l 1,31,-1
 106 1344 l 2,32,33
 106 1408 106 1408 174 1463 c 0,34,35
 232 1510 232 1510 306 1510 c 2,36,-1
 307 1510 l 2,37,38
 376 1510 376 1510 438 1468 c 0,39,40
 507 1421 507 1421 507 1346 c 2,41,-1
 507 1298 l 2,42,43
 507 1240 507 1240 462 1200 c 1,44,45
 535 1148 535 1148 535 1077 c 2,46,-1
 535 989 l 2,47,48
 535 914 535 914 452 860 c 0,49,50
 386 817 386 817 307 817 c 0,51,52
 212 817 212 817 159 849 c 0,53,54
 79 898 79 898 79 988 c 2,55,-1
 79 1028 l 1,0,-1
909 0 m 1,56,-1
 909 119 l 1,57,-1
 585 119 l 1,58,-1
 590 148 l 1,59,60
 616 305 616 305 715 447 c 0,61,62
 813 588 813 588 918 675 c 1,63,-1
 925 675 l 1,64,-1
 1040 675 l 1,65,-1
 1040 0 l 1,66,-1
 909 0 l 1,56,-1
746 241 m 1,67,-1
 909 241 l 1,68,-1
 909 513 l 1,69,70
 881 484 881 484 834 412 c 0,71,72
 779 328 779 328 746 241 c 1,67,-1
1013 1382 m 1,73,-1
 1151 1267 l 1,74,-1
 187 118 l 1,75,-1
 49 233 l 1,76,-1
 1013 1382 l 1,73,-1
EndSplineSet
Validated: 1
EndChar

StartChar: questiondown
Encoding: 191 191 129
Width: 1200
GlyphClass: 2
Flags: W
HStem: -420 153<438.965 765.231> 859 261<503.144 692.901>
VStem: 150 180<-173.625 204.451> 470 262<893.277 1082.78> 510 180<515.203 717> 870 180<-173.132 -66>
DStem2: 309 387 415 245 0.779012 0.627009<-150.545 291.394>
LayerCount: 2
Fore
SplineSet
1050 -66 m 1,0,1
 1050 -233 1050 -233 898 -335 c 0,2,3
 771 -420 771 -420 604 -420 c 0,4,5
 602 -420 602 -420 600 -420 c 0,6,7
 441 -420 441 -420 310 -328 c 0,8,9
 150 -217 150 -217 150 -66 c 2,10,-1
 150 125 l 2,11,12
 150 260 150 260 309 387 c 0,13,14
 459 506 459 506 474 522 c 0,15,16
 510 563 510 563 510 630 c 2,17,-1
 510 717 l 1,18,-1
 690 717 l 1,19,-1
 690 630 l 2,20,21
 690 461 690 461 579 377 c 1,22,-1
 415 245 l 1,23,24
 330 174 330 174 330 125 c 2,25,-1
 330 -66 l 2,26,27
 330 -151 330 -151 421 -213 c 0,28,29
 499 -266 499 -266 599 -267 c 0,30,31
 694 -267 694 -267 770 -220 c 0,32,33
 870 -158 870 -158 870 -66 c 1,34,-1
 1050 -66 l 1,0,1
732 989 m 0,35,36
 732 937 732 937 692 898 c 128,-1,37
 652 859 652 859 602 859 c 0,38,39
 601 859 601 859 600 859 c 0,40,41
 549 859 549 859 509 898 c 0,42,43
 470 936 470 936 470 990 c 0,44,45
 470 1043 470 1043 509 1081 c 0,46,47
 549 1120 549 1120 601 1120 c 0,48,49
 659 1120 659 1120 694 1084 c 0,50,51
 732 1045 732 1045 732 989 c 0,35,36
EndSplineSet
Validated: 1
EndChar

StartChar: Agrave
Encoding: 192 192 130
Width: 1200
GlyphClass: 2
Flags: W
HStem: 0 21G<50 260 940 1150> 670 160<418 782> 1310 190<415 785>
VStem: 50 180<0 180> 970 180<0 180>
DStem2: 50 0 230 0 0.233463 0.972366<42.0233 538.026>
LayerCount: 2
Fore
SplineSet
500 1930 m 1,0,-1
 660 1616 l 1,1,-1
 550 1552 l 1,2,-1
 338 1836 l 1,3,-1
 500 1930 l 1,0,-1
50 0 m 1,4,5
 126 444 126 444 242 827 c 128,-1,6
 358 1210 358 1210 510 1500 c 1,7,-1
 690 1500 l 1,8,9
 842 1210 842 1210 958 827 c 128,-1,10
 1074 444 1074 444 1150 0 c 1,11,-1
 970 0 l 1,12,13
 910 347 910 347 826 670 c 1,14,-1
 374 670 l 1,15,16
 290 347 290 347 230 0 c 1,17,-1
 50 0 l 1,4,5
418 830 m 1,18,-1
 782 830 l 1,19,20
 717 1052 717 1052 600 1310 c 1,21,22
 483 1052 483 1052 418 830 c 1,18,-1
EndSplineSet
Validated: 1
EndChar

StartChar: Aacute
Encoding: 193 193 131
Width: 1200
GlyphClass: 2
Flags: W
HStem: 0 21G<50 260 940 1150> 670 160<418 782> 1310 190<415 785>
VStem: 50 180<0 180> 970 180<0 180>
DStem2: 50 0 230 0 0.233463 0.972366<42.0233 538.026>
LayerCount: 2
Fore
SplineSet
706 1930 m 1,0,-1
 868 1836 l 1,1,-1
 656 1552 l 1,2,-1
 546 1616 l 1,3,-1
 706 1930 l 1,0,-1
50 0 m 1,4,5
 126 444 126 444 242 827 c 128,-1,6
 358 1210 358 1210 510 1500 c 1,7,-1
 690 1500 l 1,8,9
 842 1210 842 1210 958 827 c 128,-1,10
 1074 444 1074 444 1150 0 c 1,11,-1
 970 0 l 1,12,13
 910 347 910 347 826 670 c 1,14,-1
 374 670 l 1,15,16
 290 347 290 347 230 0 c 1,17,-1
 50 0 l 1,4,5
418 830 m 1,18,-1
 782 830 l 1,19,20
 717 1052 717 1052 600 1310 c 1,21,22
 483 1052 483 1052 418 830 c 1,18,-1
EndSplineSet
Validated: 1
EndChar

StartChar: Acircumflex
Encoding: 194 194 132
Width: 1200
GlyphClass: 2
Flags: W
HStem: 0 21G<50 260 940 1150> 670 160<418 782> 1310 190<415 785>
VStem: 50 180<0 180> 970 180<0 180>
DStem2: 50 0 230 0 0.233463 0.972366<42.0233 538.026>
LayerCount: 2
Fore
SplineSet
338 1646 m 1,0,-1
 550 1930 l 1,1,-1
 656 1930 l 1,2,-1
 868 1646 l 1,3,-1
 757 1574 l 1,4,-1
 603 1726 l 1,5,-1
 447 1574 l 1,6,-1
 338 1646 l 1,0,-1
50 0 m 1,7,8
 126 444 126 444 242 827 c 128,-1,9
 358 1210 358 1210 510 1500 c 1,10,-1
 690 1500 l 1,11,12
 842 1210 842 1210 958 827 c 128,-1,13
 1074 444 1074 444 1150 0 c 1,14,-1
 970 0 l 1,15,16
 910 347 910 347 826 670 c 1,17,-1
 374 670 l 1,18,19
 290 347 290 347 230 0 c 1,20,-1
 50 0 l 1,7,8
418 830 m 1,21,-1
 782 830 l 1,22,23
 717 1052 717 1052 600 1310 c 1,24,25
 483 1052 483 1052 418 830 c 1,21,-1
EndSplineSet
Validated: 1
EndChar

StartChar: Atilde
Encoding: 195 195 133
Width: 1200
GlyphClass: 2
Flags: W
HStem: 0 21G<50 260 940 1150> 670 160<418 782> 1310 190<415 785> 1616 138<641.278 721.485> 1750 134<474.136 556.447>
VStem: 50 180<0 180> 359 103<1657 1745.45> 734 103<1754.55 1842> 970 180<0 180>
DStem2: 50 0 230 0 0.233463 0.972366<42.0233 538.026>
LayerCount: 2
Fore
SplineSet
359 1657 m 1,0,1
 384 1884 384 1884 512 1884 c 0,2,3
 589 1884 589 1884 631 1814 c 0,4,5
 667 1754 667 1754 686 1754 c 2,6,-1
 687 1754 l 1,7,8
 720 1757 720 1757 734 1842 c 1,9,-1
 837 1843 l 1,10,11
 812 1616 812 1616 684 1616 c 0,12,13
 607 1616 607 1616 564 1693 c 0,14,15
 532 1750 532 1750 512 1750 c 0,16,17
 478 1750 478 1750 462 1657 c 1,18,-1
 359 1657 l 1,0,1
50 0 m 1,19,20
 126 444 126 444 242 827 c 128,-1,21
 358 1210 358 1210 510 1500 c 1,22,-1
 690 1500 l 1,23,24
 842 1210 842 1210 958 827 c 128,-1,25
 1074 444 1074 444 1150 0 c 1,26,-1
 970 0 l 1,27,28
 910 347 910 347 826 670 c 1,29,-1
 374 670 l 1,30,31
 290 347 290 347 230 0 c 1,32,-1
 50 0 l 1,19,20
418 830 m 1,33,-1
 782 830 l 1,34,35
 717 1052 717 1052 600 1310 c 1,36,37
 483 1052 483 1052 418 830 c 1,33,-1
EndSplineSet
Validated: 1
EndChar

StartChar: Adieresis
Encoding: 196 196 134
Width: 1200
GlyphClass: 2
Flags: W
HStem: 0 21G<50 260 940 1150> 670 160<418 782> 1310 190<415 785> 1620 261<344.277 537.856 659.277 852.856>
VStem: 50 180<0 180> 310 261<1654.28 1846.72> 625 261<1654.28 1846.72> 970 180<0 180>
DStem2: 50 0 230 0 0.233463 0.972366<42.0233 538.026>
LayerCount: 2
Fore
SplineSet
625 1750 m 128,-1,1
 625 1803 625 1803 664 1842 c 128,-1,2
 703 1881 703 1881 756 1881 c 0,3,4
 806 1881 806 1881 847 1842 c 0,5,6
 886 1805 886 1805 886 1750 c 0,7,8
 886 1697 886 1697 847 1659 c 0,9,10
 807 1620 807 1620 757 1620 c 0,11,12
 756 1620 756 1620 755 1620 c 0,13,14
 705 1620 705 1620 664 1659 c 0,15,0
 625 1697 625 1697 625 1750 c 128,-1,1
310 1750 m 128,-1,17
 310 1803 310 1803 349 1842 c 128,-1,18
 388 1881 388 1881 441 1881 c 0,19,20
 491 1881 491 1881 532 1842 c 0,21,22
 571 1805 571 1805 571 1750 c 0,23,24
 571 1697 571 1697 532 1659 c 0,25,26
 492 1620 492 1620 442 1620 c 0,27,28
 441 1620 441 1620 440 1620 c 0,29,30
 390 1620 390 1620 350 1659 c 0,31,16
 310 1697 310 1697 310 1750 c 128,-1,17
50 0 m 1,32,33
 126 444 126 444 242 827 c 128,-1,34
 358 1210 358 1210 510 1500 c 1,35,-1
 690 1500 l 1,36,37
 842 1210 842 1210 958 827 c 128,-1,38
 1074 444 1074 444 1150 0 c 1,39,-1
 970 0 l 1,40,41
 910 347 910 347 826 670 c 1,42,-1
 374 670 l 1,43,44
 290 347 290 347 230 0 c 1,45,-1
 50 0 l 1,32,33
418 830 m 1,46,-1
 782 830 l 1,47,48
 717 1052 717 1052 600 1310 c 1,49,50
 483 1052 483 1052 418 830 c 1,46,-1
EndSplineSet
Validated: 1
EndChar

StartChar: Aring
Encoding: 197 197 135
Width: 1200
GlyphClass: 2
Flags: W
HStem: 0 21G<50 260 940 1150> 670 160<418 782> 1310 190<415 785> 1578 101<543.138 650.801> 1811 99<550.44 657.106>
VStem: 50 180<0 180> 429 110<1681.56 1799.69> 661 110<1689.99 1808.42> 970 180<0 180>
DStem2: 50 0 230 0 0.233463 0.972366<42.0233 538.026>
LayerCount: 2
Fore
SplineSet
539 1745 m 0,0,1
 539 1720 539 1720 557 1699 c 0,2,3
 574 1679 574 1679 600 1679 c 0,4,5
 628 1679 628 1679 644 1698 c 0,6,7
 661 1718 661 1718 661 1745 c 0,8,9
 661 1770 661 1770 643 1791 c 0,10,11
 626 1811 626 1811 600 1811 c 128,-1,12
 574 1811 574 1811 556.5 1791.5 c 128,-1,13
 539 1772 539 1772 539 1745 c 0,0,1
429 1744 m 0,14,15
 429 1814 429 1814 479 1862 c 128,-1,16
 529 1910 529 1910 600 1910 c 0,17,18
 672 1910 672 1910 721 1862 c 0,19,20
 771 1813 771 1813 771 1744 c 0,21,22
 771 1674 771 1674 721 1626 c 128,-1,23
 671 1578 671 1578 600 1578 c 128,-1,24
 529 1578 529 1578 479 1626.5 c 128,-1,25
 429 1675 429 1675 429 1744 c 0,14,15
50 0 m 1,26,27
 126 444 126 444 242 827 c 128,-1,28
 358 1210 358 1210 510 1500 c 1,29,-1
 690 1500 l 1,30,31
 842 1210 842 1210 958 827 c 128,-1,32
 1074 444 1074 444 1150 0 c 1,33,-1
 970 0 l 1,34,35
 910 347 910 347 826 670 c 1,36,-1
 374 670 l 1,37,38
 290 347 290 347 230 0 c 1,39,-1
 50 0 l 1,26,27
418 830 m 1,40,-1
 782 830 l 1,41,42
 717 1052 717 1052 600 1310 c 1,43,44
 483 1052 483 1052 418 830 c 1,40,-1
EndSplineSet
Validated: 1
EndChar

StartChar: AE
Encoding: 198 198 136
Width: 1200
GlyphClass: 2
Flags: W
HStem: 0 160<828 1190> 670 160<378 648 828 1056> 1340 160<548.318 648 828 1126>
VStem: 10 180<0 180> 648 180<160 670 830 1340>
DStem2: 10 0 190 0 0.233463 0.972366<42.0233 538.026>
CounterMasks: 1 e0
LayerCount: 2
Fore
SplineSet
10 0 m 1,0,1
 86 444 86 444 202 827 c 128,-1,2
 318 1210 318 1210 470 1500 c 1,3,-1
 1126 1500 l 1,4,-1
 1126 1340 l 1,5,-1
 828 1340 l 1,6,-1
 828 830 l 1,7,-1
 1056 830 l 1,8,-1
 1056 670 l 1,9,-1
 828 670 l 1,10,-1
 828 160 l 1,11,-1
 1190 160 l 1,12,-1
 1190 0 l 1,13,-1
 648 0 l 1,14,-1
 648 670 l 1,15,-1
 334 670 l 1,16,17
 250 347 250 347 190 0 c 1,18,-1
 10 0 l 1,0,1
648 830 m 1,19,-1
 648 1340 l 1,20,-1
 568 1340 l 1,21,22
 462 1115 462 1115 378 830 c 1,23,-1
 648 830 l 1,19,-1
EndSplineSet
Validated: 1
EndChar

StartChar: Ccedilla
Encoding: 199 199 137
Width: 1200
GlyphClass: 2
Flags: W
HStem: 1367 153<434.812 762.608>
VStem: 150 180<226.417 1273.13> 568 147<-195.094 -19.1562> 870 180<226.844 334 1166 1273.16>
LayerCount: 2
Fore
SplineSet
1050 334 m 1,0,1
 1050 184 1050 184 890 72 c 0,2,3
 796 6 796 6 689 -12 c 1,4,5
 715 -64 715 -64 715 -124 c 2,6,-1
 715 -126 l 2,7,8
 715 -320 715 -320 502 -410 c 1,9,-1
 502 -221 l 1,10,11
 568 -158 568 -158 568 -92 c 0,12,13
 568 -55 568 -55 543 -18 c 1,14,15
 407 -5 407 -5 302 65 c 0,16,17
 150 166 150 166 150 334 c 2,18,-1
 150 1166 l 2,19,20
 150 1333 150 1333 302 1435 c 0,21,22
 428 1520 428 1520 600 1520 c 0,23,24
 759 1520 759 1520 890 1428 c 0,25,26
 1050 1316 1050 1316 1050 1166 c 1,27,-1
 870 1166 l 1,28,29
 870 1250 870 1250 779 1313 c 0,30,31
 701 1366 701 1366 601 1367 c 0,32,33
 506 1367 506 1367 430 1320 c 0,34,35
 330 1258 330 1258 330 1166 c 2,36,-1
 330 334 l 2,37,38
 330 242 330 242 430 180 c 0,39,40
 506 133 506 133 601 133 c 0,41,42
 701 134 701 134 779 187 c 0,43,44
 870 250 870 250 870 334 c 1,45,-1
 1050 334 l 1,0,1
EndSplineSet
Validated: 1
EndChar

StartChar: Egrave
Encoding: 200 200 138
Width: 1200
GlyphClass: 2
Flags: W
HStem: 0 160<366 1014> 670 160<366 821> 1340 160<366 946>
VStem: 186 180<160 670 830 1340>
CounterMasks: 1 e0
LayerCount: 2
Fore
SplineSet
186 0 m 1,0,-1
 186 1500 l 1,1,-1
 946 1500 l 1,2,-1
 946 1340 l 1,3,-1
 366 1340 l 1,4,-1
 366 830 l 1,5,-1
 821 830 l 1,6,-1
 821 670 l 1,7,-1
 366 670 l 1,8,-1
 366 160 l 1,9,-1
 1014 160 l 1,10,-1
 1014 0 l 1,11,-1
 186 0 l 1,0,-1
500 1930 m 1,12,-1
 660 1616 l 1,13,-1
 550 1552 l 1,14,-1
 338 1836 l 1,15,-1
 500 1930 l 1,12,-1
EndSplineSet
Validated: 1
EndChar

StartChar: Eacute
Encoding: 201 201 139
Width: 1200
GlyphClass: 2
Flags: W
HStem: 0 160<366 1014> 670 160<366 821> 1340 160<366 946>
VStem: 186 180<160 670 830 1340>
CounterMasks: 1 e0
LayerCount: 2
Fore
SplineSet
186 0 m 1,0,-1
 186 1500 l 1,1,-1
 946 1500 l 1,2,-1
 946 1340 l 1,3,-1
 366 1340 l 1,4,-1
 366 830 l 1,5,-1
 821 830 l 1,6,-1
 821 670 l 1,7,-1
 366 670 l 1,8,-1
 366 160 l 1,9,-1
 1014 160 l 1,10,-1
 1014 0 l 1,11,-1
 186 0 l 1,0,-1
706 1930 m 1,12,-1
 868 1836 l 1,13,-1
 656 1552 l 1,14,-1
 546 1616 l 1,15,-1
 706 1930 l 1,12,-1
EndSplineSet
Validated: 1
EndChar

StartChar: Ecircumflex
Encoding: 202 202 140
Width: 1200
GlyphClass: 2
Flags: W
HStem: 0 160<366 1014> 670 160<366 821> 1340 160<366 946>
VStem: 186 180<160 670 830 1340>
CounterMasks: 1 e0
LayerCount: 2
Fore
SplineSet
186 0 m 1,0,-1
 186 1500 l 1,1,-1
 946 1500 l 1,2,-1
 946 1340 l 1,3,-1
 366 1340 l 1,4,-1
 366 830 l 1,5,-1
 821 830 l 1,6,-1
 821 670 l 1,7,-1
 366 670 l 1,8,-1
 366 160 l 1,9,-1
 1014 160 l 1,10,-1
 1014 0 l 1,11,-1
 186 0 l 1,0,-1
338 1646 m 1,12,-1
 550 1930 l 1,13,-1
 656 1930 l 1,14,-1
 868 1646 l 1,15,-1
 757 1574 l 1,16,-1
 603 1726 l 1,17,-1
 447 1574 l 1,18,-1
 338 1646 l 1,12,-1
EndSplineSet
Validated: 1
EndChar

StartChar: Edieresis
Encoding: 203 203 141
Width: 1200
GlyphClass: 2
Flags: W
HStem: 0 160<366 1014> 670 160<366 821> 1340 160<366 946> 1620 261<344.277 537.856 659.277 852.856>
VStem: 186 180<160 670 830 1340> 310 261<1654.28 1846.72> 625 261<1654.28 1846.72>
LayerCount: 2
Fore
SplineSet
186 0 m 1,0,-1
 186 1500 l 1,1,-1
 946 1500 l 1,2,-1
 946 1340 l 1,3,-1
 366 1340 l 1,4,-1
 366 830 l 1,5,-1
 821 830 l 1,6,-1
 821 670 l 1,7,-1
 366 670 l 1,8,-1
 366 160 l 1,9,-1
 1014 160 l 1,10,-1
 1014 0 l 1,11,-1
 186 0 l 1,0,-1
625 1750 m 128,-1,13
 625 1803 625 1803 664 1842 c 128,-1,14
 703 1881 703 1881 756 1881 c 0,15,16
 806 1881 806 1881 847 1842 c 0,17,18
 886 1805 886 1805 886 1750 c 0,19,20
 886 1697 886 1697 847 1659 c 0,21,22
 807 1620 807 1620 757 1620 c 0,23,24
 756 1620 756 1620 755 1620 c 0,25,26
 705 1620 705 1620 664 1659 c 0,27,12
 625 1697 625 1697 625 1750 c 128,-1,13
310 1750 m 128,-1,29
 310 1803 310 1803 349 1842 c 128,-1,30
 388 1881 388 1881 441 1881 c 0,31,32
 491 1881 491 1881 532 1842 c 0,33,34
 571 1805 571 1805 571 1750 c 0,35,36
 571 1697 571 1697 532 1659 c 0,37,38
 492 1620 492 1620 442 1620 c 0,39,40
 441 1620 441 1620 440 1620 c 0,41,42
 390 1620 390 1620 350 1659 c 0,43,28
 310 1697 310 1697 310 1750 c 128,-1,29
EndSplineSet
Validated: 1
EndChar

StartChar: Igrave
Encoding: 204 204 142
Width: 1200
GlyphClass: 2
Flags: W
HStem: 0 160<186 510 690 1014> 1340 160<186 510 690 1014>
VStem: 510 180<160 1340>
LayerCount: 2
Fore
SplineSet
500 1930 m 1,0,-1
 660 1616 l 1,1,-1
 550 1552 l 1,2,-1
 338 1836 l 1,3,-1
 500 1930 l 1,0,-1
186 0 m 1,4,-1
 186 160 l 1,5,-1
 510 160 l 1,6,-1
 510 1340 l 1,7,-1
 186 1340 l 1,8,-1
 186 1500 l 1,9,-1
 1014 1500 l 1,10,-1
 1014 1340 l 1,11,-1
 690 1340 l 1,12,-1
 690 160 l 1,13,-1
 1014 160 l 1,14,-1
 1014 0 l 1,15,-1
 186 0 l 1,4,-1
EndSplineSet
Validated: 1
EndChar

StartChar: Iacute
Encoding: 205 205 143
Width: 1200
GlyphClass: 2
Flags: W
HStem: 0 160<186 510 690 1014> 1340 160<186 510 690 1014>
VStem: 510 180<160 1340>
LayerCount: 2
Fore
SplineSet
706 1930 m 1,0,-1
 868 1836 l 1,1,-1
 656 1552 l 1,2,-1
 546 1616 l 1,3,-1
 706 1930 l 1,0,-1
186 0 m 1,4,-1
 186 160 l 1,5,-1
 510 160 l 1,6,-1
 510 1340 l 1,7,-1
 186 1340 l 1,8,-1
 186 1500 l 1,9,-1
 1014 1500 l 1,10,-1
 1014 1340 l 1,11,-1
 690 1340 l 1,12,-1
 690 160 l 1,13,-1
 1014 160 l 1,14,-1
 1014 0 l 1,15,-1
 186 0 l 1,4,-1
EndSplineSet
Validated: 1
EndChar

StartChar: Icircumflex
Encoding: 206 206 144
Width: 1200
GlyphClass: 2
Flags: W
HStem: 0 160<186 510 690 1014> 1340 160<186 510 690 1014>
VStem: 510 180<160 1340>
LayerCount: 2
Fore
SplineSet
338 1646 m 1,0,-1
 550 1930 l 1,1,-1
 656 1930 l 1,2,-1
 868 1646 l 1,3,-1
 757 1574 l 1,4,-1
 603 1726 l 1,5,-1
 447 1574 l 1,6,-1
 338 1646 l 1,0,-1
186 0 m 1,7,-1
 186 160 l 1,8,-1
 510 160 l 1,9,-1
 510 1340 l 1,10,-1
 186 1340 l 1,11,-1
 186 1500 l 1,12,-1
 1014 1500 l 1,13,-1
 1014 1340 l 1,14,-1
 690 1340 l 1,15,-1
 690 160 l 1,16,-1
 1014 160 l 1,17,-1
 1014 0 l 1,18,-1
 186 0 l 1,7,-1
EndSplineSet
Validated: 1
EndChar

StartChar: Idieresis
Encoding: 207 207 145
Width: 1200
GlyphClass: 2
Flags: W
HStem: 0 160<186 510 690 1014> 1340 160<186 510 690 1014> 1620 261<344.277 537.856 659.277 852.856>
VStem: 310 261<1654.28 1846.72> 510 180<160 1340> 625 261<1654.28 1846.72>
LayerCount: 2
Fore
SplineSet
625 1750 m 128,-1,1
 625 1803 625 1803 664 1842 c 128,-1,2
 703 1881 703 1881 756 1881 c 0,3,4
 806 1881 806 1881 847 1842 c 0,5,6
 886 1805 886 1805 886 1750 c 0,7,8
 886 1697 886 1697 847 1659 c 0,9,10
 807 1620 807 1620 757 1620 c 0,11,12
 756 1620 756 1620 755 1620 c 0,13,14
 705 1620 705 1620 664 1659 c 0,15,0
 625 1697 625 1697 625 1750 c 128,-1,1
310 1750 m 128,-1,17
 310 1803 310 1803 349 1842 c 128,-1,18
 388 1881 388 1881 441 1881 c 0,19,20
 491 1881 491 1881 532 1842 c 0,21,22
 571 1805 571 1805 571 1750 c 0,23,24
 571 1697 571 1697 532 1659 c 0,25,26
 492 1620 492 1620 442 1620 c 0,27,28
 441 1620 441 1620 440 1620 c 0,29,30
 390 1620 390 1620 350 1659 c 0,31,16
 310 1697 310 1697 310 1750 c 128,-1,17
186 0 m 1,32,-1
 186 160 l 1,33,-1
 510 160 l 1,34,-1
 510 1340 l 1,35,-1
 186 1340 l 1,36,-1
 186 1500 l 1,37,-1
 1014 1500 l 1,38,-1
 1014 1340 l 1,39,-1
 690 1340 l 1,40,-1
 690 160 l 1,41,-1
 1014 160 l 1,42,-1
 1014 0 l 1,43,-1
 186 0 l 1,32,-1
EndSplineSet
Validated: 1
EndChar

StartChar: Eth
Encoding: 208 208 146
Width: 1200
GlyphClass: 2
Flags: W
HStem: 0 153<329 761.533> 670 160<80 150 330 686> 1347 153<330 761.533>
VStem: 150 179<153 670 830 1347> 870 180<246.844 1253.16>
CounterMasks: 1 e0
LayerCount: 2
Fore
SplineSet
150 0 m 1,0,-1
 150 670 l 1,1,-1
 80 670 l 1,2,-1
 80 830 l 1,3,-1
 150 830 l 1,4,-1
 150 1500 l 1,5,-1
 600 1500 l 1,6,7
 760 1499 760 1499 890 1408 c 0,8,9
 1050 1296 1050 1296 1050 1146 c 2,10,-1
 1050 354 l 2,11,12
 1050 204 1050 204 890 92 c 0,13,14
 760 1 760 1 600 0 c 1,15,-1
 150 0 l 1,0,-1
329 153 m 1,16,-1
 601 153 l 1,17,18
 701 154 701 154 779 207 c 0,19,20
 870 270 870 270 870 354 c 2,21,-1
 870 1146 l 2,22,23
 870 1230 870 1230 779 1293 c 0,24,25
 701 1346 701 1346 601 1347 c 1,26,-1
 330 1347 l 1,27,-1
 330 830 l 1,28,-1
 686 830 l 1,29,-1
 686 670 l 1,30,-1
 329 670 l 1,31,-1
 329 153 l 1,16,-1
EndSplineSet
Validated: 1
EndChar

StartChar: Ntilde
Encoding: 209 209 147
Width: 1200
GlyphClass: 2
Flags: W
HStem: 0 21G<150 330 836.5 1050> 1480 20G<150 417 870 1050> 1616 138<641.278 721.485> 1750 134<474.136 556.447>
VStem: 150 180<0 1244> 359 103<1657 1745.45> 734 103<1754.55 1842> 870 180<0 201.842 632 1500>
LayerCount: 2
Fore
SplineSet
359 1657 m 1,0,1
 384 1884 384 1884 512 1884 c 0,2,3
 589 1884 589 1884 631 1814 c 0,4,5
 667 1754 667 1754 686 1754 c 2,6,-1
 687 1754 l 1,7,8
 720 1757 720 1757 734 1842 c 1,9,-1
 837 1843 l 1,10,11
 812 1616 812 1616 684 1616 c 0,12,13
 607 1616 607 1616 564 1693 c 0,14,15
 532 1750 532 1750 512 1750 c 0,16,17
 478 1750 478 1750 462 1657 c 1,18,-1
 359 1657 l 1,0,1
150 0 m 1,19,-1
 150 1500 l 1,20,-1
 330 1500 l 1,21,22
 504 1326 504 1326 626 1130 c 0,23,24
 772 895 772 895 870 632 c 1,25,-1
 870 1500 l 1,26,-1
 1050 1500 l 1,27,-1
 1050 0 l 1,28,-1
 870 0 l 1,29,30
 803 381 803 381 622 754 c 0,31,32
 473 1061 473 1061 330 1244 c 1,33,-1
 330 0 l 1,34,-1
 150 0 l 1,19,-1
EndSplineSet
Validated: 1
EndChar

StartChar: Ograve
Encoding: 210 210 148
Width: 1200
GlyphClass: 2
Flags: W
HStem: -20 153<435.062 762.608> 1367 153<438.182 764.608>
VStem: 150 180<226.868 1274.9> 870 180<226.844 1274.75>
LayerCount: 2
Fore
SplineSet
330 334 m 2,0,1
 330 242 330 242 430 180 c 0,2,3
 506 133 506 133 601 133 c 0,4,5
 701 134 701 134 779 187 c 0,6,7
 870 250 870 250 870 334 c 2,8,-1
 870 1168 l 2,9,10
 870 1252 870 1252 781 1313 c 0,11,12
 703 1366 703 1366 603 1367 c 0,13,14
 512 1367 512 1367 432 1320 c 0,15,16
 330 1260 330 1260 330 1168 c 2,17,-1
 330 334 l 2,0,1
150 334 m 2,18,19
 150 334 150 334 150 1168 c 0,20,21
 150 1335 150 1335 304 1435 c 0,22,23
 435 1520 435 1520 602 1520 c 0,24,25
 761 1520 761 1520 892 1428 c 0,26,27
 1050 1318 1050 1318 1050 1168 c 2,28,-1
 1050 334 l 2,29,30
 1050 184 1050 184 890 72 c 0,31,32
 759 -20 759 -20 600 -20 c 0,33,34
 429 -20 429 -20 302 65 c 0,35,36
 150 167 150 167 150 334 c 2,18,19
500 1930 m 1,37,-1
 660 1616 l 1,38,-1
 550 1552 l 1,39,-1
 338 1836 l 1,40,-1
 500 1930 l 1,37,-1
EndSplineSet
Validated: 1
EndChar

StartChar: Oacute
Encoding: 211 211 149
Width: 1200
GlyphClass: 2
Flags: W
HStem: -20 153<435.062 762.608> 1367 153<438.182 764.608>
VStem: 150 180<226.868 1274.9> 870 180<226.844 1274.75>
LayerCount: 2
Fore
SplineSet
330 334 m 2,0,1
 330 242 330 242 430 180 c 0,2,3
 506 133 506 133 601 133 c 0,4,5
 701 134 701 134 779 187 c 0,6,7
 870 250 870 250 870 334 c 2,8,-1
 870 1168 l 2,9,10
 870 1252 870 1252 781 1313 c 0,11,12
 703 1366 703 1366 603 1367 c 0,13,14
 512 1367 512 1367 432 1320 c 0,15,16
 330 1260 330 1260 330 1168 c 2,17,-1
 330 334 l 2,0,1
150 334 m 2,18,19
 150 334 150 334 150 1168 c 0,20,21
 150 1335 150 1335 304 1435 c 0,22,23
 435 1520 435 1520 602 1520 c 0,24,25
 761 1520 761 1520 892 1428 c 0,26,27
 1050 1318 1050 1318 1050 1168 c 2,28,-1
 1050 334 l 2,29,30
 1050 184 1050 184 890 72 c 0,31,32
 759 -20 759 -20 600 -20 c 0,33,34
 429 -20 429 -20 302 65 c 0,35,36
 150 167 150 167 150 334 c 2,18,19
706 1930 m 1,37,-1
 868 1836 l 1,38,-1
 656 1552 l 1,39,-1
 546 1616 l 1,40,-1
 706 1930 l 1,37,-1
EndSplineSet
Validated: 1
EndChar

StartChar: Ocircumflex
Encoding: 212 212 150
Width: 1200
GlyphClass: 2
Flags: W
HStem: -20 153<435.062 762.608> 1367 153<438.182 764.608>
VStem: 150 180<226.868 1274.9> 870 180<226.844 1274.75>
LayerCount: 2
Fore
SplineSet
330 334 m 2,0,1
 330 242 330 242 430 180 c 0,2,3
 506 133 506 133 601 133 c 0,4,5
 701 134 701 134 779 187 c 0,6,7
 870 250 870 250 870 334 c 2,8,-1
 870 1168 l 2,9,10
 870 1252 870 1252 781 1313 c 0,11,12
 703 1366 703 1366 603 1367 c 0,13,14
 512 1367 512 1367 432 1320 c 0,15,16
 330 1260 330 1260 330 1168 c 2,17,-1
 330 334 l 2,0,1
150 334 m 2,18,19
 150 334 150 334 150 1168 c 0,20,21
 150 1335 150 1335 304 1435 c 0,22,23
 435 1520 435 1520 602 1520 c 0,24,25
 761 1520 761 1520 892 1428 c 0,26,27
 1050 1318 1050 1318 1050 1168 c 2,28,-1
 1050 334 l 2,29,30
 1050 184 1050 184 890 72 c 0,31,32
 759 -20 759 -20 600 -20 c 0,33,34
 429 -20 429 -20 302 65 c 0,35,36
 150 167 150 167 150 334 c 2,18,19
338 1646 m 1,37,-1
 550 1930 l 1,38,-1
 656 1930 l 1,39,-1
 868 1646 l 1,40,-1
 757 1574 l 1,41,-1
 603 1726 l 1,42,-1
 447 1574 l 1,43,-1
 338 1646 l 1,37,-1
EndSplineSet
Validated: 1
EndChar

StartChar: Otilde
Encoding: 213 213 151
Width: 1200
GlyphClass: 2
Flags: W
HStem: -20 153<435.062 762.608> 1367 153<438.182 764.608> 1616 138<641.278 721.485> 1750 134<474.136 556.447>
VStem: 150 180<226.868 1274.9> 359 103<1657 1745.45> 734 103<1754.55 1842> 870 180<226.844 1274.75>
LayerCount: 2
Fore
SplineSet
330 334 m 2,0,1
 330 242 330 242 430 180 c 0,2,3
 506 133 506 133 601 133 c 0,4,5
 701 134 701 134 779 187 c 0,6,7
 870 250 870 250 870 334 c 2,8,-1
 870 1168 l 2,9,10
 870 1252 870 1252 781 1313 c 0,11,12
 703 1366 703 1366 603 1367 c 0,13,14
 512 1367 512 1367 432 1320 c 0,15,16
 330 1260 330 1260 330 1168 c 2,17,-1
 330 334 l 2,0,1
150 334 m 2,18,19
 150 334 150 334 150 1168 c 0,20,21
 150 1335 150 1335 304 1435 c 0,22,23
 435 1520 435 1520 602 1520 c 0,24,25
 761 1520 761 1520 892 1428 c 0,26,27
 1050 1318 1050 1318 1050 1168 c 2,28,-1
 1050 334 l 2,29,30
 1050 184 1050 184 890 72 c 0,31,32
 759 -20 759 -20 600 -20 c 0,33,34
 429 -20 429 -20 302 65 c 0,35,36
 150 167 150 167 150 334 c 2,18,19
359 1657 m 1,37,38
 384 1884 384 1884 512 1884 c 0,39,40
 589 1884 589 1884 631 1814 c 0,41,42
 667 1754 667 1754 686 1754 c 2,43,-1
 687 1754 l 1,44,45
 720 1757 720 1757 734 1842 c 1,46,-1
 837 1843 l 1,47,48
 812 1616 812 1616 684 1616 c 0,49,50
 607 1616 607 1616 564 1693 c 0,51,52
 532 1750 532 1750 512 1750 c 0,53,54
 478 1750 478 1750 462 1657 c 1,55,-1
 359 1657 l 1,37,38
EndSplineSet
Validated: 1
EndChar

StartChar: Odieresis
Encoding: 214 214 152
Width: 1200
GlyphClass: 2
Flags: W
HStem: -20 153<435.062 762.608> 1367 153<438.182 764.608> 1620 261<344.277 537.856 659.277 852.856>
VStem: 150 180<226.868 1274.9> 310 261<1654.28 1846.72> 625 261<1654.28 1846.72> 870 180<226.844 1274.75>
LayerCount: 2
Fore
SplineSet
330 334 m 2,0,1
 330 242 330 242 430 180 c 0,2,3
 506 133 506 133 601 133 c 0,4,5
 701 134 701 134 779 187 c 0,6,7
 870 250 870 250 870 334 c 2,8,-1
 870 1168 l 2,9,10
 870 1252 870 1252 781 1313 c 0,11,12
 703 1366 703 1366 603 1367 c 0,13,14
 512 1367 512 1367 432 1320 c 0,15,16
 330 1260 330 1260 330 1168 c 2,17,-1
 330 334 l 2,0,1
150 334 m 2,18,19
 150 334 150 334 150 1168 c 0,20,21
 150 1335 150 1335 304 1435 c 0,22,23
 435 1520 435 1520 602 1520 c 0,24,25
 761 1520 761 1520 892 1428 c 0,26,27
 1050 1318 1050 1318 1050 1168 c 2,28,-1
 1050 334 l 2,29,30
 1050 184 1050 184 890 72 c 0,31,32
 759 -20 759 -20 600 -20 c 0,33,34
 429 -20 429 -20 302 65 c 0,35,36
 150 167 150 167 150 334 c 2,18,19
625 1750 m 128,-1,38
 625 1803 625 1803 664 1842 c 128,-1,39
 703 1881 703 1881 756 1881 c 0,40,41
 806 1881 806 1881 847 1842 c 0,42,43
 886 1805 886 1805 886 1750 c 0,44,45
 886 1697 886 1697 847 1659 c 0,46,47
 807 1620 807 1620 757 1620 c 0,48,49
 756 1620 756 1620 755 1620 c 0,50,51
 705 1620 705 1620 664 1659 c 0,52,37
 625 1697 625 1697 625 1750 c 128,-1,38
310 1750 m 128,-1,54
 310 1803 310 1803 349 1842 c 128,-1,55
 388 1881 388 1881 441 1881 c 0,56,57
 491 1881 491 1881 532 1842 c 0,58,59
 571 1805 571 1805 571 1750 c 0,60,61
 571 1697 571 1697 532 1659 c 0,62,63
 492 1620 492 1620 442 1620 c 0,64,65
 441 1620 441 1620 440 1620 c 0,66,67
 390 1620 390 1620 350 1659 c 0,68,53
 310 1697 310 1697 310 1750 c 128,-1,54
EndSplineSet
Validated: 1
EndChar

StartChar: multiply
Encoding: 215 215 153
Width: 1200
GlyphClass: 2
Flags: W
HStem: 637 226<487 713> 1079 20G<344 384 816 856>
VStem: 487 226<637 863>
DStem2: 364 1099 251 986 0.707107 -0.707107<0 333.754 493.561 827.315> 251 514 364 401 0.707107 0.707107<0 333.754 493.561 827.315>
LayerCount: 2
Fore
SplineSet
364 401 m 1,0,-1
 251 514 l 1,1,-1
 487 750 l 1,2,-1
 251 986 l 1,3,-1
 364 1099 l 1,4,-1
 600 863 l 1,5,-1
 836 1099 l 1,6,-1
 949 986 l 1,7,-1
 713 750 l 1,8,-1
 949 514 l 1,9,-1
 836 401 l 1,10,-1
 600 637 l 1,11,-1
 364 401 l 1,0,-1
EndSplineSet
Validated: 1
EndChar

StartChar: Oslash
Encoding: 216 216 154
Width: 1200
GlyphClass: 2
Flags: W
HStem: -20 153<436.074 762.608> 0 21G<100 309.8> 1367 153<438.182 767.495> 1480 20G<892.31 1100>
VStem: 150 180<430 1274.9> 870 180<226.844 1069>
DStem2: 100 0 299 0 0.47196 0.88162<93.9201 150.744 487.647 1305.86 1635.65 1701.41>
LayerCount: 2
Fore
SplineSet
100 0 m 1,0,-1
 193 174 l 1,1,2
 150 245 150 245 150 334 c 2,3,-1
 150 1168 l 2,4,5
 150 1335 150 1335 304 1435 c 0,6,7
 435 1520 435 1520 602 1520 c 0,8,9
 748 1520 748 1520 872 1442 c 1,10,-1
 903 1500 l 1,11,-1
 1100 1500 l 1,12,-1
 1003 1319 l 1,13,14
 1050 1249 1050 1249 1050 1168 c 2,15,-1
 1050 334 l 2,16,17
 1050 184 1050 184 890 72 c 0,18,19
 759 -20 759 -20 600 -20 c 0,20,21
 445 -20 445 -20 326 50 c 1,22,-1
 299 0 l 1,23,-1
 100 0 l 1,0,-1
330 430 m 1,24,-1
 797 1301 l 1,25,26
 789 1307 789 1307 781 1313 c 0,27,28
 710 1366 710 1366 603 1367 c 0,29,30
 512 1367 512 1367 432 1320 c 0,31,32
 330 1260 330 1260 330 1168 c 2,33,-1
 330 430 l 1,24,-1
870 1069 m 1,34,-1
 404 198 l 1,35,36
 416 188 416 188 430 180 c 0,37,38
 512 133 512 133 601 133 c 0,39,40
 701 134 701 134 779 187 c 0,41,42
 870 250 870 250 870 334 c 2,43,-1
 870 1069 l 1,34,-1
EndSplineSet
Validated: 1
EndChar

StartChar: Ugrave
Encoding: 217 217 155
Width: 1200
GlyphClass: 2
Flags: W
HStem: -20 153<434.812 762.608> 1480 20G<150 330 870 1050>
VStem: 150 180<226.868 1500> 870 180<226.844 1500>
LayerCount: 2
Fore
SplineSet
150 1500 m 1,0,-1
 330 1500 l 1,1,-1
 330 334 l 2,2,3
 330 242 330 242 430 180 c 0,4,5
 506 133 506 133 601 133 c 0,6,7
 701 134 701 134 779 187 c 0,8,9
 870 250 870 250 870 334 c 2,10,-1
 870 1500 l 1,11,-1
 1050 1500 l 1,12,-1
 1050 334 l 2,13,14
 1050 184 1050 184 890 72 c 0,15,16
 759 -20 759 -20 600 -20 c 0,17,18
 428 -20 428 -20 302 65 c 0,19,20
 150 167 150 167 150 334 c 2,21,-1
 150 1500 l 1,0,-1
500 1930 m 1,22,-1
 660 1616 l 1,23,-1
 550 1552 l 1,24,-1
 338 1836 l 1,25,-1
 500 1930 l 1,22,-1
EndSplineSet
Validated: 1
EndChar

StartChar: Uacute
Encoding: 218 218 156
Width: 1200
GlyphClass: 2
Flags: W
HStem: -20 153<434.812 762.608> 1480 20G<150 330 870 1050>
VStem: 150 180<226.868 1500> 870 180<226.844 1500>
LayerCount: 2
Fore
SplineSet
150 1500 m 1,0,-1
 330 1500 l 1,1,-1
 330 334 l 2,2,3
 330 242 330 242 430 180 c 0,4,5
 506 133 506 133 601 133 c 0,6,7
 701 134 701 134 779 187 c 0,8,9
 870 250 870 250 870 334 c 2,10,-1
 870 1500 l 1,11,-1
 1050 1500 l 1,12,-1
 1050 334 l 2,13,14
 1050 184 1050 184 890 72 c 0,15,16
 759 -20 759 -20 600 -20 c 0,17,18
 428 -20 428 -20 302 65 c 0,19,20
 150 167 150 167 150 334 c 2,21,-1
 150 1500 l 1,0,-1
706 1930 m 1,22,-1
 868 1836 l 1,23,-1
 656 1552 l 1,24,-1
 546 1616 l 1,25,-1
 706 1930 l 1,22,-1
EndSplineSet
Validated: 1
EndChar

StartChar: Ucircumflex
Encoding: 219 219 157
Width: 1200
GlyphClass: 2
Flags: W
HStem: -20 153<434.812 762.608> 1480 20G<150 330 870 1050>
VStem: 150 180<226.868 1500> 870 180<226.844 1500>
LayerCount: 2
Fore
SplineSet
150 1500 m 1,0,-1
 330 1500 l 1,1,-1
 330 334 l 2,2,3
 330 242 330 242 430 180 c 0,4,5
 506 133 506 133 601 133 c 0,6,7
 701 134 701 134 779 187 c 0,8,9
 870 250 870 250 870 334 c 2,10,-1
 870 1500 l 1,11,-1
 1050 1500 l 1,12,-1
 1050 334 l 2,13,14
 1050 184 1050 184 890 72 c 0,15,16
 759 -20 759 -20 600 -20 c 0,17,18
 428 -20 428 -20 302 65 c 0,19,20
 150 167 150 167 150 334 c 2,21,-1
 150 1500 l 1,0,-1
338 1646 m 1,22,-1
 550 1930 l 1,23,-1
 656 1930 l 1,24,-1
 868 1646 l 1,25,-1
 757 1574 l 1,26,-1
 603 1726 l 1,27,-1
 447 1574 l 1,28,-1
 338 1646 l 1,22,-1
EndSplineSet
Validated: 1
EndChar

StartChar: Udieresis
Encoding: 220 220 158
Width: 1200
GlyphClass: 2
Flags: W
HStem: -20 153<434.812 762.608> 1480 20G<150 330 870 1050> 1620 261<344.277 537.856 659.277 852.856>
VStem: 150 180<226.868 1500> 310 261<1654.28 1846.72> 625 261<1654.28 1846.72> 870 180<226.844 1500>
LayerCount: 2
Fore
SplineSet
150 1500 m 1,0,-1
 330 1500 l 1,1,-1
 330 334 l 2,2,3
 330 242 330 242 430 180 c 0,4,5
 506 133 506 133 601 133 c 0,6,7
 701 134 701 134 779 187 c 0,8,9
 870 250 870 250 870 334 c 2,10,-1
 870 1500 l 1,11,-1
 1050 1500 l 1,12,-1
 1050 334 l 2,13,14
 1050 184 1050 184 890 72 c 0,15,16
 759 -20 759 -20 600 -20 c 0,17,18
 428 -20 428 -20 302 65 c 0,19,20
 150 167 150 167 150 334 c 2,21,-1
 150 1500 l 1,0,-1
625 1750 m 128,-1,23
 625 1803 625 1803 664 1842 c 128,-1,24
 703 1881 703 1881 756 1881 c 0,25,26
 806 1881 806 1881 847 1842 c 0,27,28
 886 1805 886 1805 886 1750 c 0,29,30
 886 1697 886 1697 847 1659 c 0,31,32
 807 1620 807 1620 757 1620 c 0,33,34
 756 1620 756 1620 755 1620 c 0,35,36
 705 1620 705 1620 664 1659 c 0,37,22
 625 1697 625 1697 625 1750 c 128,-1,23
310 1750 m 128,-1,39
 310 1803 310 1803 349 1842 c 128,-1,40
 388 1881 388 1881 441 1881 c 0,41,42
 491 1881 491 1881 532 1842 c 0,43,44
 571 1805 571 1805 571 1750 c 0,45,46
 571 1697 571 1697 532 1659 c 0,47,48
 492 1620 492 1620 442 1620 c 0,49,50
 441 1620 441 1620 440 1620 c 0,51,52
 390 1620 390 1620 350 1659 c 0,53,38
 310 1697 310 1697 310 1750 c 128,-1,39
EndSplineSet
Validated: 1
EndChar

StartChar: Yacute
Encoding: 221 221 159
Width: 1200
GlyphClass: 2
Flags: W
HStem: 0 21G<510 690> 1480 20G<100 356.5 843.5 1100>
VStem: 100 180<1320 1500> 510 180<0 592> 920 180<1320 1500>
CounterMasks: 1 38
LayerCount: 2
Fore
SplineSet
706 1930 m 1,0,-1
 868 1836 l 1,1,-1
 656 1552 l 1,2,-1
 546 1616 l 1,3,-1
 706 1930 l 1,0,-1
510 0 m 1,4,-1
 510 592 l 1,5,-1
 446 712 l 1,6,7
 259 1070 259 1070 100 1500 c 1,8,-1
 280 1500 l 1,9,10
 433 1104 433 1104 600 789 c 1,11,12
 767 1104 767 1104 920 1500 c 1,13,-1
 1100 1500 l 1,14,15
 941 1070 941 1070 754 712 c 1,16,-1
 690 592 l 1,17,-1
 690 0 l 1,18,-1
 510 0 l 1,4,-1
EndSplineSet
Validated: 1
EndChar

StartChar: Thorn
Encoding: 222 222 160
Width: 1200
GlyphClass: 2
Flags: W
HStem: 0 21G<150 330> 263 153<330 761.035> 1097 153<330 760.533> 1480 20G<150 330>
VStem: 150 180<0 263 416 1097 1250 1500> 870 180<509.375 1001.57>
LayerCount: 2
Fore
SplineSet
330 416 m 1,0,-1
 601 416 l 1,1,2
 701 417 701 417 779 470 c 0,3,4
 870 533 870 533 870 617 c 2,5,-1
 870 896 l 2,6,7
 870 980 870 980 778 1043 c 0,8,9
 701 1096 701 1096 600 1097 c 1,10,-1
 330 1097 l 1,11,-1
 330 416 l 1,0,-1
150 0 m 1,12,-1
 150 1500 l 1,13,-1
 330 1500 l 1,14,-1
 330 1250 l 1,15,-1
 599 1250 l 1,16,17
 759 1249 759 1249 889 1158 c 0,18,19
 1050 1046 1050 1046 1050 896 c 2,20,-1
 1050 617 l 2,21,22
 1050 466 1050 466 890 355 c 0,23,24
 759 264 759 264 600 263 c 1,25,-1
 330 263 l 1,26,-1
 330 0 l 1,27,-1
 150 0 l 1,12,-1
EndSplineSet
Validated: 1
EndChar

StartChar: germandbls
Encoding: 223 223 161
Width: 1200
GlyphClass: 2
Flags: W
HStem: -20 153<601 764.182> 0 21G<209 389> 746 153<461 746.081> 1367 153<458.738 731.942>
VStem: 209 180<0 1299.54> 810 180<961.252 1290.44> 870 180<226.375 649.286>
LayerCount: 2
Fore
SplineSet
209 0 m 1,0,-1
 209 1206 l 2,1,2
 209 1331 209 1331 331 1429 c 0,3,4
 445 1520 445 1520 600 1520 c 1,5,6
 742 1519 742 1519 857 1432 c 1,7,8
 990 1335 990 1335 990 1186 c 2,9,-1
 990 1070 l 2,10,11
 990 926 990 926 851 832 c 1,12,13
 871 820 871 820 890 807 c 0,14,15
 1050 698 1050 698 1050 545 c 2,16,-1
 1050 334 l 2,17,18
 1050 183 1050 183 890 72 c 0,19,20
 758 -20 758 -20 600 -20 c 1,21,-1
 601 133 l 1,22,23
 701 134 701 134 779 187 c 0,24,25
 870 249 870 249 870 334 c 2,26,-1
 870 545 l 2,27,28
 870 629 870 629 779 692 c 0,29,30
 700 746 700 746 601 746 c 2,31,-1
 461 746 l 1,32,-1
 461 899 l 1,33,-1
 601 899 l 2,34,35
 695 899 695 899 751 946 c 0,36,37
 810 996 810 996 810 1070 c 2,38,-1
 810 1186 l 2,39,40
 810 1253 810 1253 749 1309 c 0,41,42
 685 1367 685 1367 599 1367 c 0,43,44
 520 1367 520 1367 458 1322 c 0,45,46
 389 1272 389 1272 389 1206 c 2,47,-1
 389 0 l 1,48,-1
 209 0 l 1,0,-1
EndSplineSet
Validated: 1
EndChar

StartChar: agrave
Encoding: 224 224 162
Width: 1200
GlyphClass: 2
Flags: W
HStem: -20 153<448.809 751.899> 0 21G<834 1014> 537 153<449.121 834> 967 153<449.042 749.461>
VStem: 186 180<210.924 458.955> 834 180<0 64 209.854 537 690 888.992>
LayerCount: 2
Fore
SplineSet
245 963 m 1,0,1
 271 999 271 999 310 1028 c 0,2,3
 434 1120 434 1120 600 1120 c 0,4,5
 787 1120 787 1120 900 1026 c 0,6,7
 1014 932 1014 932 1014 766 c 2,8,-1
 1014 0 l 1,9,-1
 834 0 l 1,10,-1
 834 64 l 1,11,12
 730 -20 730 -20 600 -20 c 0,13,14
 425 -19 425 -19 310 72 c 0,15,16
 186 170 186 170 186 335 c 128,-1,17
 186 500 186 500 310 598 c 0,18,19
 425 689 425 689 600 690 c 1,20,-1
 834 690 l 1,21,-1
 834 766 l 2,22,23
 834 858 834 858 775 906 c 0,24,25
 700 967 700 967 605 967 c 0,26,27
 602 967 602 967 599 967 c 0,28,29
 496 967 496 967 425 906 c 0,30,31
 405 889 405 889 392 868 c 1,32,-1
 245 963 l 1,0,1
599 133 m 0,33,34
 702 133 702 133 775 195 c 0,35,36
 834 245 834 245 834 335 c 2,37,-1
 834 537 l 1,38,-1
 599 537 l 1,39,40
 496 535 496 535 425 475 c 0,41,42
 366 424 366 424 366 335 c 0,43,44
 366 245 366 245 425 195 c 0,45,46
 498 133 498 133 599 133 c 0,33,34
496 1528 m 1,47,-1
 656 1214 l 1,48,-1
 546 1150 l 1,49,-1
 334 1434 l 1,50,-1
 496 1528 l 1,47,-1
EndSplineSet
Validated: 1
EndChar

StartChar: aacute
Encoding: 225 225 163
Width: 1200
GlyphClass: 2
Flags: W
HStem: -20 153<448.809 751.899> 0 21G<834 1014> 537 153<449.121 834> 967 153<449.042 749.461>
VStem: 186 180<210.924 458.955> 834 180<0 64 209.854 537 690 888.992>
LayerCount: 2
Fore
SplineSet
245 963 m 1,0,1
 271 999 271 999 310 1028 c 0,2,3
 434 1120 434 1120 600 1120 c 0,4,5
 787 1120 787 1120 900 1026 c 0,6,7
 1014 932 1014 932 1014 766 c 2,8,-1
 1014 0 l 1,9,-1
 834 0 l 1,10,-1
 834 64 l 1,11,12
 730 -20 730 -20 600 -20 c 0,13,14
 425 -19 425 -19 310 72 c 0,15,16
 186 170 186 170 186 335 c 128,-1,17
 186 500 186 500 310 598 c 0,18,19
 425 689 425 689 600 690 c 1,20,-1
 834 690 l 1,21,-1
 834 766 l 2,22,23
 834 858 834 858 775 906 c 0,24,25
 700 967 700 967 605 967 c 0,26,27
 602 967 602 967 599 967 c 0,28,29
 496 967 496 967 425 906 c 0,30,31
 405 889 405 889 392 868 c 1,32,-1
 245 963 l 1,0,1
599 133 m 0,33,34
 702 133 702 133 775 195 c 0,35,36
 834 245 834 245 834 335 c 2,37,-1
 834 537 l 1,38,-1
 599 537 l 1,39,40
 496 535 496 535 425 475 c 0,41,42
 366 424 366 424 366 335 c 0,43,44
 366 245 366 245 425 195 c 0,45,46
 498 133 498 133 599 133 c 0,33,34
706 1528 m 1,47,-1
 868 1434 l 1,48,-1
 656 1150 l 1,49,-1
 546 1214 l 1,50,-1
 706 1528 l 1,47,-1
EndSplineSet
Validated: 1
EndChar

StartChar: acircumflex
Encoding: 226 226 164
Width: 1200
GlyphClass: 2
Flags: W
HStem: -20 153<448.809 751.899> 0 21G<834 1014> 537 153<449.121 834> 967 153<449.042 749.461>
VStem: 186 180<210.924 458.955> 834 180<0 64 209.854 537 690 888.992>
LayerCount: 2
Fore
SplineSet
245 963 m 1,0,1
 271 999 271 999 310 1028 c 0,2,3
 434 1120 434 1120 600 1120 c 0,4,5
 787 1120 787 1120 900 1026 c 0,6,7
 1014 932 1014 932 1014 766 c 2,8,-1
 1014 0 l 1,9,-1
 834 0 l 1,10,-1
 834 64 l 1,11,12
 730 -20 730 -20 600 -20 c 0,13,14
 425 -19 425 -19 310 72 c 0,15,16
 186 170 186 170 186 335 c 128,-1,17
 186 500 186 500 310 598 c 0,18,19
 425 689 425 689 600 690 c 1,20,-1
 834 690 l 1,21,-1
 834 766 l 2,22,23
 834 858 834 858 775 906 c 0,24,25
 700 967 700 967 605 967 c 0,26,27
 602 967 602 967 599 967 c 0,28,29
 496 967 496 967 425 906 c 0,30,31
 405 889 405 889 392 868 c 1,32,-1
 245 963 l 1,0,1
599 133 m 0,33,34
 702 133 702 133 775 195 c 0,35,36
 834 245 834 245 834 335 c 2,37,-1
 834 537 l 1,38,-1
 599 537 l 1,39,40
 496 535 496 535 425 475 c 0,41,42
 366 424 366 424 366 335 c 0,43,44
 366 245 366 245 425 195 c 0,45,46
 498 133 498 133 599 133 c 0,33,34
338 1244 m 1,47,-1
 550 1528 l 1,48,-1
 656 1528 l 1,49,-1
 868 1244 l 1,50,-1
 757 1172 l 1,51,-1
 603 1324 l 1,52,-1
 447 1172 l 1,53,-1
 338 1244 l 1,47,-1
EndSplineSet
Validated: 1
EndChar

StartChar: atilde
Encoding: 227 227 165
Width: 1200
GlyphClass: 2
Flags: W
HStem: -20 153<448.809 751.899> 0 21G<834 1014> 537 153<449.121 834> 967 153<449.042 749.461> 1257 138<644.278 724.485> 1391 134<477.136 559.447>
VStem: 186 180<210.924 458.955> 362 103<1298 1386.45> 737 103<1395.55 1483> 834 180<0 64 209.854 537 690 888.992>
LayerCount: 2
Fore
SplineSet
245 963 m 1,0,1
 271 999 271 999 310 1028 c 0,2,3
 434 1120 434 1120 600 1120 c 0,4,5
 787 1120 787 1120 900 1026 c 0,6,7
 1014 932 1014 932 1014 766 c 2,8,-1
 1014 0 l 1,9,-1
 834 0 l 1,10,-1
 834 64 l 1,11,12
 730 -20 730 -20 600 -20 c 0,13,14
 425 -19 425 -19 310 72 c 0,15,16
 186 170 186 170 186 335 c 128,-1,17
 186 500 186 500 310 598 c 0,18,19
 425 689 425 689 600 690 c 1,20,-1
 834 690 l 1,21,-1
 834 766 l 2,22,23
 834 858 834 858 775 906 c 0,24,25
 700 967 700 967 605 967 c 0,26,27
 602 967 602 967 599 967 c 0,28,29
 496 967 496 967 425 906 c 0,30,31
 405 889 405 889 392 868 c 1,32,-1
 245 963 l 1,0,1
599 133 m 0,33,34
 702 133 702 133 775 195 c 0,35,36
 834 245 834 245 834 335 c 2,37,-1
 834 537 l 1,38,-1
 599 537 l 1,39,40
 496 535 496 535 425 475 c 0,41,42
 366 424 366 424 366 335 c 0,43,44
 366 245 366 245 425 195 c 0,45,46
 498 133 498 133 599 133 c 0,33,34
362 1298 m 1,47,48
 387 1525 387 1525 515 1525 c 0,49,50
 592 1525 592 1525 634 1455 c 0,51,52
 670 1395 670 1395 689 1395 c 2,53,-1
 690 1395 l 1,54,55
 723 1398 723 1398 737 1483 c 1,56,-1
 840 1484 l 1,57,58
 815 1257 815 1257 687 1257 c 0,59,60
 610 1257 610 1257 567 1334 c 0,61,62
 535 1391 535 1391 515 1391 c 0,63,64
 481 1391 481 1391 465 1298 c 1,65,-1
 362 1298 l 1,47,48
EndSplineSet
Validated: 1
EndChar

StartChar: adieresis
Encoding: 228 228 166
Width: 1200
GlyphClass: 2
Flags: W
HStem: -20 153<448.809 751.899> 0 21G<834 1014> 537 153<449.121 834> 967 153<449.042 749.461> 1259 261<346.277 539.856 661.277 854.856>
VStem: 186 180<210.924 458.955> 312 261<1293.28 1485.72> 627 261<1293.28 1485.72> 834 180<0 64 209.854 537 690 888.992>
LayerCount: 2
Fore
SplineSet
245 963 m 1,0,1
 271 999 271 999 310 1028 c 0,2,3
 434 1120 434 1120 600 1120 c 0,4,5
 787 1120 787 1120 900 1026 c 0,6,7
 1014 932 1014 932 1014 766 c 2,8,-1
 1014 0 l 1,9,-1
 834 0 l 1,10,-1
 834 64 l 1,11,12
 730 -20 730 -20 600 -20 c 0,13,14
 425 -19 425 -19 310 72 c 0,15,16
 186 170 186 170 186 335 c 128,-1,17
 186 500 186 500 310 598 c 0,18,19
 425 689 425 689 600 690 c 1,20,-1
 834 690 l 1,21,-1
 834 766 l 2,22,23
 834 858 834 858 775 906 c 0,24,25
 700 967 700 967 605 967 c 0,26,27
 602 967 602 967 599 967 c 0,28,29
 496 967 496 967 425 906 c 0,30,31
 405 889 405 889 392 868 c 1,32,-1
 245 963 l 1,0,1
599 133 m 0,33,34
 702 133 702 133 775 195 c 0,35,36
 834 245 834 245 834 335 c 2,37,-1
 834 537 l 1,38,-1
 599 537 l 1,39,40
 496 535 496 535 425 475 c 0,41,42
 366 424 366 424 366 335 c 0,43,44
 366 245 366 245 425 195 c 0,45,46
 498 133 498 133 599 133 c 0,33,34
627 1389 m 128,-1,48
 627 1442 627 1442 666 1481 c 128,-1,49
 705 1520 705 1520 758 1520 c 0,50,51
 808 1520 808 1520 849 1481 c 0,52,53
 888 1444 888 1444 888 1389 c 0,54,55
 888 1336 888 1336 849 1298 c 0,56,57
 809 1259 809 1259 759 1259 c 0,58,59
 758 1259 758 1259 757 1259 c 0,60,61
 707 1259 707 1259 666 1298 c 0,62,47
 627 1336 627 1336 627 1389 c 128,-1,48
312 1389 m 128,-1,64
 312 1442 312 1442 351 1481 c 128,-1,65
 390 1520 390 1520 443 1520 c 0,66,67
 493 1520 493 1520 534 1481 c 0,68,69
 573 1444 573 1444 573 1389 c 0,70,71
 573 1336 573 1336 534 1298 c 0,72,73
 494 1259 494 1259 444 1259 c 0,74,75
 443 1259 443 1259 442 1259 c 0,76,77
 392 1259 392 1259 352 1298 c 0,78,63
 312 1336 312 1336 312 1389 c 128,-1,64
EndSplineSet
Validated: 1
EndChar

StartChar: aring
Encoding: 229 229 167
Width: 1200
GlyphClass: 2
Flags: W
HStem: -20 153<448.809 751.899> 0 21G<834 1014> 537 153<449.121 834> 967 153<449.042 749.461> 1220 101<543.138 650.801> 1453 99<550.44 657.106>
VStem: 186 180<210.924 458.955> 429 110<1323.56 1441.69> 661 110<1331.99 1450.42> 834 180<0 64 209.854 537 690 888.992>
LayerCount: 2
Fore
SplineSet
245 963 m 1,0,1
 271 999 271 999 310 1028 c 0,2,3
 434 1120 434 1120 600 1120 c 0,4,5
 787 1120 787 1120 900 1026 c 0,6,7
 1014 932 1014 932 1014 766 c 2,8,-1
 1014 0 l 1,9,-1
 834 0 l 1,10,-1
 834 64 l 1,11,12
 730 -20 730 -20 600 -20 c 0,13,14
 425 -19 425 -19 310 72 c 0,15,16
 186 170 186 170 186 335 c 128,-1,17
 186 500 186 500 310 598 c 0,18,19
 425 689 425 689 600 690 c 1,20,-1
 834 690 l 1,21,-1
 834 766 l 2,22,23
 834 858 834 858 775 906 c 0,24,25
 700 967 700 967 605 967 c 0,26,27
 602 967 602 967 599 967 c 0,28,29
 496 967 496 967 425 906 c 0,30,31
 405 889 405 889 392 868 c 1,32,-1
 245 963 l 1,0,1
599 133 m 0,33,34
 702 133 702 133 775 195 c 0,35,36
 834 245 834 245 834 335 c 2,37,-1
 834 537 l 1,38,-1
 599 537 l 1,39,40
 496 535 496 535 425 475 c 0,41,42
 366 424 366 424 366 335 c 0,43,44
 366 245 366 245 425 195 c 0,45,46
 498 133 498 133 599 133 c 0,33,34
539 1387 m 0,47,48
 539 1362 539 1362 557 1341 c 0,49,50
 574 1321 574 1321 600 1321 c 0,51,52
 628 1321 628 1321 644 1340 c 0,53,54
 661 1360 661 1360 661 1387 c 0,55,56
 661 1412 661 1412 643 1433 c 0,57,58
 626 1453 626 1453 600 1453 c 128,-1,59
 574 1453 574 1453 556.5 1433.5 c 128,-1,60
 539 1414 539 1414 539 1387 c 0,47,48
429 1386 m 0,61,62
 429 1456 429 1456 479 1504 c 128,-1,63
 529 1552 529 1552 600 1552 c 0,64,65
 672 1552 672 1552 721 1504 c 0,66,67
 771 1455 771 1455 771 1386 c 0,68,69
 771 1316 771 1316 721 1268 c 128,-1,70
 671 1220 671 1220 600 1220 c 128,-1,71
 529 1220 529 1220 479 1268.5 c 128,-1,72
 429 1317 429 1317 429 1386 c 0,61,62
EndSplineSet
Validated: 1
EndChar

StartChar: ae
Encoding: 230 230 168
Width: 1200
GlyphClass: 2
Flags: W
HStem: -20 153<353.929 488.562 724.4 851.59> 537 153<354.443 514> 968 152<316.827 479.491 722.61 850.941>
VStem: 146 175<180.261 507.724> 515 175<162.498 388 690 904.52> 887 167<163.995 334 662 933.876>
DStem2: 690 549 690 388 0.882487 0.470337<0 226.998>
LayerCount: 2
Fore
SplineSet
1054 334 m 1,0,1
 1053 165 1053 165 973 72 c 0,2,3
 894 -20 894 -20 785 -20 c 0,4,5
 729 -20 729 -20 683 0 c 1,6,-1
 515 0 l 1,7,-1
 515 64 l 1,8,9
 472 -20 472 -20 415 -20 c 0,10,11
 302 -20 302 -20 227 72 c 0,12,13
 146 171 146 171 146 335 c 0,14,15
 146 500 146 500 227 598 c 0,16,17
 302 689 302 689 415 690 c 1,18,-1
 515 690 l 1,19,-1
 515 766 l 2,20,21
 515 859 515 859 491 906 c 0,22,23
 460 966 460 966 406 966 c 2,24,-1
 402 966 l 2,25,26
 344 966 344 966 301 906 c 0,27,28
 288 888 288 888 280 868 c 1,29,-1
 164 965 l 1,30,31
 181 1001 181 1001 206 1030 c 0,32,33
 283 1120 283 1120 415 1120 c 0,34,35
 530 1120 530 1120 602 1036 c 1,36,37
 677 1120 677 1120 785 1120 c 0,38,39
 896 1120 896 1120 973 1028 c 0,40,41
 1054 931 1054 931 1054 765 c 2,42,-1
 1054 582 l 1,43,-1
 690 388 l 1,44,-1
 690 334 l 2,45,46
 690 245 690 245 715 194 c 0,47,48
 745 133 745 133 785 133 c 0,49,50
 831 133 831 133 862 194 c 0,51,52
 887 243 887 243 887 334 c 1,53,-1
 1054 334 l 1,0,1
784 968 m 1,54,55
 739 967 739 967 710 902 c 0,56,57
 690 857 690 857 690 765 c 2,58,-1
 690 549 l 1,59,-1
 887 662 l 1,60,-1
 887 765 l 2,61,62
 887 860 887 860 864 903 c 0,63,64
 830 966 830 966 784 968 c 1,54,55
321 335 m 0,65,66
 321 239 321 239 343 196 c 0,67,68
 375 133 375 133 424 133 c 0,69,70
 506 134 506 134 514 296 c 1,71,-1
 514 537 l 1,72,-1
 415 537 l 1,73,74
 374 535 374 535 345 475 c 0,75,76
 321 426 321 426 321 335 c 0,65,66
EndSplineSet
Validated: 1
EndChar

StartChar: ccedilla
Encoding: 231 231 169
Width: 1200
GlyphClass: 2
Flags: W
HStem: 967 153<448.263 751.191>
VStem: 186 180<208.612 890.146> 568 147<-195.094 -19.1562> 834 180<208.854 334 765 888.005>
LayerCount: 2
Fore
SplineSet
1014 334 m 1,0,1
 1014 164 1014 164 890 72 c 0,2,3
 801 6 801 6 689 -13 c 1,4,5
 715 -64 715 -64 715 -124 c 2,6,-1
 715 -126 l 2,7,8
 715 -320 715 -320 502 -410 c 1,9,-1
 502 -221 l 1,10,11
 568 -158 568 -158 568 -92 c 0,12,13
 568 -55 568 -55 543 -18 c 1,14,15
 395 -5 395 -5 300 74 c 0,16,17
 186 169 186 169 186 334 c 2,18,-1
 186 765 l 2,19,20
 186 935 186 935 314 1032 c 0,21,22
 430 1120 430 1120 600 1120 c 0,23,24
 775 1119 775 1119 890 1028 c 0,25,26
 1014 930 1014 930 1014 765 c 1,27,-1
 834 765 l 1,28,29
 834 855 834 855 775 905 c 0,30,31
 702 967 702 967 601 967 c 0,32,33
 498 967 498 967 425 905 c 0,34,35
 366 855 366 855 366 765 c 2,36,-1
 366 334 l 2,37,38
 366 243 366 243 425 194 c 0,39,40
 498 133 498 133 601 133 c 128,-1,41
 704 133 704 133 775 194 c 0,42,43
 834 244 834 244 834 334 c 1,44,-1
 1014 334 l 1,0,1
EndSplineSet
Validated: 1
EndChar

StartChar: egrave
Encoding: 232 232 170
Width: 1200
GlyphClass: 2
Flags: W
HStem: -20 153<448.211 752.429> 967 153<448.095 751.155>
VStem: 186 180<211.49 388 549 890.146> 834 180<209.095 334 691 888.005>
DStem2: 366 549 366 388 0.957989 0.286805<0 489.065>
LayerCount: 2
Fore
SplineSet
598 967 m 0,0,1
 497 967 497 967 425 905 c 0,2,3
 366 855 366 855 366 765 c 2,4,-1
 366 549 l 1,5,-1
 834 691 l 1,6,-1
 834 765 l 2,7,8
 834 855 834 855 775 905 c 0,9,10
 702 967 702 967 598 967 c 0,0,1
1014 334 m 1,11,12
 1014 164 1014 164 890 72 c 0,13,14
 765 -20 765 -20 600 -20 c 0,15,16
 413 -20 413 -20 300 74 c 0,17,18
 186 169 186 169 186 334 c 2,19,-1
 186 765 l 2,20,21
 186 935 186 935 314 1032 c 0,22,23
 430 1120 430 1120 600 1120 c 0,24,25
 775 1119 775 1119 890 1028 c 0,26,27
 1014 930 1014 930 1014 765 c 2,28,-1
 1014 582 l 1,29,-1
 366 388 l 1,30,-1
 366 334 l 2,31,32
 366 244 366 244 425 194 c 0,33,34
 497 133 497 133 601 133 c 0,35,36
 704 133 704 133 775 194 c 0,37,38
 834 245 834 245 834 334 c 1,39,-1
 1014 334 l 1,11,12
496 1528 m 1,40,-1
 656 1214 l 1,41,-1
 546 1150 l 1,42,-1
 334 1434 l 1,43,-1
 496 1528 l 1,40,-1
EndSplineSet
Validated: 1
EndChar

StartChar: eacute
Encoding: 233 233 171
Width: 1200
GlyphClass: 2
Flags: W
HStem: -20 153<448.211 752.429> 967 153<448.095 751.155>
VStem: 186 180<211.49 388 549 890.146> 834 180<209.095 334 691 888.005>
DStem2: 366 549 366 388 0.957989 0.286805<0 489.065>
LayerCount: 2
Fore
SplineSet
598 967 m 0,0,1
 497 967 497 967 425 905 c 0,2,3
 366 855 366 855 366 765 c 2,4,-1
 366 549 l 1,5,-1
 834 691 l 1,6,-1
 834 765 l 2,7,8
 834 855 834 855 775 905 c 0,9,10
 702 967 702 967 598 967 c 0,0,1
1014 334 m 1,11,12
 1014 164 1014 164 890 72 c 0,13,14
 765 -20 765 -20 600 -20 c 0,15,16
 413 -20 413 -20 300 74 c 0,17,18
 186 169 186 169 186 334 c 2,19,-1
 186 765 l 2,20,21
 186 935 186 935 314 1032 c 0,22,23
 430 1120 430 1120 600 1120 c 0,24,25
 775 1119 775 1119 890 1028 c 0,26,27
 1014 930 1014 930 1014 765 c 2,28,-1
 1014 582 l 1,29,-1
 366 388 l 1,30,-1
 366 334 l 2,31,32
 366 244 366 244 425 194 c 0,33,34
 497 133 497 133 601 133 c 0,35,36
 704 133 704 133 775 194 c 0,37,38
 834 245 834 245 834 334 c 1,39,-1
 1014 334 l 1,11,12
706 1528 m 1,40,-1
 868 1434 l 1,41,-1
 656 1150 l 1,42,-1
 546 1214 l 1,43,-1
 706 1528 l 1,40,-1
EndSplineSet
Validated: 1
EndChar

StartChar: ecircumflex
Encoding: 234 234 172
Width: 1200
GlyphClass: 2
Flags: W
HStem: -20 153<448.211 752.429> 967 153<448.095 751.155>
VStem: 186 180<211.49 388 549 890.146> 834 180<209.095 334 691 888.005>
DStem2: 366 549 366 388 0.957989 0.286805<0 489.065>
LayerCount: 2
Fore
SplineSet
598 967 m 0,0,1
 497 967 497 967 425 905 c 0,2,3
 366 855 366 855 366 765 c 2,4,-1
 366 549 l 1,5,-1
 834 691 l 1,6,-1
 834 765 l 2,7,8
 834 855 834 855 775 905 c 0,9,10
 702 967 702 967 598 967 c 0,0,1
1014 334 m 1,11,12
 1014 164 1014 164 890 72 c 0,13,14
 765 -20 765 -20 600 -20 c 0,15,16
 413 -20 413 -20 300 74 c 0,17,18
 186 169 186 169 186 334 c 2,19,-1
 186 765 l 2,20,21
 186 935 186 935 314 1032 c 0,22,23
 430 1120 430 1120 600 1120 c 0,24,25
 775 1119 775 1119 890 1028 c 0,26,27
 1014 930 1014 930 1014 765 c 2,28,-1
 1014 582 l 1,29,-1
 366 388 l 1,30,-1
 366 334 l 2,31,32
 366 244 366 244 425 194 c 0,33,34
 497 133 497 133 601 133 c 0,35,36
 704 133 704 133 775 194 c 0,37,38
 834 245 834 245 834 334 c 1,39,-1
 1014 334 l 1,11,12
338 1244 m 1,40,-1
 550 1528 l 1,41,-1
 656 1528 l 1,42,-1
 868 1244 l 1,43,-1
 757 1172 l 1,44,-1
 603 1324 l 1,45,-1
 447 1172 l 1,46,-1
 338 1244 l 1,40,-1
EndSplineSet
Validated: 1
EndChar

StartChar: edieresis
Encoding: 235 235 173
Width: 1200
GlyphClass: 2
Flags: W
HStem: -20 153<448.211 752.429> 967 153<448.095 751.155> 1259 261<346.277 539.856 661.277 854.856>
VStem: 186 180<211.49 388 549 890.146> 312 261<1293.28 1485.72> 627 261<1293.28 1485.72> 834 180<209.095 334 691 888.005>
DStem2: 366 549 366 388 0.957989 0.286805<0 489.065>
LayerCount: 2
Fore
SplineSet
598 967 m 0,0,1
 497 967 497 967 425 905 c 0,2,3
 366 855 366 855 366 765 c 2,4,-1
 366 549 l 1,5,-1
 834 691 l 1,6,-1
 834 765 l 2,7,8
 834 855 834 855 775 905 c 0,9,10
 702 967 702 967 598 967 c 0,0,1
1014 334 m 1,11,12
 1014 164 1014 164 890 72 c 0,13,14
 765 -20 765 -20 600 -20 c 0,15,16
 413 -20 413 -20 300 74 c 0,17,18
 186 169 186 169 186 334 c 2,19,-1
 186 765 l 2,20,21
 186 935 186 935 314 1032 c 0,22,23
 430 1120 430 1120 600 1120 c 0,24,25
 775 1119 775 1119 890 1028 c 0,26,27
 1014 930 1014 930 1014 765 c 2,28,-1
 1014 582 l 1,29,-1
 366 388 l 1,30,-1
 366 334 l 2,31,32
 366 244 366 244 425 194 c 0,33,34
 497 133 497 133 601 133 c 0,35,36
 704 133 704 133 775 194 c 0,37,38
 834 245 834 245 834 334 c 1,39,-1
 1014 334 l 1,11,12
627 1389 m 128,-1,41
 627 1442 627 1442 666 1481 c 128,-1,42
 705 1520 705 1520 758 1520 c 0,43,44
 808 1520 808 1520 849 1481 c 0,45,46
 888 1444 888 1444 888 1389 c 0,47,48
 888 1336 888 1336 849 1298 c 0,49,50
 809 1259 809 1259 759 1259 c 0,51,52
 758 1259 758 1259 757 1259 c 0,53,54
 707 1259 707 1259 666 1298 c 0,55,40
 627 1336 627 1336 627 1389 c 128,-1,41
312 1389 m 128,-1,57
 312 1442 312 1442 351 1481 c 128,-1,58
 390 1520 390 1520 443 1520 c 0,59,60
 493 1520 493 1520 534 1481 c 0,61,62
 573 1444 573 1444 573 1389 c 0,63,64
 573 1336 573 1336 534 1298 c 0,65,66
 494 1259 494 1259 444 1259 c 0,67,68
 443 1259 443 1259 442 1259 c 0,69,70
 392 1259 392 1259 352 1298 c 0,71,56
 312 1336 312 1336 312 1389 c 128,-1,57
EndSplineSet
Validated: 1
EndChar

StartChar: igrave
Encoding: 236 236 174
Width: 1200
GlyphClass: 2
Flags: W
HStem: -20 153<774.539 1018.56> 940 160<186 510>
VStem: 510 180<211.49 940>
LayerCount: 2
Fore
SplineSet
186 1100 m 1,0,-1
 690 1100 l 1,1,-1
 690 334 l 2,2,3
 690 244 690 244 749 194 c 0,4,5
 821 133 821 133 919 133 c 0,6,7
 922 133 922 133 925 133 c 0,8,9
 974 133 974 133 1020 149 c 1,10,-1
 1126 21 l 1,11,12
 1034 -20 1034 -20 924 -20 c 0,13,14
 737 -20 737 -20 624 74 c 0,15,16
 510 169 510 169 510 334 c 2,17,-1
 510 940 l 1,18,-1
 186 940 l 1,19,-1
 186 1100 l 1,0,-1
496 1528 m 1,20,-1
 656 1214 l 1,21,-1
 546 1150 l 1,22,-1
 334 1434 l 1,23,-1
 496 1528 l 1,20,-1
EndSplineSet
Validated: 1
EndChar

StartChar: iacute
Encoding: 237 237 175
Width: 1200
GlyphClass: 2
Flags: W
HStem: -20 153<774.539 1018.56> 940 160<186 510>
VStem: 510 180<211.49 940>
LayerCount: 2
Fore
SplineSet
186 1100 m 1,0,-1
 690 1100 l 1,1,-1
 690 334 l 2,2,3
 690 244 690 244 749 194 c 0,4,5
 821 133 821 133 919 133 c 0,6,7
 922 133 922 133 925 133 c 0,8,9
 974 133 974 133 1020 149 c 1,10,-1
 1126 21 l 1,11,12
 1034 -20 1034 -20 924 -20 c 0,13,14
 737 -20 737 -20 624 74 c 0,15,16
 510 169 510 169 510 334 c 2,17,-1
 510 940 l 1,18,-1
 186 940 l 1,19,-1
 186 1100 l 1,0,-1
706 1528 m 1,20,-1
 868 1434 l 1,21,-1
 656 1150 l 1,22,-1
 546 1214 l 1,23,-1
 706 1528 l 1,20,-1
EndSplineSet
Validated: 1
EndChar

StartChar: icircumflex
Encoding: 238 238 176
Width: 1200
GlyphClass: 2
Flags: W
HStem: -20 153<774.539 1018.56> 940 160<186 510>
VStem: 510 180<211.49 940>
LayerCount: 2
Fore
SplineSet
186 1100 m 1,0,-1
 690 1100 l 1,1,-1
 690 334 l 2,2,3
 690 244 690 244 749 194 c 0,4,5
 821 133 821 133 919 133 c 0,6,7
 922 133 922 133 925 133 c 0,8,9
 974 133 974 133 1020 149 c 1,10,-1
 1126 21 l 1,11,12
 1034 -20 1034 -20 924 -20 c 0,13,14
 737 -20 737 -20 624 74 c 0,15,16
 510 169 510 169 510 334 c 2,17,-1
 510 940 l 1,18,-1
 186 940 l 1,19,-1
 186 1100 l 1,0,-1
263 1244 m 1,20,-1
 475 1528 l 1,21,-1
 581 1528 l 1,22,-1
 793 1244 l 1,23,-1
 682 1172 l 1,24,-1
 528 1324 l 1,25,-1
 372 1172 l 1,26,-1
 263 1244 l 1,20,-1
EndSplineSet
Validated: 1
EndChar

StartChar: idieresis
Encoding: 239 239 177
Width: 1200
GlyphClass: 2
Flags: W
HStem: -20 153<774.539 1018.56> 940 160<186 510> 1259 261<249.277 442.856 564.277 757.856>
VStem: 215 261<1293.28 1485.72> 510 180<211.49 940> 530 261<1293.28 1485.72>
LayerCount: 2
Fore
SplineSet
186 1100 m 1,0,-1
 690 1100 l 1,1,-1
 690 334 l 2,2,3
 690 244 690 244 749 194 c 0,4,5
 821 133 821 133 919 133 c 0,6,7
 922 133 922 133 925 133 c 0,8,9
 974 133 974 133 1020 149 c 1,10,-1
 1126 21 l 1,11,12
 1034 -20 1034 -20 924 -20 c 0,13,14
 737 -20 737 -20 624 74 c 0,15,16
 510 169 510 169 510 334 c 2,17,-1
 510 940 l 1,18,-1
 186 940 l 1,19,-1
 186 1100 l 1,0,-1
530 1389 m 128,-1,21
 530 1442 530 1442 569 1481 c 128,-1,22
 608 1520 608 1520 661 1520 c 0,23,24
 711 1520 711 1520 752 1481 c 0,25,26
 791 1444 791 1444 791 1389 c 0,27,28
 791 1336 791 1336 752 1298 c 0,29,30
 712 1259 712 1259 662 1259 c 0,31,32
 661 1259 661 1259 660 1259 c 0,33,34
 610 1259 610 1259 569 1298 c 0,35,20
 530 1336 530 1336 530 1389 c 128,-1,21
215 1389 m 128,-1,37
 215 1442 215 1442 254 1481 c 128,-1,38
 293 1520 293 1520 346 1520 c 0,39,40
 396 1520 396 1520 437 1481 c 0,41,42
 476 1444 476 1444 476 1389 c 0,43,44
 476 1336 476 1336 437 1298 c 0,45,46
 397 1259 397 1259 347 1259 c 0,47,48
 346 1259 346 1259 345 1259 c 0,49,50
 295 1259 295 1259 255 1298 c 0,51,36
 215 1336 215 1336 215 1389 c 128,-1,37
EndSplineSet
Validated: 1
EndChar

StartChar: eth
Encoding: 240 240 178
Width: 1200
GlyphClass: 2
Flags: W
HStem: -20 153<448.332 752.678> 967 153<448.263 689.564> 1480 20G<510 716.512 964.667 1027.38>
VStem: 186 180<208.612 890.146> 834 180<208.854 890.146>
DStem2: 406 1291 474 1146 0.93658 0.350453<12.8719 183.521 375.817 653.441>
LayerCount: 2
Fore
SplineSet
510 1500 m 1,0,-1
 707 1500 l 1,1,-1
 746 1418 l 1,2,-1
 1018 1520 l 1,3,-1
 1086 1375 l 1,4,-1
 814 1273 l 1,5,-1
 984 912 l 2,6,7
 1014 848 1014 848 1014 765 c 2,8,-1
 1014 334 l 2,9,10
 1014 164 1014 164 890 72 c 128,-1,11
 766 -20 766 -20 600 -20 c 0,12,13
 413 -20 413 -20 300 74 c 0,14,15
 186 169 186 169 186 334 c 2,16,-1
 186 765 l 2,17,18
 186 935 186 935 314 1032 c 0,19,20
 430 1120 430 1120 600 1120 c 0,21,22
 646 1120 646 1120 691 1113 c 1,23,-1
 646 1210 l 1,24,-1
 474 1146 l 1,25,-1
 406 1291 l 1,26,-1
 578 1355 l 1,27,-1
 510 1500 l 1,0,-1
601 967 m 0,28,29
 498 967 498 967 425 905 c 0,30,31
 366 855 366 855 366 765 c 2,32,-1
 366 334 l 2,33,34
 366 243 366 243 425 194 c 0,35,36
 498 133 498 133 601 133 c 128,-1,37
 704 133 704 133 775 194 c 0,38,39
 834 244 834 244 834 334 c 2,40,-1
 834 765 l 2,41,42
 834 855 834 855 775 905 c 0,43,44
 702 967 702 967 601 967 c 0,28,29
EndSplineSet
Validated: 1
EndChar

StartChar: ntilde
Encoding: 241 241 179
Width: 1200
GlyphClass: 2
Flags: W
HStem: 0 21G<186 366 834 1014> 967 153<448.545 751.377> 1080 20G<186 366> 1257 138<644.278 724.485> 1391 134<477.136 559.447>
VStem: 186 180<0 890.146 1036 1100> 362 103<1298 1386.45> 737 103<1395.55 1483> 834 180<0 888.005>
LayerCount: 2
Fore
SplineSet
186 0 m 1,0,-1
 186 1100 l 1,1,-1
 366 1100 l 1,2,-1
 366 1036 l 1,3,4
 470 1120 470 1120 597 1120 c 2,5,-1
 600 1120 l 1,6,7
 776 1118 776 1118 890 1028 c 0,8,9
 1014 930 1014 930 1014 765 c 2,10,-1
 1014 0 l 1,11,-1
 834 0 l 1,12,-1
 834 765 l 2,13,14
 834 855 834 855 775 905 c 0,15,16
 702 967 702 967 601 967 c 0,17,18
 498 967 498 967 425 905 c 0,19,20
 366 855 366 855 366 765 c 2,21,-1
 366 0 l 1,22,-1
 186 0 l 1,0,-1
362 1298 m 1,23,24
 387 1525 387 1525 515 1525 c 0,25,26
 592 1525 592 1525 634 1455 c 0,27,28
 670 1395 670 1395 689 1395 c 2,29,-1
 690 1395 l 1,30,31
 723 1398 723 1398 737 1483 c 1,32,-1
 840 1484 l 1,33,34
 815 1257 815 1257 687 1257 c 0,35,36
 610 1257 610 1257 567 1334 c 0,37,38
 535 1391 535 1391 515 1391 c 0,39,40
 481 1391 481 1391 465 1298 c 1,41,-1
 362 1298 l 1,23,24
EndSplineSet
Validated: 1
EndChar

StartChar: ograve
Encoding: 242 242 180
Width: 1200
GlyphClass: 2
Flags: W
HStem: -20 153<448.332 752.678> 967 153<448.263 751.191>
VStem: 186 180<208.612 890.146> 834 180<208.854 888.005>
LayerCount: 2
Fore
SplineSet
601 967 m 0,0,1
 498 967 498 967 425 905 c 0,2,3
 366 855 366 855 366 765 c 2,4,-1
 366 334 l 2,5,6
 366 243 366 243 425 194 c 0,7,8
 498 133 498 133 601 133 c 128,-1,9
 704 133 704 133 775 194 c 0,10,11
 834 244 834 244 834 334 c 2,12,-1
 834 765 l 2,13,14
 834 855 834 855 775 905 c 0,15,16
 702 967 702 967 601 967 c 0,0,1
600 1120 m 0,17,18
 775 1119 775 1119 890 1028 c 0,19,20
 1014 930 1014 930 1014 765 c 2,21,-1
 1014 334 l 2,22,23
 1014 164 1014 164 890 72 c 128,-1,24
 766 -20 766 -20 600 -20 c 0,25,26
 413 -20 413 -20 300 74 c 0,27,28
 186 169 186 169 186 334 c 2,29,-1
 186 765 l 2,30,31
 186 935 186 935 314 1032 c 0,32,33
 430 1120 430 1120 600 1120 c 0,17,18
496 1528 m 1,34,-1
 656 1214 l 1,35,-1
 546 1150 l 1,36,-1
 334 1434 l 1,37,-1
 496 1528 l 1,34,-1
EndSplineSet
Validated: 1
EndChar

StartChar: oacute
Encoding: 243 243 181
Width: 1200
GlyphClass: 2
Flags: W
HStem: -20 153<448.332 752.678> 967 153<448.263 751.191>
VStem: 186 180<208.612 890.146> 834 180<208.854 888.005>
LayerCount: 2
Fore
SplineSet
601 967 m 0,0,1
 498 967 498 967 425 905 c 0,2,3
 366 855 366 855 366 765 c 2,4,-1
 366 334 l 2,5,6
 366 243 366 243 425 194 c 0,7,8
 498 133 498 133 601 133 c 128,-1,9
 704 133 704 133 775 194 c 0,10,11
 834 244 834 244 834 334 c 2,12,-1
 834 765 l 2,13,14
 834 855 834 855 775 905 c 0,15,16
 702 967 702 967 601 967 c 0,0,1
600 1120 m 0,17,18
 775 1119 775 1119 890 1028 c 0,19,20
 1014 930 1014 930 1014 765 c 2,21,-1
 1014 334 l 2,22,23
 1014 164 1014 164 890 72 c 128,-1,24
 766 -20 766 -20 600 -20 c 0,25,26
 413 -20 413 -20 300 74 c 0,27,28
 186 169 186 169 186 334 c 2,29,-1
 186 765 l 2,30,31
 186 935 186 935 314 1032 c 0,32,33
 430 1120 430 1120 600 1120 c 0,17,18
706 1528 m 1,34,-1
 868 1434 l 1,35,-1
 656 1150 l 1,36,-1
 546 1214 l 1,37,-1
 706 1528 l 1,34,-1
EndSplineSet
Validated: 1
EndChar

StartChar: ocircumflex
Encoding: 244 244 182
Width: 1200
GlyphClass: 2
Flags: W
HStem: -20 153<448.332 752.678> 967 153<448.263 751.191>
VStem: 186 180<208.612 890.146> 834 180<208.854 888.005>
LayerCount: 2
Fore
SplineSet
601 967 m 0,0,1
 498 967 498 967 425 905 c 0,2,3
 366 855 366 855 366 765 c 2,4,-1
 366 334 l 2,5,6
 366 243 366 243 425 194 c 0,7,8
 498 133 498 133 601 133 c 128,-1,9
 704 133 704 133 775 194 c 0,10,11
 834 244 834 244 834 334 c 2,12,-1
 834 765 l 2,13,14
 834 855 834 855 775 905 c 0,15,16
 702 967 702 967 601 967 c 0,0,1
600 1120 m 0,17,18
 775 1119 775 1119 890 1028 c 0,19,20
 1014 930 1014 930 1014 765 c 2,21,-1
 1014 334 l 2,22,23
 1014 164 1014 164 890 72 c 128,-1,24
 766 -20 766 -20 600 -20 c 0,25,26
 413 -20 413 -20 300 74 c 0,27,28
 186 169 186 169 186 334 c 2,29,-1
 186 765 l 2,30,31
 186 935 186 935 314 1032 c 0,32,33
 430 1120 430 1120 600 1120 c 0,17,18
338 1244 m 1,34,-1
 550 1528 l 1,35,-1
 656 1528 l 1,36,-1
 868 1244 l 1,37,-1
 757 1172 l 1,38,-1
 603 1324 l 1,39,-1
 447 1172 l 1,40,-1
 338 1244 l 1,34,-1
EndSplineSet
Validated: 1
EndChar

StartChar: otilde
Encoding: 245 245 183
Width: 1200
GlyphClass: 2
Flags: W
HStem: -20 153<448.332 752.678> 967 153<448.263 751.191> 1257 138<644.278 724.485> 1391 134<477.136 559.447>
VStem: 186 180<208.612 890.146> 362 103<1298 1386.45> 737 103<1395.55 1483> 834 180<208.854 888.005>
LayerCount: 2
Fore
SplineSet
601 967 m 0,0,1
 498 967 498 967 425 905 c 0,2,3
 366 855 366 855 366 765 c 2,4,-1
 366 334 l 2,5,6
 366 243 366 243 425 194 c 0,7,8
 498 133 498 133 601 133 c 128,-1,9
 704 133 704 133 775 194 c 0,10,11
 834 244 834 244 834 334 c 2,12,-1
 834 765 l 2,13,14
 834 855 834 855 775 905 c 0,15,16
 702 967 702 967 601 967 c 0,0,1
600 1120 m 0,17,18
 775 1119 775 1119 890 1028 c 0,19,20
 1014 930 1014 930 1014 765 c 2,21,-1
 1014 334 l 2,22,23
 1014 164 1014 164 890 72 c 128,-1,24
 766 -20 766 -20 600 -20 c 0,25,26
 413 -20 413 -20 300 74 c 0,27,28
 186 169 186 169 186 334 c 2,29,-1
 186 765 l 2,30,31
 186 935 186 935 314 1032 c 0,32,33
 430 1120 430 1120 600 1120 c 0,17,18
362 1298 m 1,34,35
 387 1525 387 1525 515 1525 c 0,36,37
 592 1525 592 1525 634 1455 c 0,38,39
 670 1395 670 1395 689 1395 c 2,40,-1
 690 1395 l 1,41,42
 723 1398 723 1398 737 1483 c 1,43,-1
 840 1484 l 1,44,45
 815 1257 815 1257 687 1257 c 0,46,47
 610 1257 610 1257 567 1334 c 0,48,49
 535 1391 535 1391 515 1391 c 0,50,51
 481 1391 481 1391 465 1298 c 1,52,-1
 362 1298 l 1,34,35
EndSplineSet
Validated: 1
EndChar

StartChar: odieresis
Encoding: 246 246 184
Width: 1200
GlyphClass: 2
Flags: W
HStem: -20 153<448.332 752.678> 967 153<448.263 751.191> 1259 261<346.277 539.856 661.277 854.856>
VStem: 186 180<208.612 890.146> 312 261<1293.28 1485.72> 627 261<1293.28 1485.72> 834 180<208.854 888.005>
LayerCount: 2
Fore
SplineSet
601 967 m 0,0,1
 498 967 498 967 425 905 c 0,2,3
 366 855 366 855 366 765 c 2,4,-1
 366 334 l 2,5,6
 366 243 366 243 425 194 c 0,7,8
 498 133 498 133 601 133 c 128,-1,9
 704 133 704 133 775 194 c 0,10,11
 834 244 834 244 834 334 c 2,12,-1
 834 765 l 2,13,14
 834 855 834 855 775 905 c 0,15,16
 702 967 702 967 601 967 c 0,0,1
600 1120 m 0,17,18
 775 1119 775 1119 890 1028 c 0,19,20
 1014 930 1014 930 1014 765 c 2,21,-1
 1014 334 l 2,22,23
 1014 164 1014 164 890 72 c 128,-1,24
 766 -20 766 -20 600 -20 c 0,25,26
 413 -20 413 -20 300 74 c 0,27,28
 186 169 186 169 186 334 c 2,29,-1
 186 765 l 2,30,31
 186 935 186 935 314 1032 c 0,32,33
 430 1120 430 1120 600 1120 c 0,17,18
627 1389 m 128,-1,35
 627 1442 627 1442 666 1481 c 128,-1,36
 705 1520 705 1520 758 1520 c 0,37,38
 808 1520 808 1520 849 1481 c 0,39,40
 888 1444 888 1444 888 1389 c 0,41,42
 888 1336 888 1336 849 1298 c 0,43,44
 809 1259 809 1259 759 1259 c 0,45,46
 758 1259 758 1259 757 1259 c 0,47,48
 707 1259 707 1259 666 1298 c 0,49,34
 627 1336 627 1336 627 1389 c 128,-1,35
312 1389 m 128,-1,51
 312 1442 312 1442 351 1481 c 128,-1,52
 390 1520 390 1520 443 1520 c 0,53,54
 493 1520 493 1520 534 1481 c 0,55,56
 573 1444 573 1444 573 1389 c 0,57,58
 573 1336 573 1336 534 1298 c 0,59,60
 494 1259 494 1259 444 1259 c 0,61,62
 443 1259 443 1259 442 1259 c 0,63,64
 392 1259 392 1259 352 1298 c 0,65,50
 312 1336 312 1336 312 1389 c 128,-1,51
EndSplineSet
Validated: 1
EndChar

StartChar: divide
Encoding: 247 247 185
Width: 1200
GlyphClass: 2
Flags: W
HStem: 310 261<518.19 701.856> 670 160<186 1014> 930 261<518.19 701.856>
VStem: 474 261<345.131 536.723 965.131 1156.72>
LayerCount: 2
Fore
SplineSet
474 1060 m 0,0,1
 474 1113 474 1113 513 1152 c 128,-1,2
 552 1191 552 1191 605 1191 c 0,3,4
 656 1191 656 1191 696 1152 c 0,5,6
 735 1114 735 1114 735 1063 c 0,7,8
 735 1061 735 1061 735 1060 c 0,9,10
 735 1007 735 1007 696 969 c 0,11,12
 656 930 656 930 606 930 c 2,13,-1
 604 930 l 1,14,15
 555 932 555 932 517 964 c 0,16,17
 474 1000 474 1000 474 1060 c 0,0,1
474 440 m 0,18,19
 474 493 474 493 513 532 c 128,-1,20
 552 571 552 571 605 571 c 0,21,22
 656 571 656 571 696 532 c 0,23,24
 735 494 735 494 735 443 c 0,25,26
 735 441 735 441 735 440 c 0,27,28
 735 387 735 387 696 349 c 0,29,30
 656 310 656 310 606 310 c 2,31,-1
 604 310 l 1,32,33
 555 312 555 312 517 344 c 0,34,35
 474 380 474 380 474 440 c 0,18,19
186 670 m 1,36,-1
 186 830 l 1,37,-1
 1014 830 l 1,38,-1
 1014 670 l 1,39,-1
 186 670 l 1,36,-1
EndSplineSet
Validated: 1
EndChar

StartChar: oslash
Encoding: 248 248 186
Width: 1200
GlyphClass: 2
Flags: W
HStem: -20 153<447.727 752.678> 0 21G<100 313.286> 967 153<448.263 751.047> 1080 20G<888.283 1100>
VStem: 186 180<364 890.146> 834 180<208.854 735>
DStem2: 223 169 299 0 0.589612 0.807687<-91.6886 -26.562 241.813 817.404 1082.72 1152.89>
LayerCount: 2
Fore
SplineSet
100 0 m 1,0,-1
 223 169 l 1,1,2
 186 240 186 240 186 334 c 2,3,-1
 186 765 l 2,4,5
 186 935 186 935 314 1032 c 0,6,7
 430 1120 430 1120 600 1120 c 0,8,9
 755 1120 755 1120 864 1047 c 1,10,-1
 903 1100 l 1,11,-1
 1100 1100 l 1,12,-1
 975 929 l 1,13,14
 1014 857 1014 857 1014 765 c 2,15,-1
 1014 334 l 2,16,17
 1014 164 1014 164 890 72 c 128,-1,18
 766 -20 766 -20 600 -20 c 0,19,20
 440 -20 440 -20 334 49 c 1,21,-1
 299 0 l 1,22,-1
 100 0 l 1,0,-1
601 967 m 0,23,24
 498 967 498 967 425 905 c 0,25,26
 366 855 366 855 366 765 c 2,27,-1
 366 364 l 1,28,-1
 766 912 l 1,29,30
 696 967 696 967 601 967 c 0,23,24
834 735 m 1,31,-1
 435 186 l 1,32,33
 505 133 505 133 601 133 c 0,34,35
 704 133 704 133 775 194 c 0,36,37
 834 244 834 244 834 334 c 2,38,-1
 834 735 l 1,31,-1
EndSplineSet
Validated: 1
EndChar

StartChar: ugrave
Encoding: 249 249 187
Width: 1200
GlyphClass: 2
Flags: W
HStem: -20 153<448.623 751.455> 0 21G<834 1014> 1080 20G<186 366 834 1014>
VStem: 186 180<211.995 1100> 834 180<0 64 209.854 1100>
LayerCount: 2
Fore
SplineSet
186 1100 m 1,0,-1
 366 1100 l 1,1,-1
 366 335 l 2,2,3
 366 245 366 245 425 195 c 0,4,5
 498 133 498 133 599 133 c 0,6,7
 702 133 702 133 775 195 c 0,8,9
 834 245 834 245 834 335 c 2,10,-1
 834 1100 l 1,11,-1
 1014 1100 l 1,12,-1
 1014 0 l 1,13,-1
 834 0 l 1,14,-1
 834 64 l 1,15,16
 730 -20 730 -20 603 -20 c 2,17,-1
 600 -20 l 1,18,19
 424 -18 424 -18 310 72 c 0,20,21
 186 170 186 170 186 335 c 2,22,-1
 186 1100 l 1,0,-1
496 1528 m 1,23,-1
 656 1214 l 1,24,-1
 546 1150 l 1,25,-1
 334 1434 l 1,26,-1
 496 1528 l 1,23,-1
EndSplineSet
Validated: 1
EndChar

StartChar: uacute
Encoding: 250 250 188
Width: 1200
GlyphClass: 2
Flags: W
HStem: -20 153<448.623 751.455> 0 21G<834 1014> 1080 20G<186 366 834 1014>
VStem: 186 180<211.995 1100> 834 180<0 64 209.854 1100>
LayerCount: 2
Fore
SplineSet
186 1100 m 1,0,-1
 366 1100 l 1,1,-1
 366 335 l 2,2,3
 366 245 366 245 425 195 c 0,4,5
 498 133 498 133 599 133 c 0,6,7
 702 133 702 133 775 195 c 0,8,9
 834 245 834 245 834 335 c 2,10,-1
 834 1100 l 1,11,-1
 1014 1100 l 1,12,-1
 1014 0 l 1,13,-1
 834 0 l 1,14,-1
 834 64 l 1,15,16
 730 -20 730 -20 603 -20 c 2,17,-1
 600 -20 l 1,18,19
 424 -18 424 -18 310 72 c 0,20,21
 186 170 186 170 186 335 c 2,22,-1
 186 1100 l 1,0,-1
706 1528 m 1,23,-1
 868 1434 l 1,24,-1
 656 1150 l 1,25,-1
 546 1214 l 1,26,-1
 706 1528 l 1,23,-1
EndSplineSet
Validated: 1
EndChar

StartChar: ucircumflex
Encoding: 251 251 189
Width: 1200
GlyphClass: 2
Flags: W
HStem: -20 153<448.623 751.455> 0 21G<834 1014> 1080 20G<186 366 834 1014>
VStem: 186 180<211.995 1100> 834 180<0 64 209.854 1100>
LayerCount: 2
Fore
SplineSet
186 1100 m 1,0,-1
 366 1100 l 1,1,-1
 366 335 l 2,2,3
 366 245 366 245 425 195 c 0,4,5
 498 133 498 133 599 133 c 0,6,7
 702 133 702 133 775 195 c 0,8,9
 834 245 834 245 834 335 c 2,10,-1
 834 1100 l 1,11,-1
 1014 1100 l 1,12,-1
 1014 0 l 1,13,-1
 834 0 l 1,14,-1
 834 64 l 1,15,16
 730 -20 730 -20 603 -20 c 2,17,-1
 600 -20 l 1,18,19
 424 -18 424 -18 310 72 c 0,20,21
 186 170 186 170 186 335 c 2,22,-1
 186 1100 l 1,0,-1
338 1244 m 1,23,-1
 550 1528 l 1,24,-1
 656 1528 l 1,25,-1
 868 1244 l 1,26,-1
 757 1172 l 1,27,-1
 603 1324 l 1,28,-1
 447 1172 l 1,29,-1
 338 1244 l 1,23,-1
EndSplineSet
Validated: 1
EndChar

StartChar: udieresis
Encoding: 252 252 190
Width: 1200
GlyphClass: 2
Flags: W
HStem: -20 153<448.623 751.455> 0 21G<834 1014> 1080 20G<186 366 834 1014> 1259 261<346.277 539.856 661.277 854.856>
VStem: 186 180<211.995 1100> 312 261<1293.28 1485.72> 627 261<1293.28 1485.72> 834 180<0 64 209.854 1100>
LayerCount: 2
Fore
SplineSet
186 1100 m 1,0,-1
 366 1100 l 1,1,-1
 366 335 l 2,2,3
 366 245 366 245 425 195 c 0,4,5
 498 133 498 133 599 133 c 0,6,7
 702 133 702 133 775 195 c 0,8,9
 834 245 834 245 834 335 c 2,10,-1
 834 1100 l 1,11,-1
 1014 1100 l 1,12,-1
 1014 0 l 1,13,-1
 834 0 l 1,14,-1
 834 64 l 1,15,16
 730 -20 730 -20 603 -20 c 2,17,-1
 600 -20 l 1,18,19
 424 -18 424 -18 310 72 c 0,20,21
 186 170 186 170 186 335 c 2,22,-1
 186 1100 l 1,0,-1
627 1389 m 128,-1,24
 627 1442 627 1442 666 1481 c 128,-1,25
 705 1520 705 1520 758 1520 c 0,26,27
 808 1520 808 1520 849 1481 c 0,28,29
 888 1444 888 1444 888 1389 c 0,30,31
 888 1336 888 1336 849 1298 c 0,32,33
 809 1259 809 1259 759 1259 c 0,34,35
 758 1259 758 1259 757 1259 c 0,36,37
 707 1259 707 1259 666 1298 c 0,38,23
 627 1336 627 1336 627 1389 c 128,-1,24
312 1389 m 128,-1,40
 312 1442 312 1442 351 1481 c 128,-1,41
 390 1520 390 1520 443 1520 c 0,42,43
 493 1520 493 1520 534 1481 c 0,44,45
 573 1444 573 1444 573 1389 c 0,46,47
 573 1336 573 1336 534 1298 c 0,48,49
 494 1259 494 1259 444 1259 c 0,50,51
 443 1259 443 1259 442 1259 c 0,52,53
 392 1259 392 1259 352 1298 c 0,54,39
 312 1336 312 1336 312 1389 c 128,-1,40
EndSplineSet
Validated: 1
EndChar

StartChar: yacute
Encoding: 253 253 191
Width: 1200
GlyphClass: 2
Flags: W
HStem: -420 153<447.322 751.427> -20 153<450.117 751.455> 1080 20G<186 366 834 1014>
VStem: 186 180<211.995 1100> 834 180<-188.992 64 209.854 1100>
LayerCount: 2
Fore
SplineSet
245 -263 m 1,0,-1
 392 -168 l 1,1,2
 405 -189 405 -189 425 -206 c 0,3,4
 496 -267 496 -267 599 -267 c 0,5,6
 700 -267 700 -267 775 -206 c 0,7,8
 834 -158 834 -158 834 -66 c 2,9,-1
 834 64 l 1,10,11
 730 -20 730 -20 603 -20 c 0,12,13
 602 -20 602 -20 600 -20 c 0,14,15
 427 -20 427 -20 310 72 c 0,16,17
 186 170 186 170 186 335 c 2,18,-1
 186 1100 l 1,19,-1
 366 1100 l 1,20,-1
 366 335 l 2,21,22
 366 245 366 245 425 195 c 0,23,24
 498 133 498 133 599 133 c 0,25,26
 702 133 702 133 775 195 c 0,27,28
 834 245 834 245 834 335 c 2,29,-1
 834 1100 l 1,30,-1
 1014 1100 l 1,31,-1
 1014 -66 l 2,32,33
 1014 -232 1014 -232 900 -326 c 0,34,35
 787 -420 787 -420 600 -420 c 0,36,37
 434 -420 434 -420 310 -328 c 0,38,39
 271 -299 271 -299 245 -263 c 1,0,-1
706 1528 m 1,40,-1
 868 1434 l 1,41,-1
 656 1150 l 1,42,-1
 546 1214 l 1,43,-1
 706 1528 l 1,40,-1
EndSplineSet
Validated: 1
EndChar

StartChar: thorn
Encoding: 254 254 192
Width: 1200
GlyphClass: 2
Flags: W
HStem: -400 21G<186 366> -20 153<447.359 753.208> 967 153<448.691 751.939> 1480 20G<186 366>
VStem: 186 180<-400 64 208.612 890.146 1036 1500> 834 180<208.923 888.427>
LayerCount: 2
Fore
SplineSet
601 967 m 0,0,1
 498 967 498 967 425 905 c 0,2,3
 366 855 366 855 366 765 c 2,4,-1
 366 334 l 2,5,6
 366 243 366 243 425 194 c 0,7,8
 498 133 498 133 601 133 c 128,-1,9
 704 133 704 133 775 194 c 0,10,11
 834 244 834 244 834 334 c 2,12,-1
 834 765 l 2,13,14
 834 855 834 855 775 905 c 0,15,16
 702 967 702 967 601 967 c 0,0,1
186 1500 m 1,17,-1
 366 1500 l 1,18,-1
 366 1036 l 1,19,20
 465 1120 465 1120 600 1120 c 0,21,22
 761 1120 761 1120 887.5 1025.5 c 128,-1,23
 1014 931 1014 931 1014 766 c 2,24,-1
 1014 335 l 2,25,26
 1014 165 1014 165 886 68 c 0,27,28
 770 -20 770 -20 600 -20 c 0,29,30
 472 -20 472 -20 366 64 c 1,31,-1
 366 -400 l 1,32,-1
 186 -400 l 1,33,-1
 186 1500 l 1,17,-1
EndSplineSet
Validated: 1
EndChar

StartChar: ydieresis
Encoding: 255 255 193
Width: 1200
GlyphClass: 2
Flags: W
HStem: -420 153<447.322 751.427> -20 153<450.117 751.455> 1080 20G<186 366 834 1014> 1259 261<346.277 539.856 661.277 854.856>
VStem: 186 180<211.995 1100> 312 261<1293.28 1485.72> 627 261<1293.28 1485.72> 834 180<-188.992 64 209.854 1100>
LayerCount: 2
Fore
SplineSet
245 -263 m 1,0,-1
 392 -168 l 1,1,2
 405 -189 405 -189 425 -206 c 0,3,4
 496 -267 496 -267 599 -267 c 0,5,6
 700 -267 700 -267 775 -206 c 0,7,8
 834 -158 834 -158 834 -66 c 2,9,-1
 834 64 l 1,10,11
 730 -20 730 -20 603 -20 c 0,12,13
 602 -20 602 -20 600 -20 c 0,14,15
 427 -20 427 -20 310 72 c 0,16,17
 186 170 186 170 186 335 c 2,18,-1
 186 1100 l 1,19,-1
 366 1100 l 1,20,-1
 366 335 l 2,21,22
 366 245 366 245 425 195 c 0,23,24
 498 133 498 133 599 133 c 0,25,26
 702 133 702 133 775 195 c 0,27,28
 834 245 834 245 834 335 c 2,29,-1
 834 1100 l 1,30,-1
 1014 1100 l 1,31,-1
 1014 -66 l 2,32,33
 1014 -232 1014 -232 900 -326 c 0,34,35
 787 -420 787 -420 600 -420 c 0,36,37
 434 -420 434 -420 310 -328 c 0,38,39
 271 -299 271 -299 245 -263 c 1,0,-1
627 1389 m 128,-1,41
 627 1442 627 1442 666 1481 c 128,-1,42
 705 1520 705 1520 758 1520 c 0,43,44
 808 1520 808 1520 849 1481 c 0,45,46
 888 1444 888 1444 888 1389 c 0,47,48
 888 1336 888 1336 849 1298 c 0,49,50
 809 1259 809 1259 759 1259 c 0,51,52
 758 1259 758 1259 757 1259 c 0,53,54
 707 1259 707 1259 666 1298 c 0,55,40
 627 1336 627 1336 627 1389 c 128,-1,41
312 1389 m 128,-1,57
 312 1442 312 1442 351 1481 c 128,-1,58
 390 1520 390 1520 443 1520 c 0,59,60
 493 1520 493 1520 534 1481 c 0,61,62
 573 1444 573 1444 573 1389 c 0,63,64
 573 1336 573 1336 534 1298 c 0,65,66
 494 1259 494 1259 444 1259 c 0,67,68
 443 1259 443 1259 442 1259 c 0,69,70
 392 1259 392 1259 352 1298 c 0,71,56
 312 1336 312 1336 312 1389 c 128,-1,57
EndSplineSet
Validated: 1
EndChar

StartChar: Amacron
Encoding: 256 256 194
Width: 1200
GlyphClass: 2
Flags: W
HStem: 0 21G<50 260 940 1150> 670 160<418 782> 1310 190<415 785> 1670 160<370 838>
VStem: 50 180<0 180> 970 180<0 180>
DStem2: 50 0 230 0 0.233463 0.972366<42.0233 538.026>
LayerCount: 2
Fore
SplineSet
370 1670 m 1,0,-1
 370 1830 l 1,1,-1
 838 1830 l 1,2,-1
 838 1670 l 1,3,-1
 370 1670 l 1,0,-1
50 0 m 1,4,5
 126 444 126 444 242 827 c 128,-1,6
 358 1210 358 1210 510 1500 c 1,7,-1
 690 1500 l 1,8,9
 842 1210 842 1210 958 827 c 128,-1,10
 1074 444 1074 444 1150 0 c 1,11,-1
 970 0 l 1,12,13
 910 347 910 347 826 670 c 1,14,-1
 374 670 l 1,15,16
 290 347 290 347 230 0 c 1,17,-1
 50 0 l 1,4,5
418 830 m 1,18,-1
 782 830 l 1,19,20
 717 1052 717 1052 600 1310 c 1,21,22
 483 1052 483 1052 418 830 c 1,18,-1
EndSplineSet
Validated: 1
EndChar

StartChar: amacron
Encoding: 257 257 195
Width: 1200
GlyphClass: 2
Flags: W
HStem: -20 153<448.809 751.899> 0 21G<834 1014> 537 153<449.121 834> 967 153<449.042 749.461> 1310 160<366 834>
VStem: 186 180<210.924 458.955> 834 180<0 64 209.854 537 690 888.992>
LayerCount: 2
Fore
SplineSet
245 963 m 1,0,1
 271 999 271 999 310 1028 c 0,2,3
 434 1120 434 1120 600 1120 c 0,4,5
 787 1120 787 1120 900 1026 c 0,6,7
 1014 932 1014 932 1014 766 c 2,8,-1
 1014 0 l 1,9,-1
 834 0 l 1,10,-1
 834 64 l 1,11,12
 730 -20 730 -20 600 -20 c 0,13,14
 425 -19 425 -19 310 72 c 0,15,16
 186 170 186 170 186 335 c 128,-1,17
 186 500 186 500 310 598 c 0,18,19
 425 689 425 689 600 690 c 1,20,-1
 834 690 l 1,21,-1
 834 766 l 2,22,23
 834 858 834 858 775 906 c 0,24,25
 700 967 700 967 605 967 c 0,26,27
 602 967 602 967 599 967 c 0,28,29
 496 967 496 967 425 906 c 0,30,31
 405 889 405 889 392 868 c 1,32,-1
 245 963 l 1,0,1
599 133 m 0,33,34
 702 133 702 133 775 195 c 0,35,36
 834 245 834 245 834 335 c 2,37,-1
 834 537 l 1,38,-1
 599 537 l 1,39,40
 496 535 496 535 425 475 c 0,41,42
 366 424 366 424 366 335 c 0,43,44
 366 245 366 245 425 195 c 0,45,46
 498 133 498 133 599 133 c 0,33,34
366 1310 m 1,47,-1
 366 1470 l 1,48,-1
 834 1470 l 1,49,-1
 834 1310 l 1,50,-1
 366 1310 l 1,47,-1
EndSplineSet
Validated: 1
EndChar

StartChar: Abreve
Encoding: 258 258 196
Width: 1200
GlyphClass: 2
Flags: W
HStem: 0 21G<50 260 940 1150> 670 160<418 782> 1310 190<415 785> 1632 152<475.438 715.71>
VStem: 50 180<0 180> 970 180<0 180>
DStem2: 50 0 230 0 0.233463 0.972366<42.0233 538.026>
LayerCount: 2
Fore
SplineSet
306 1861 m 1,0,1
 306 1861 306 1861 443 1861 c 1,2,3
 505 1784 505 1784 590 1784 c 2,4,-1
 592 1784 l 1,5,6
 693 1786 693 1786 746 1861 c 1,7,-1
 880 1861 l 1,8,9
 779 1632 779 1632 593 1632 c 2,10,-1
 591 1632 l 2,11,12
 398 1632 398 1632 306 1861 c 1,0,1
50 0 m 1,13,14
 126 444 126 444 242 827 c 128,-1,15
 358 1210 358 1210 510 1500 c 1,16,-1
 690 1500 l 1,17,18
 842 1210 842 1210 958 827 c 128,-1,19
 1074 444 1074 444 1150 0 c 1,20,-1
 970 0 l 1,21,22
 910 347 910 347 826 670 c 1,23,-1
 374 670 l 1,24,25
 290 347 290 347 230 0 c 1,26,-1
 50 0 l 1,13,14
418 830 m 1,27,-1
 782 830 l 1,28,29
 717 1052 717 1052 600 1310 c 1,30,31
 483 1052 483 1052 418 830 c 1,27,-1
EndSplineSet
Validated: 1
EndChar

StartChar: abreve
Encoding: 259 259 197
Width: 1200
GlyphClass: 2
Flags: W
HStem: -20 153<448.809 751.899> 0 21G<834 1014> 537 153<449.121 834> 967 153<449.042 749.461> 1259 152<483.438 723.71>
VStem: 186 180<210.924 458.955> 834 180<0 64 209.854 537 690 888.992>
LayerCount: 2
Fore
SplineSet
245 963 m 1,0,1
 271 999 271 999 310 1028 c 0,2,3
 434 1120 434 1120 600 1120 c 0,4,5
 787 1120 787 1120 900 1026 c 0,6,7
 1014 932 1014 932 1014 766 c 2,8,-1
 1014 0 l 1,9,-1
 834 0 l 1,10,-1
 834 64 l 1,11,12
 730 -20 730 -20 600 -20 c 0,13,14
 425 -19 425 -19 310 72 c 0,15,16
 186 170 186 170 186 335 c 128,-1,17
 186 500 186 500 310 598 c 0,18,19
 425 689 425 689 600 690 c 1,20,-1
 834 690 l 1,21,-1
 834 766 l 2,22,23
 834 858 834 858 775 906 c 0,24,25
 700 967 700 967 605 967 c 0,26,27
 602 967 602 967 599 967 c 0,28,29
 496 967 496 967 425 906 c 0,30,31
 405 889 405 889 392 868 c 1,32,-1
 245 963 l 1,0,1
599 133 m 0,33,34
 702 133 702 133 775 195 c 0,35,36
 834 245 834 245 834 335 c 2,37,-1
 834 537 l 1,38,-1
 599 537 l 1,39,40
 496 535 496 535 425 475 c 0,41,42
 366 424 366 424 366 335 c 0,43,44
 366 245 366 245 425 195 c 0,45,46
 498 133 498 133 599 133 c 0,33,34
314 1488 m 1,47,-1
 451 1488 l 1,48,49
 513 1411 513 1411 598 1411 c 2,50,-1
 600 1411 l 1,51,52
 701 1413 701 1413 754 1488 c 1,53,-1
 888 1488 l 1,54,55
 787 1259 787 1259 601 1259 c 2,56,-1
 599 1259 l 2,57,58
 406 1259 406 1259 314 1488 c 1,47,-1
EndSplineSet
Validated: 1
EndChar

StartChar: Aogonek
Encoding: 260 260 198
Width: 1200
GlyphClass: 2
Flags: W
HStem: 0 21G<50 260 968 1150> 670 160<418 782> 1310 190<415 785>
VStem: 50 180<0 180> 771 147<-195.094 5.87695>
DStem2: 50 0 230 0 0.233463 0.972366<42.0233 538.026>
LayerCount: 2
Fore
SplineSet
418 830 m 1,0,-1
 782 830 l 1,1,2
 717 1052 717 1052 600 1310 c 1,3,4
 483 1052 483 1052 418 830 c 1,0,-1
50 0 m 1,5,6
 126 444 126 444 242 827 c 128,-1,7
 358 1210 358 1210 510 1500 c 1,8,-1
 690 1500 l 1,9,10
 842 1210 842 1210 958 827 c 128,-1,11
 1074 444 1074 444 1150 0 c 1,12,-1
 970 0 l 1,13,-1
 968 13 l 1,14,15
 918 -40 918 -40 918 -92 c 0,16,17
 918 -158 918 -158 984 -221 c 1,18,-1
 984 -410 l 1,19,20
 771 -320 771 -320 771 -126 c 2,21,-1
 771 -124 l 1,22,23
 772 32 772 32 946 132 c 1,24,25
 894 409 894 409 826 670 c 1,26,-1
 374 670 l 1,27,28
 290 347 290 347 230 0 c 1,29,-1
 50 0 l 1,5,6
EndSplineSet
Validated: 1
EndChar

StartChar: aogonek
Encoding: 261 261 199
Width: 1200
GlyphClass: 2
Flags: W
HStem: -20 153<448.809 751.899> 537 153<449.121 834> 967 153<449.042 749.461>
VStem: 186 180<210.924 459.076> 829 147<-195.094 -1.78369> 834 180<-90.5625 -1.78369 0 64 209.854 537 690 888.992>
LayerCount: 2
Fore
SplineSet
599 133 m 0,0,1
 702 133 702 133 775 195 c 0,2,3
 834 245 834 245 834 335 c 2,4,-1
 834 537 l 1,5,-1
 599 537 l 1,6,7
 496 535 496 535 425 475 c 0,8,9
 366 425 366 425 366 335 c 128,-1,10
 366 245 366 245 425 195 c 0,11,12
 498 133 498 133 599 133 c 0,0,1
245 963 m 1,13,14
 271 999 271 999 310 1028 c 0,15,16
 434 1120 434 1120 600 1120 c 0,17,18
 787 1120 787 1120 900 1026 c 0,19,20
 1014 932 1014 932 1014 766 c 2,21,-1
 1014 0 l 1,22,23
 976 -46 976 -46 976 -92 c 0,24,25
 976 -158 976 -158 1042 -221 c 1,26,-1
 1042 -410 l 1,27,28
 829 -320 829 -320 829 -126 c 2,29,-1
 829 -124 l 2,30,31
 829 -57 829 -57 862 0 c 1,32,-1
 834 0 l 1,33,-1
 834 64 l 1,34,35
 730 -20 730 -20 600 -20 c 0,36,37
 425 -19 425 -19 310 72 c 0,38,39
 186 170 186 170 186 335 c 128,-1,40
 186 500 186 500 310 598 c 0,41,42
 425 689 425 689 600 690 c 1,43,-1
 834 690 l 1,44,-1
 834 766 l 2,45,46
 834 858 834 858 775 906 c 0,47,48
 700 967 700 967 605 967 c 2,49,-1
 599 967 l 2,50,51
 496 967 496 967 425 906 c 0,52,53
 405 889 405 889 392 868 c 1,54,-1
 245 963 l 1,13,14
EndSplineSet
Validated: 1
EndChar

StartChar: Cacute
Encoding: 262 262 200
Width: 1200
GlyphClass: 2
Flags: W
HStem: -20 153<434.812 762.608> 1367 153<434.812 762.608>
VStem: 150 180<226.868 1273.13> 870 180<226.844 334 1166 1273.16>
LayerCount: 2
Fore
SplineSet
1050 334 m 1,0,1
 1050 184 1050 184 890 72 c 0,2,3
 759 -20 759 -20 600 -20 c 0,4,5
 428 -20 428 -20 302 65 c 0,6,7
 150 167 150 167 150 334 c 2,8,-1
 150 1166 l 2,9,10
 150 1333 150 1333 302 1435 c 0,11,12
 428 1520 428 1520 600 1520 c 0,13,14
 759 1520 759 1520 890 1428 c 0,15,16
 1050 1316 1050 1316 1050 1166 c 1,17,-1
 870 1166 l 1,18,19
 870 1250 870 1250 779 1313 c 0,20,21
 701 1366 701 1366 601 1367 c 0,22,23
 506 1367 506 1367 430 1320 c 0,24,25
 330 1258 330 1258 330 1166 c 2,26,-1
 330 334 l 2,27,28
 330 242 330 242 430 180 c 0,29,30
 506 133 506 133 601 133 c 0,31,32
 701 134 701 134 779 187 c 0,33,34
 870 250 870 250 870 334 c 1,35,-1
 1050 334 l 1,0,1
706 1930 m 1,36,-1
 868 1836 l 1,37,-1
 656 1552 l 1,38,-1
 546 1616 l 1,39,-1
 706 1930 l 1,36,-1
EndSplineSet
Validated: 1
EndChar

StartChar: cacute
Encoding: 263 263 201
Width: 1200
GlyphClass: 2
Flags: W
HStem: -20 153<448.332 752.678> 967 153<448.263 751.191>
VStem: 186 180<208.612 890.146> 834 180<208.854 334 765 888.005>
LayerCount: 2
Fore
SplineSet
1014 334 m 1,0,1
 1014 164 1014 164 890 72 c 128,-1,2
 766 -20 766 -20 600 -20 c 0,3,4
 413 -20 413 -20 300 74 c 0,5,6
 186 169 186 169 186 334 c 2,7,-1
 186 765 l 2,8,9
 186 935 186 935 314 1032 c 0,10,11
 430 1120 430 1120 600 1120 c 0,12,13
 775 1119 775 1119 890 1028 c 0,14,15
 1014 930 1014 930 1014 765 c 1,16,-1
 834 765 l 1,17,18
 834 855 834 855 775 905 c 0,19,20
 702 967 702 967 601 967 c 0,21,22
 498 967 498 967 425 905 c 0,23,24
 366 855 366 855 366 765 c 2,25,-1
 366 334 l 2,26,27
 366 243 366 243 425 194 c 0,28,29
 498 133 498 133 601 133 c 128,-1,30
 704 133 704 133 775 194 c 0,31,32
 834 244 834 244 834 334 c 1,33,-1
 1014 334 l 1,0,1
706 1528 m 1,34,-1
 868 1434 l 1,35,-1
 656 1150 l 1,36,-1
 546 1214 l 1,37,-1
 706 1528 l 1,34,-1
EndSplineSet
Validated: 1
EndChar

StartChar: Ccircumflex
Encoding: 264 264 202
Width: 1200
GlyphClass: 2
Flags: W
HStem: -20 153<434.812 762.608> 1367 153<434.812 762.608>
VStem: 150 180<226.868 1273.13> 870 180<226.844 334 1166 1273.16>
LayerCount: 2
Fore
SplineSet
1050 334 m 1,0,1
 1050 184 1050 184 890 72 c 0,2,3
 759 -20 759 -20 600 -20 c 0,4,5
 428 -20 428 -20 302 65 c 0,6,7
 150 167 150 167 150 334 c 2,8,-1
 150 1166 l 2,9,10
 150 1333 150 1333 302 1435 c 0,11,12
 428 1520 428 1520 600 1520 c 0,13,14
 759 1520 759 1520 890 1428 c 0,15,16
 1050 1316 1050 1316 1050 1166 c 1,17,-1
 870 1166 l 1,18,19
 870 1250 870 1250 779 1313 c 0,20,21
 701 1366 701 1366 601 1367 c 0,22,23
 506 1367 506 1367 430 1320 c 0,24,25
 330 1258 330 1258 330 1166 c 2,26,-1
 330 334 l 2,27,28
 330 242 330 242 430 180 c 0,29,30
 506 133 506 133 601 133 c 0,31,32
 701 134 701 134 779 187 c 0,33,34
 870 250 870 250 870 334 c 1,35,-1
 1050 334 l 1,0,1
338 1646 m 1,36,-1
 550 1930 l 1,37,-1
 656 1930 l 1,38,-1
 868 1646 l 1,39,-1
 757 1574 l 1,40,-1
 603 1726 l 1,41,-1
 447 1574 l 1,42,-1
 338 1646 l 1,36,-1
EndSplineSet
Validated: 1
EndChar

StartChar: ccircumflex
Encoding: 265 265 203
Width: 1200
GlyphClass: 2
Flags: W
HStem: -20 153<448.332 752.678> 967 153<448.263 751.191>
VStem: 186 180<208.612 890.146> 834 180<208.854 334 765 888.005>
LayerCount: 2
Fore
SplineSet
1014 334 m 1,0,1
 1014 164 1014 164 890 72 c 128,-1,2
 766 -20 766 -20 600 -20 c 0,3,4
 413 -20 413 -20 300 74 c 0,5,6
 186 169 186 169 186 334 c 2,7,-1
 186 765 l 2,8,9
 186 935 186 935 314 1032 c 0,10,11
 430 1120 430 1120 600 1120 c 0,12,13
 775 1119 775 1119 890 1028 c 0,14,15
 1014 930 1014 930 1014 765 c 1,16,-1
 834 765 l 1,17,18
 834 855 834 855 775 905 c 0,19,20
 702 967 702 967 601 967 c 0,21,22
 498 967 498 967 425 905 c 0,23,24
 366 855 366 855 366 765 c 2,25,-1
 366 334 l 2,26,27
 366 243 366 243 425 194 c 0,28,29
 498 133 498 133 601 133 c 128,-1,30
 704 133 704 133 775 194 c 0,31,32
 834 244 834 244 834 334 c 1,33,-1
 1014 334 l 1,0,1
338 1244 m 1,34,-1
 550 1528 l 1,35,-1
 656 1528 l 1,36,-1
 868 1244 l 1,37,-1
 757 1172 l 1,38,-1
 603 1324 l 1,39,-1
 447 1172 l 1,40,-1
 338 1244 l 1,34,-1
EndSplineSet
Validated: 1
EndChar

StartChar: Cdotaccent
Encoding: 266 266 204
Width: 1200
GlyphClass: 2
Flags: W
HStem: -20 153<434.812 762.608> 1367 153<434.812 762.608> 1620 261<510.252 695.856>
VStem: 150 180<226.868 1273.13> 468 261<1656.13 1846.72> 870 180<226.844 334 1166 1273.16>
LayerCount: 2
Fore
SplineSet
1050 334 m 1,0,1
 1050 184 1050 184 890 72 c 0,2,3
 759 -20 759 -20 600 -20 c 0,4,5
 428 -20 428 -20 302 65 c 0,6,7
 150 167 150 167 150 334 c 2,8,-1
 150 1166 l 2,9,10
 150 1333 150 1333 302 1435 c 0,11,12
 428 1520 428 1520 600 1520 c 0,13,14
 759 1520 759 1520 890 1428 c 0,15,16
 1050 1316 1050 1316 1050 1166 c 1,17,-1
 870 1166 l 1,18,19
 870 1250 870 1250 779 1313 c 0,20,21
 701 1366 701 1366 601 1367 c 0,22,23
 506 1367 506 1367 430 1320 c 0,24,25
 330 1258 330 1258 330 1166 c 2,26,-1
 330 334 l 2,27,28
 330 242 330 242 430 180 c 0,29,30
 506 133 506 133 601 133 c 0,31,32
 701 134 701 134 779 187 c 0,33,34
 870 250 870 250 870 334 c 1,35,-1
 1050 334 l 1,0,1
468 1750 m 0,36,37
 468 1804 468 1804 507 1842 c 0,38,39
 547 1881 547 1881 599 1881 c 0,40,41
 650 1881 650 1881 690 1842 c 0,42,43
 729 1804 729 1804 729 1750 c 0,44,45
 729 1697 729 1697 690 1659 c 0,46,47
 650 1620 650 1620 600 1620 c 0,48,49
 599 1620 599 1620 598 1620 c 0,50,51
 549 1620 549 1620 509 1655 c 0,52,53
 468 1691 468 1691 468 1750 c 0,36,37
EndSplineSet
Validated: 1
EndChar

StartChar: cdotaccent
Encoding: 267 267 205
Width: 1200
GlyphClass: 2
Flags: W
HStem: -20 153<448.332 752.678> 967 153<448.263 751.191> 1259 261<512.252 697.856>
VStem: 186 180<208.612 890.146> 470 261<1295.13 1485.72> 834 180<208.854 334 765 888.005>
LayerCount: 2
Fore
SplineSet
1014 334 m 1,0,1
 1014 164 1014 164 890 72 c 128,-1,2
 766 -20 766 -20 600 -20 c 0,3,4
 413 -20 413 -20 300 74 c 0,5,6
 186 169 186 169 186 334 c 2,7,-1
 186 765 l 2,8,9
 186 935 186 935 314 1032 c 0,10,11
 430 1120 430 1120 600 1120 c 0,12,13
 775 1119 775 1119 890 1028 c 0,14,15
 1014 930 1014 930 1014 765 c 1,16,-1
 834 765 l 1,17,18
 834 855 834 855 775 905 c 0,19,20
 702 967 702 967 601 967 c 0,21,22
 498 967 498 967 425 905 c 0,23,24
 366 855 366 855 366 765 c 2,25,-1
 366 334 l 2,26,27
 366 243 366 243 425 194 c 0,28,29
 498 133 498 133 601 133 c 128,-1,30
 704 133 704 133 775 194 c 0,31,32
 834 244 834 244 834 334 c 1,33,-1
 1014 334 l 1,0,1
470 1389 m 0,34,35
 470 1443 470 1443 509 1481 c 0,36,37
 549 1520 549 1520 601 1520 c 0,38,39
 652 1520 652 1520 692 1481 c 0,40,41
 731 1443 731 1443 731 1389 c 0,42,43
 731 1336 731 1336 692 1298 c 0,44,45
 652 1259 652 1259 602 1259 c 0,46,47
 601 1259 601 1259 600 1259 c 0,48,49
 551 1259 551 1259 511 1294 c 0,50,51
 470 1330 470 1330 470 1389 c 0,34,35
EndSplineSet
Validated: 1
EndChar

StartChar: Ccaron
Encoding: 268 268 206
Width: 1200
GlyphClass: 2
Flags: W
HStem: -20 153<434.812 762.608> 1367 153<434.812 762.608> 1552 176<462 744>
VStem: 150 180<226.868 1273.13> 870 180<226.844 334 1166 1273.16>
LayerCount: 2
Fore
SplineSet
1050 334 m 1,0,1
 1050 184 1050 184 890 72 c 0,2,3
 759 -20 759 -20 600 -20 c 0,4,5
 428 -20 428 -20 302 65 c 0,6,7
 150 167 150 167 150 334 c 2,8,-1
 150 1166 l 2,9,10
 150 1333 150 1333 302 1435 c 0,11,12
 428 1520 428 1520 600 1520 c 0,13,14
 759 1520 759 1520 890 1428 c 0,15,16
 1050 1316 1050 1316 1050 1166 c 1,17,-1
 870 1166 l 1,18,19
 870 1250 870 1250 779 1313 c 0,20,21
 701 1366 701 1366 601 1367 c 0,22,23
 506 1367 506 1367 430 1320 c 0,24,25
 330 1258 330 1258 330 1166 c 2,26,-1
 330 334 l 2,27,28
 330 242 330 242 430 180 c 0,29,30
 506 133 506 133 601 133 c 0,31,32
 701 134 701 134 779 187 c 0,33,34
 870 250 870 250 870 334 c 1,35,-1
 1050 334 l 1,0,1
338 1836 m 1,36,-1
 500 1930 l 1,37,-1
 603 1728 l 1,38,-1
 706 1930 l 1,39,-1
 868 1836 l 1,40,-1
 656 1552 l 1,41,-1
 550 1552 l 1,42,-1
 338 1836 l 1,36,-1
EndSplineSet
Validated: 1
EndChar

StartChar: ccaron
Encoding: 269 269 207
Width: 1200
GlyphClass: 2
Flags: W
HStem: -20 153<448.332 752.678> 967 153<448.263 751.191> 1150 176<462 744>
VStem: 186 180<208.612 890.146> 834 180<208.854 334 765 888.005>
LayerCount: 2
Fore
SplineSet
1014 334 m 1,0,1
 1014 164 1014 164 890 72 c 128,-1,2
 766 -20 766 -20 600 -20 c 0,3,4
 413 -20 413 -20 300 74 c 0,5,6
 186 169 186 169 186 334 c 2,7,-1
 186 765 l 2,8,9
 186 935 186 935 314 1032 c 0,10,11
 430 1120 430 1120 600 1120 c 0,12,13
 775 1119 775 1119 890 1028 c 0,14,15
 1014 930 1014 930 1014 765 c 1,16,-1
 834 765 l 1,17,18
 834 855 834 855 775 905 c 0,19,20
 702 967 702 967 601 967 c 0,21,22
 498 967 498 967 425 905 c 0,23,24
 366 855 366 855 366 765 c 2,25,-1
 366 334 l 2,26,27
 366 243 366 243 425 194 c 0,28,29
 498 133 498 133 601 133 c 128,-1,30
 704 133 704 133 775 194 c 0,31,32
 834 244 834 244 834 334 c 1,33,-1
 1014 334 l 1,0,1
338 1434 m 1,34,-1
 500 1528 l 1,35,-1
 603 1326 l 1,36,-1
 706 1528 l 1,37,-1
 868 1434 l 1,38,-1
 656 1150 l 1,39,-1
 550 1150 l 1,40,-1
 338 1434 l 1,34,-1
EndSplineSet
Validated: 1
EndChar

StartChar: Dcaron
Encoding: 270 270 208
Width: 1200
GlyphClass: 2
Flags: W
HStem: 0 153<329 761.533> 1347 153<330 761.533> 1552 176<462 744>
VStem: 150 179<153 1347> 870 180<246.844 1253.16>
LayerCount: 2
Fore
SplineSet
150 0 m 1,0,-1
 150 1500 l 1,1,-1
 600 1500 l 1,2,3
 760 1499 760 1499 890 1408 c 0,4,5
 1050 1296 1050 1296 1050 1146 c 2,6,7
 1050 1146 1050 1146 1050 354 c 0,8,9
 1050 204 1050 204 890 92 c 0,10,11
 760 1 760 1 600 0 c 1,12,-1
 150 0 l 1,0,-1
329 153 m 1,13,14
 465 153 465 153 601 153 c 1,15,16
 701 154 701 154 779 207 c 0,17,18
 870 270 870 270 870 354 c 2,19,-1
 870 1146 l 2,20,21
 870 1230 870 1230 779 1293 c 0,22,23
 701 1346 701 1346 601 1347 c 1,24,25
 466 1347 466 1347 330 1347 c 1,26,-1
 329 153 l 1,13,14
338 1836 m 1,27,-1
 500 1930 l 1,28,-1
 603 1728 l 1,29,-1
 706 1930 l 1,30,-1
 868 1836 l 1,31,-1
 656 1552 l 1,32,-1
 550 1552 l 1,33,-1
 338 1836 l 1,27,-1
EndSplineSet
Validated: 1
EndChar

StartChar: dcaron
Encoding: 271 271 209
Width: 1200
GlyphClass: 2
Flags: W
HStem: -20 153<362.061 665.309> 0 21G<748 928> 967 153<360.792 666.641> 1480 20G<748 928 1034.89 1096>
VStem: 100 180<211.573 891.077> 748 180<0 64 209.854 891.388 1036 1500>
LayerCount: 2
Fore
SplineSet
513 133 m 0,0,1
 616 133 616 133 689 195 c 0,2,3
 748 245 748 245 748 335 c 2,4,-1
 748 766 l 2,5,6
 748 857 748 857 689 906 c 0,7,8
 616 967 616 967 513 967 c 128,-1,9
 410 967 410 967 339 906 c 0,10,11
 280 856 280 856 280 766 c 2,12,-1
 280 335 l 2,13,14
 280 245 280 245 339 195 c 0,15,16
 412 133 412 133 513 133 c 0,0,1
928 0 m 1,17,-1
 748 0 l 1,18,-1
 748 64 l 1,19,20
 649 -20 649 -20 514 -20 c 0,21,22
 353 -20 353 -20 226.5 74.5 c 128,-1,23
 100 169 100 169 100 334 c 2,24,-1
 100 765 l 2,25,26
 100 935 100 935 228 1032 c 0,27,28
 344 1120 344 1120 514 1120 c 0,29,30
 642 1120 642 1120 748 1036 c 1,31,-1
 748 1500 l 1,32,-1
 928 1500 l 1,33,-1
 928 0 l 1,17,-1
1041 1519 m 1,34,-1
 1217 1455 l 1,35,-1
 1057 1138 l 1,36,-1
 938 1182 l 1,37,-1
 1041 1519 l 1,34,-1
EndSplineSet
Validated: 1
EndChar

StartChar: Dcroat
Encoding: 272 272 210
Width: 1200
GlyphClass: 2
Flags: W
HStem: 0 153<329 761.533> 670 160<80 150 330 686> 1347 153<330 761.533>
VStem: 150 179<153 670 830 1347> 870 180<246.844 1253.16>
CounterMasks: 1 e0
LayerCount: 2
Fore
SplineSet
150 0 m 1,0,-1
 150 670 l 1,1,-1
 80 670 l 1,2,-1
 80 830 l 1,3,-1
 150 830 l 1,4,-1
 150 1500 l 1,5,-1
 600 1500 l 1,6,7
 760 1499 760 1499 890 1408 c 0,8,9
 1050 1296 1050 1296 1050 1146 c 2,10,-1
 1050 354 l 2,11,12
 1050 204 1050 204 890 92 c 0,13,14
 760 1 760 1 600 0 c 1,15,-1
 150 0 l 1,0,-1
329 153 m 1,16,-1
 601 153 l 1,17,18
 701 154 701 154 779 207 c 0,19,20
 870 270 870 270 870 354 c 2,21,-1
 870 1146 l 2,22,23
 870 1230 870 1230 779 1293 c 0,24,25
 701 1346 701 1346 601 1347 c 1,26,-1
 330 1347 l 1,27,-1
 330 830 l 1,28,-1
 686 830 l 1,29,-1
 686 670 l 1,30,-1
 329 670 l 1,31,-1
 329 153 l 1,16,-1
EndSplineSet
Validated: 1
EndChar

StartChar: dcroat
Encoding: 273 273 211
Width: 1200
GlyphClass: 2
Flags: W
HStem: -20 153<448.061 751.309> 0 21G<834 1014> 967 153<446.792 752.641> 1218 160<446 834 1014 1120> 1480 20G<834 1014>
VStem: 186 180<211.573 891.077> 834 180<0 64 209.854 891.388 1036 1218 1378 1500>
LayerCount: 2
Fore
SplineSet
1014 0 m 1,0,-1
 834 0 l 1,1,-1
 834 64 l 1,2,3
 735 -20 735 -20 600 -20 c 0,4,5
 439 -20 439 -20 312.5 74.5 c 128,-1,6
 186 169 186 169 186 334 c 2,7,-1
 186 765 l 2,8,9
 186 935 186 935 314 1032 c 0,10,11
 430 1120 430 1120 600 1120 c 0,12,13
 728 1120 728 1120 834 1036 c 1,14,-1
 834 1218 l 1,15,-1
 446 1218 l 1,16,-1
 446 1378 l 1,17,-1
 834 1378 l 1,18,-1
 834 1500 l 1,19,-1
 1014 1500 l 1,20,-1
 1014 1378 l 1,21,-1
 1120 1378 l 1,22,-1
 1120 1218 l 1,23,-1
 1014 1218 l 1,24,-1
 1014 0 l 1,0,-1
599 133 m 0,25,26
 702 133 702 133 775 195 c 0,27,28
 834 245 834 245 834 335 c 2,29,-1
 834 766 l 2,30,31
 834 857 834 857 775 906 c 0,32,33
 702 967 702 967 599 967 c 128,-1,34
 496 967 496 967 425 906 c 0,35,36
 366 856 366 856 366 766 c 2,37,-1
 366 335 l 2,38,39
 366 245 366 245 425 195 c 0,40,41
 498 133 498 133 599 133 c 0,25,26
EndSplineSet
Validated: 1
EndChar

StartChar: Emacron
Encoding: 274 274 212
Width: 1200
GlyphClass: 2
Flags: W
HStem: 0 160<366 1014> 670 160<366 821> 1340 160<366 946> 1670 160<370 838>
VStem: 186 180<160 670 830 1340>
LayerCount: 2
Fore
SplineSet
186 0 m 1,0,-1
 186 1500 l 1,1,-1
 946 1500 l 1,2,-1
 946 1340 l 1,3,-1
 366 1340 l 1,4,-1
 366 830 l 1,5,-1
 821 830 l 1,6,-1
 821 670 l 1,7,-1
 366 670 l 1,8,-1
 366 160 l 1,9,-1
 1014 160 l 1,10,-1
 1014 0 l 1,11,-1
 186 0 l 1,0,-1
370 1670 m 1,12,-1
 370 1830 l 1,13,-1
 838 1830 l 1,14,-1
 838 1670 l 1,15,-1
 370 1670 l 1,12,-1
EndSplineSet
Validated: 1
EndChar

StartChar: emacron
Encoding: 275 275 213
Width: 1200
GlyphClass: 2
Flags: W
HStem: -20 153<448.211 752.429> 967 153<448.095 751.155> 1310 160<366 834>
VStem: 186 180<211.49 388 549 890.146> 834 180<209.095 334 691 888.005>
DStem2: 366 549 366 388 0.957989 0.286805<0 489.065>
LayerCount: 2
Fore
SplineSet
598 967 m 0,0,1
 497 967 497 967 425 905 c 0,2,3
 366 855 366 855 366 765 c 2,4,-1
 366 549 l 1,5,-1
 834 691 l 1,6,-1
 834 765 l 2,7,8
 834 855 834 855 775 905 c 0,9,10
 702 967 702 967 598 967 c 0,0,1
1014 334 m 1,11,12
 1014 164 1014 164 890 72 c 0,13,14
 765 -20 765 -20 600 -20 c 0,15,16
 413 -20 413 -20 300 74 c 0,17,18
 186 169 186 169 186 334 c 2,19,-1
 186 765 l 2,20,21
 186 935 186 935 314 1032 c 0,22,23
 430 1120 430 1120 600 1120 c 0,24,25
 775 1119 775 1119 890 1028 c 0,26,27
 1014 930 1014 930 1014 765 c 2,28,-1
 1014 582 l 1,29,-1
 366 388 l 1,30,-1
 366 334 l 2,31,32
 366 244 366 244 425 194 c 0,33,34
 497 133 497 133 601 133 c 0,35,36
 704 133 704 133 775 194 c 0,37,38
 834 245 834 245 834 334 c 1,39,-1
 1014 334 l 1,11,12
366 1310 m 1,40,-1
 366 1470 l 1,41,-1
 834 1470 l 1,42,-1
 834 1310 l 1,43,-1
 366 1310 l 1,40,-1
EndSplineSet
Validated: 1
EndChar

